<svg width="254" height="188" viewBox="0 0 254 188" fill="none" xmlns="http://www.w3.org/2000/svg">
<path d="M253.048 12.408V40.984H252.296V40.6794H0.752V40.984H0V12.408C0.00322923 9.11819 1.31153 5.96404 3.63778 3.63778C5.96404 1.31153 9.11819 0.00322923 12.408 0H240.64C243.93 0.00322923 247.084 1.31153 249.41 3.63778C251.736 5.96404 253.045 9.11819 253.048 12.408Z" fill="#4870FF"/>
<path d="M240.64 0H12.408C9.11819 0.00322923 5.96404 1.31153 3.63778 3.63778C1.31153 5.96404 0.00322923 9.11818 0 12.408V175.592C0.00322923 178.882 1.31153 182.036 3.63778 184.362C5.96404 186.688 9.11819 187.997 12.408 188H240.64C243.93 187.997 247.084 186.688 249.41 184.362C251.736 182.036 253.045 178.882 253.048 175.592V12.408C253.045 9.11818 251.736 5.96404 249.41 3.63778C247.084 1.31153 243.93 0.00322923 240.64 0ZM252.296 175.592C252.292 178.682 251.063 181.645 248.878 183.83C246.693 186.015 243.73 187.244 240.64 187.248H12.408C9.31785 187.244 6.35538 186.015 4.17031 183.83C1.98524 181.645 0.755943 178.682 0.752 175.592V12.408C0.755943 9.31785 1.98524 6.35539 4.17031 4.17032C6.35538 1.98525 9.31785 0.755943 12.408 0.752H240.64C243.73 0.755944 246.693 1.98525 248.878 4.17032C251.063 6.35539 252.292 9.31785 252.296 12.408V175.592Z" fill="#3F3D56"/>
<path d="M51.136 28.012C55.2891 28.012 58.656 24.6452 58.656 20.492C58.656 16.3389 55.2891 12.972 51.136 12.972C46.9828 12.972 43.616 16.3389 43.616 20.492C43.616 24.6452 46.9828 28.012 51.136 28.012Z" fill="white"/>
<path d="M201.912 28.012C206.065 28.012 209.432 24.6452 209.432 20.492C209.432 16.3389 206.065 12.972 201.912 12.972C197.759 12.972 194.392 16.3389 194.392 20.492C194.392 24.6452 197.759 28.012 201.912 28.012Z" fill="white"/>
<path d="M72.8631 104.341H28.128C26.2329 104.339 24.4159 103.585 23.0758 102.245C21.7357 100.905 20.9819 99.0876 20.9797 97.1924V76.0489C20.9819 74.1537 21.7357 72.3368 23.0758 70.9967C24.4159 69.6566 26.2329 68.9028 28.128 68.9006H72.8631C74.7583 68.9028 76.5752 69.6566 77.9153 70.9967C79.2554 72.3368 80.0093 74.1537 80.0114 76.0489V97.1924C80.0093 99.0876 79.2554 100.905 77.9153 102.245C76.5752 103.585 74.7583 104.339 72.8631 104.341Z" fill="#4870FF"/>
<path d="M148.965 104.341H104.23C102.335 104.339 100.518 103.585 99.1776 102.245C97.8375 100.905 97.0837 99.0876 97.0815 97.1924V76.0489C97.0837 74.1537 97.8375 72.3368 99.1776 70.9967C100.518 69.6566 102.335 68.9028 104.23 68.9006H148.965C150.86 68.9028 152.677 69.6566 154.017 70.9967C155.357 72.3368 156.111 74.1537 156.113 76.0489V97.1924C156.111 99.0876 155.357 100.905 154.017 102.245C152.677 103.585 150.86 104.339 148.965 104.341Z" fill="#4870FF"/>
<path d="M148.965 158.97H104.23C102.277 158.968 100.405 158.191 99.0245 156.811C97.6438 155.43 96.8672 153.558 96.865 151.605V130.462C96.8672 128.509 97.6438 126.637 99.0245 125.256C100.405 123.876 102.277 123.099 104.23 123.097H148.965C150.918 123.099 152.79 123.876 154.17 125.256C155.551 126.637 156.328 128.509 156.33 130.462V151.605C156.328 153.558 155.551 155.43 154.17 156.811C152.79 158.191 150.918 158.968 148.965 158.97Z" fill="#F2F2F2"/>
<path d="M72.7164 158.97H27.9814C26.0287 158.968 24.1567 158.191 22.776 156.811C21.3953 155.43 20.6187 153.558 20.6165 151.605V130.462C20.6187 128.509 21.3953 126.637 22.776 125.256C24.1567 123.876 26.0287 123.099 27.9814 123.097H72.7164C74.669 123.099 76.5411 123.876 77.9218 125.256C79.3025 126.637 80.0791 128.509 80.0813 130.462V151.605C80.0791 153.558 79.3025 155.43 77.9218 156.811C76.5411 158.191 74.669 158.968 72.7164 158.97Z" fill="#F2F2F2"/>
<path d="M225.067 158.97H180.332C178.379 158.968 176.507 158.191 175.126 156.811C173.746 155.43 172.969 153.558 172.967 151.605V130.462C172.969 128.509 173.746 126.637 175.126 125.256C176.507 123.876 178.379 123.099 180.332 123.097H225.067C227.019 123.099 228.891 123.876 230.272 125.256C231.653 126.637 232.429 128.509 232.432 130.462V151.605C232.429 153.558 231.653 155.43 230.272 156.811C228.891 158.191 227.019 158.968 225.067 158.97Z" fill="#F2F2F2"/>
<path d="M225.067 104.383H180.332C178.379 104.381 176.507 103.604 175.126 102.224C173.746 100.843 172.969 98.971 172.967 97.0184V75.8747C172.969 73.9221 173.746 72.05 175.126 70.6693C176.507 69.2886 178.379 68.512 180.332 68.5098H225.067C227.019 68.512 228.891 69.2886 230.272 70.6693C231.653 72.05 232.429 73.9221 232.432 75.8747V97.0184C232.429 98.971 231.653 100.843 230.272 102.224C228.891 103.604 227.019 104.381 225.067 104.383Z" fill="#F2F2F2"/>
<path d="M50.4954 98.7511C57.1949 98.7511 62.6259 93.3202 62.6259 86.6207C62.6259 79.9212 57.1949 74.4902 50.4954 74.4902C43.796 74.4902 38.365 79.9212 38.365 86.6207C38.365 93.3202 43.796 98.7511 50.4954 98.7511Z" fill="white"/>
<path d="M49.293 91.2482C49.0201 91.2487 48.7544 91.1605 48.5361 90.9968L48.5225 90.9866L45.6718 88.804C45.5396 88.7029 45.4286 88.5767 45.3452 88.4327C45.2617 88.2887 45.2075 88.1297 45.1856 87.9647C45.1637 87.7997 45.1745 87.632 45.2174 87.4712C45.2603 87.3104 45.3345 87.1597 45.4357 87.0276C45.537 86.8955 45.6632 86.7846 45.8073 86.7013C45.9514 86.6181 46.1105 86.564 46.2755 86.5422C46.4405 86.5205 46.6082 86.5314 46.7689 86.5745C46.9297 86.6176 47.0804 86.692 47.2124 86.7933L49.0589 88.2092L53.4224 82.5185C53.5236 82.3865 53.6498 82.2757 53.7938 82.1925C53.9378 82.1093 54.0968 82.0552 54.2617 82.0335C54.4266 82.0117 54.5942 82.0226 54.7549 82.0656C54.9155 82.1086 55.0662 82.1828 55.1981 82.2841L55.171 82.3209L55.1988 82.2846C55.4651 82.4892 55.6393 82.7911 55.6832 83.124C55.7272 83.4569 55.6372 83.7936 55.4332 84.0603L50.3006 90.754C50.1819 90.9082 50.0293 91.033 49.8545 91.1187C49.6798 91.2045 49.4877 91.2488 49.293 91.2482Z" fill="#8092D2"/>
<path d="M126.814 98.5769C133.514 98.5769 138.944 93.146 138.944 86.4465C138.944 79.747 133.514 74.316 126.814 74.316C120.115 74.316 114.684 79.747 114.684 86.4465C114.684 93.146 120.115 98.5769 126.814 98.5769Z" fill="white"/>
<path d="M125.612 91.074C125.339 91.0745 125.073 90.9863 124.855 90.8226L124.841 90.8124L121.99 88.6298C121.724 88.4255 121.549 88.1237 121.505 87.7907C121.461 87.4577 121.551 87.1208 121.755 86.8542C121.96 86.5875 122.261 86.413 122.594 86.3689C122.927 86.3248 123.264 86.4148 123.531 86.6191L125.377 88.035L129.741 82.3443C129.842 82.2123 129.968 82.1015 130.112 82.0183C130.256 81.9351 130.415 81.881 130.58 81.8593C130.745 81.8375 130.913 81.8484 131.073 81.8914C131.234 81.9344 131.385 82.0086 131.517 82.1099L131.49 82.1467L131.517 82.1104C131.784 82.315 131.958 82.6169 132.002 82.9498C132.046 83.2827 131.956 83.6194 131.752 83.8861L126.619 90.5798C126.501 90.734 126.348 90.8588 126.173 90.9445C125.998 91.0303 125.806 91.0746 125.612 91.074Z" fill="#8092D2"/>
</svg>
