<svg width="521" height="288" viewBox="0 0 521 288" fill="none" xmlns="http://www.w3.org/2000/svg">
<g clip-path="url(#clip0)">
<path d="M268.091 286.526C259.855 287.738 251.519 288.141 243.204 287.728C223.154 286.716 203.435 280.888 186.584 269.931C179.112 265.072 171.985 259.103 168.118 251.084C162.869 240.195 164.704 226.41 172.2 216.925C174.934 213.504 178.297 210.637 182.109 208.477C182.673 208.158 183.25 207.852 183.834 207.557C190.184 204.366 197.317 203.061 204.387 203.796C216.407 205.109 227.5 212.447 233.909 222.698C239.618 231.839 241.607 242.624 242.78 253.434C243.001 255.471 243.191 257.514 243.375 259.545C242.354 265.428 240.748 271.195 238.581 276.759C238.471 277.03 238.38 277.309 238.311 277.594C239.539 280.256 240.707 282.943 241.816 285.655C242.858 286.22 244.025 286.515 245.211 286.514H268.042L268.091 286.526Z" fill="#F2F2F2"/>
<path d="M241.343 287.047C241.192 287.115 241.029 287.152 240.863 287.155C240.697 287.159 240.533 287.13 240.378 287.07C240.224 287.009 240.083 286.918 239.965 286.803C239.846 286.687 239.751 286.55 239.686 286.397C239.588 286.164 239.496 285.931 239.397 285.698C238.513 283.551 237.587 281.424 236.617 279.317C224.199 252.136 205.676 228.183 182.489 209.318C182.356 209.225 182.251 209.097 182.184 208.95C182.117 208.802 182.091 208.639 182.109 208.477C182.142 208.292 182.217 208.118 182.328 207.966C182.439 207.814 182.583 207.689 182.749 207.601C182.915 207.512 183.098 207.462 183.286 207.455C183.474 207.447 183.661 207.482 183.834 207.557C183.926 207.599 184.013 207.653 184.092 207.717C194.012 215.791 203.113 224.823 211.262 234.68C219.414 244.528 226.591 255.141 232.694 266.373C234.357 269.44 235.937 272.551 237.433 275.704C237.728 276.33 238.022 276.962 238.311 277.594C239.539 280.256 240.707 282.943 241.816 285.655C241.835 285.698 241.853 285.747 241.872 285.79C241.928 285.906 241.959 286.033 241.963 286.162C241.966 286.291 241.942 286.419 241.892 286.538C241.842 286.657 241.768 286.764 241.673 286.852C241.578 286.94 241.466 287.006 241.343 287.047Z" fill="white"/>
<path d="M159.922 206.134C173.145 206.134 183.864 195.422 183.864 182.208C183.864 168.993 173.145 158.281 159.922 158.281C146.699 158.281 135.98 168.993 135.98 182.208C135.98 195.422 146.699 206.134 159.922 206.134Z" fill="#FC3A3A"/>
<path d="M157.549 191.335C157.01 191.336 156.486 191.162 156.055 190.839L156.028 190.819L150.402 186.514C150.141 186.314 149.922 186.066 149.758 185.782C149.593 185.498 149.486 185.184 149.443 184.859C149.4 184.533 149.421 184.203 149.506 183.886C149.591 183.569 149.737 183.271 149.937 183.011C150.137 182.75 150.386 182.532 150.67 182.368C150.954 182.203 151.268 182.097 151.594 182.054C151.919 182.011 152.25 182.032 152.567 182.117C152.884 182.202 153.182 182.348 153.442 182.548L157.087 185.341L165.699 174.116C165.899 173.856 166.148 173.637 166.432 173.473C166.717 173.309 167.03 173.203 167.356 173.16C167.681 173.117 168.012 173.138 168.329 173.223C168.646 173.308 168.943 173.454 169.204 173.654L169.15 173.727L169.205 173.655C169.731 174.059 170.075 174.654 170.161 175.311C170.248 175.967 170.071 176.631 169.668 177.157L159.538 190.36C159.303 190.664 159.002 190.91 158.657 191.079C158.312 191.249 157.933 191.336 157.549 191.335Z" fill="white"/>
<path d="M520.269 288H0.731042C0.537546 287.999 0.352172 287.922 0.215548 287.785C0.0789237 287.648 0.00219727 287.463 0.00219727 287.27C0.00219727 287.076 0.0789237 286.891 0.215548 286.754C0.352172 286.617 0.537546 286.54 0.731042 286.539H520.269C520.463 286.54 520.648 286.617 520.785 286.754C520.921 286.891 520.998 287.076 520.998 287.27C520.998 287.463 520.921 287.648 520.785 287.785C520.648 287.922 520.463 287.999 520.269 288Z" fill="#3F3D56"/>
<path d="M101.628 83.4012C111.44 83.4012 119.394 75.4523 119.394 65.6467C119.394 55.8412 111.44 47.8923 101.628 47.8923C91.8162 47.8923 83.8621 55.8412 83.8621 65.6467C83.8621 75.4523 91.8162 83.4012 101.628 83.4012Z" fill="#2F2E41"/>
<path d="M87.7609 56.074C90.6319 53.205 91.2137 49.1348 89.0605 46.983C86.9073 44.8312 82.8344 45.4126 79.9634 48.2817C77.0925 51.1507 76.5107 55.2209 78.6639 57.3727C80.8171 59.5245 84.89 58.9431 87.7609 56.074Z" fill="#2F2E41"/>
<path d="M120.145 50.4358C121.341 47.6373 119.284 44.0767 115.551 42.4828C111.817 40.8889 107.82 41.8654 106.624 44.6639C105.428 47.4624 107.485 51.023 111.219 52.6169C114.953 54.2108 118.949 53.2343 120.145 50.4358Z" fill="#2F2E41"/>
<path d="M151.1 168.151C151.549 167.298 151.805 166.357 151.851 165.395C151.896 164.432 151.731 163.472 151.365 162.58C150.999 161.689 150.441 160.889 149.733 160.236C149.024 159.583 148.18 159.093 147.261 158.801L121.59 104.532L109.848 112.761L138.774 163.518C138.385 165.093 138.589 166.756 139.345 168.191C140.101 169.626 141.358 170.735 142.878 171.306C144.397 171.877 146.073 171.871 147.589 171.289C149.104 170.708 150.353 169.591 151.1 168.151V168.151Z" fill="#FFB8B8"/>
<path d="M127.477 113.586L113.843 119.679C113.456 119.852 113.035 119.94 112.61 119.936C112.185 119.932 111.766 119.837 111.381 119.656C110.996 119.476 110.655 119.215 110.38 118.891C110.106 118.567 109.904 118.188 109.789 117.779L105.769 103.452C104.893 101.464 104.841 99.2091 105.626 97.1828C106.41 95.1566 107.967 93.5239 109.954 92.6428C111.942 91.7617 114.197 91.7041 116.227 92.4826C118.257 93.2611 119.895 94.8121 120.782 96.7956L128.764 109.3C128.992 109.658 129.141 110.061 129.199 110.482C129.257 110.902 129.225 111.331 129.102 111.737C128.98 112.144 128.772 112.52 128.492 112.839C128.211 113.158 127.865 113.413 127.477 113.586Z" fill="#CCCCCC"/>
<path d="M64.5112 173.531C65.4504 173.313 66.3303 172.892 67.0889 172.297C67.8476 171.703 68.4666 170.949 68.9023 170.09C69.3381 169.23 69.5799 168.286 69.6109 167.323C69.6418 166.36 69.4611 165.402 69.0814 164.516L93.3932 109.625L79.4856 106.125L59.9611 161.181C58.5146 161.917 57.3885 163.158 56.7961 164.668C56.2038 166.179 56.1864 167.853 56.7472 169.376C57.3081 170.898 58.4082 172.162 59.8392 172.928C61.2701 173.693 62.9325 173.908 64.5112 173.531H64.5112Z" fill="#FFB8B8"/>
<path d="M57.8838 273.025L64.9559 275.598L78.2535 249.562L67.8154 245.765L57.8838 273.025Z" fill="#FFB8B8"/>
<path d="M76.2039 287.123L53.9774 279.036L57.1041 270.454L70.7431 275.417C73.0206 276.245 74.8755 277.944 75.8996 280.14C76.9236 282.335 77.0331 284.847 76.2039 287.123Z" fill="#2F2E41"/>
<path d="M74.6118 258.042C74.1779 258.042 73.7493 257.946 73.3571 257.761L65.2295 253.913C64.5632 253.601 64.0381 253.05 63.7576 252.37C63.4772 251.69 63.4616 250.93 63.7141 250.239L86.6516 186.762C86.8416 186.236 87.1769 185.775 87.6185 185.432C88.0602 185.089 88.5901 184.878 89.1468 184.824C89.7034 184.77 90.264 184.875 90.7635 185.127C91.2629 185.378 91.6808 185.766 91.9685 186.245L104.101 206.452C104.37 206.902 104.516 207.416 104.521 207.941C104.527 208.466 104.393 208.983 104.132 209.439L77.1902 256.556C76.9291 257.009 76.5533 257.384 76.1006 257.645C75.6479 257.906 75.1344 258.043 74.6118 258.042Z" fill="#2F2E41"/>
<path d="M102.192 84.9531C110.519 84.9531 117.27 78.207 117.27 69.8851C117.27 61.5633 110.519 54.8171 102.192 54.8171C93.8644 54.8171 87.1138 61.5633 87.1138 69.8851C87.1138 78.207 93.8644 84.9531 102.192 84.9531Z" fill="#FFB8B8"/>
<path d="M123.523 138.394L96.8255 131.057L82.6263 102.677C81.9442 101.314 81.6221 99.7988 81.6907 98.2761C81.7593 96.7533 82.2162 95.2734 83.0181 93.9767C83.82 92.6801 84.9403 91.6099 86.2725 90.8676C87.6047 90.1253 89.1047 89.7357 90.63 89.7358H111.871C114.075 89.7344 116.203 90.5475 117.844 92.0188C123.542 97.1197 135.512 111.825 123.638 138.137L123.523 138.394Z" fill="#CCCCCC"/>
<path d="M90.102 119.442L76.5757 113.115C76.1909 112.935 75.8494 112.674 75.5745 112.35C75.2996 112.027 75.0977 111.647 74.9827 111.238C74.8677 110.83 74.8422 110.401 74.9079 109.981C74.9737 109.562 75.1291 109.161 75.3637 108.807L83.5841 96.4008C84.5171 94.4384 86.1906 92.9258 88.2378 92.1946C90.285 91.4634 92.5388 91.5732 94.5051 92.5C96.4714 93.4269 97.9897 95.095 98.7272 97.1388C99.4646 99.1826 99.3611 101.435 98.4392 103.403L94.1885 117.613C94.0667 118.02 93.8585 118.396 93.5783 118.715C93.298 119.034 92.9522 119.289 92.5644 119.463C92.1766 119.636 91.7559 119.724 91.3309 119.721C90.906 119.717 90.4869 119.622 90.102 119.442Z" fill="#CCCCCC"/>
<path d="M106.467 280.139H113.993L117.574 251.128L106.465 251.129L106.467 280.139Z" fill="#FFB8B8"/>
<path d="M128.508 287.122L104.854 287.123L104.854 277.99L119.369 277.99C121.793 277.99 124.117 278.952 125.831 280.664C127.545 282.377 128.508 284.7 128.508 287.122Z" fill="#2F2E41"/>
<path d="M109.309 269.084C108.632 269.085 107.976 268.853 107.45 268.426C106.925 268 106.563 267.406 106.425 266.744C104.261 256.557 93.0256 204.381 84.2562 177.506C75.3337 150.162 90.5292 137.707 93.6659 135.489C94 135.253 94.2654 134.933 94.435 134.561L96.7139 129.551C96.9502 129.034 97.3303 128.595 97.8089 128.288C98.2875 127.98 98.8444 127.817 99.4133 127.817H99.4318C116.516 127.919 122.259 133.3 123.935 135.61C124.182 135.954 124.352 136.347 124.432 136.763C124.512 137.179 124.5 137.607 124.398 138.018L113.588 182.586C113.521 182.862 113.506 183.148 113.544 183.43L124.298 264.35C124.35 264.739 124.323 265.134 124.221 265.513C124.118 265.891 123.941 266.246 123.699 266.555C123.458 266.865 123.157 267.123 122.815 267.316C122.473 267.508 122.096 267.63 121.706 267.675L109.656 269.064C109.541 269.077 109.425 269.084 109.309 269.084Z" fill="#2F2E41"/>
<path d="M86.3484 60.4074C89.7939 62.7806 93.8835 64.0436 98.0681 64.0269C96.5754 65.0612 94.8761 65.7599 93.0872 66.0747C98.6509 67.2674 104.401 67.2997 109.978 66.1696C111.218 65.9709 112.414 65.5604 113.514 64.9559C114.062 64.65 114.54 64.2321 114.916 63.7296C115.292 63.227 115.558 62.651 115.696 62.039C116.067 59.9233 114.417 58.0012 112.703 56.7058C110.078 54.7527 107.052 53.4071 103.843 52.7663C100.634 52.1255 97.3226 52.2055 94.1483 53.0005C92.0756 53.5359 89.9992 54.4405 88.653 56.104C87.3067 57.7674 86.9079 60.3319 88.1906 62.0448L86.3484 60.4074Z" fill="#2F2E41"/>
<path d="M363.123 125.766C367.53 125.766 371.103 122.195 371.103 117.791C371.103 113.386 367.53 109.815 363.123 109.815C358.715 109.815 355.142 113.386 355.142 117.791C355.142 122.195 358.715 125.766 363.123 125.766Z" fill="#F16161"/>
<path d="M362.331 120.833C362.152 120.834 361.977 120.775 361.833 120.668L361.825 120.661L359.949 119.226C359.862 119.16 359.789 119.077 359.734 118.982C359.679 118.887 359.643 118.783 359.628 118.674C359.614 118.566 359.621 118.455 359.649 118.349C359.677 118.244 359.726 118.144 359.793 118.057C359.859 117.971 359.942 117.898 360.037 117.843C360.132 117.788 360.237 117.753 360.346 117.738C360.454 117.724 360.565 117.731 360.671 117.76C360.777 117.788 360.876 117.837 360.963 117.904L362.177 118.835L365.048 115.094C365.115 115.007 365.198 114.934 365.292 114.879C365.387 114.825 365.492 114.789 365.6 114.775C365.709 114.76 365.819 114.768 365.925 114.796C366.03 114.824 366.13 114.873 366.216 114.939L366.199 114.964L366.217 114.94C366.392 115.074 366.507 115.273 366.536 115.492C366.564 115.711 366.505 115.932 366.371 116.107L362.994 120.508C362.916 120.61 362.816 120.692 362.701 120.748C362.586 120.804 362.459 120.834 362.331 120.833Z" fill="white"/>
<path d="M363.123 149.079C367.53 149.079 371.103 145.508 371.103 141.103C371.103 136.699 367.53 133.128 363.123 133.128C358.715 133.128 355.142 136.699 355.142 141.103C355.142 145.508 358.715 149.079 363.123 149.079Z" fill="#F16161"/>
<path d="M362.331 144.146C362.152 144.146 361.977 144.088 361.833 143.981L361.825 143.974L359.949 142.539C359.862 142.472 359.789 142.39 359.734 142.295C359.679 142.2 359.643 142.096 359.628 141.987C359.614 141.878 359.621 141.768 359.649 141.662C359.677 141.556 359.726 141.457 359.793 141.37C359.859 141.283 359.942 141.21 360.037 141.156C360.132 141.101 360.237 141.065 360.346 141.051C360.454 141.037 360.565 141.044 360.671 141.073C360.777 141.101 360.876 141.15 360.963 141.217L362.177 142.148L365.048 138.406C365.115 138.32 365.198 138.247 365.292 138.192C365.387 138.137 365.492 138.102 365.6 138.087C365.709 138.073 365.819 138.08 365.925 138.109C366.03 138.137 366.13 138.186 366.216 138.252L366.199 138.276L366.217 138.253C366.392 138.387 366.507 138.586 366.536 138.804C366.564 139.023 366.505 139.245 366.371 139.42L362.994 143.821C362.916 143.922 362.816 144.004 362.701 144.061C362.586 144.117 362.459 144.146 362.331 144.146Z" fill="white"/>
<path d="M367.42 176.073C371.827 176.073 375.4 172.502 375.4 168.097C375.4 163.693 371.827 160.122 367.42 160.122C363.012 160.122 359.439 163.693 359.439 168.097C359.439 172.502 363.012 176.073 367.42 176.073Z" fill="#F16161"/>
<path d="M366.629 171.14C366.449 171.14 366.274 171.082 366.131 170.974L366.122 170.968L364.246 169.533C364.159 169.466 364.086 169.383 364.031 169.289C363.976 169.194 363.94 169.089 363.926 168.981C363.911 168.872 363.918 168.762 363.946 168.656C363.975 168.55 364.023 168.451 364.09 168.364C364.157 168.277 364.24 168.204 364.335 168.149C364.43 168.094 364.534 168.059 364.643 168.045C364.752 168.03 364.862 168.038 364.968 168.066C365.074 168.095 365.173 168.144 365.26 168.211L366.475 169.142L369.346 165.4C369.412 165.313 369.495 165.24 369.59 165.186C369.685 165.131 369.789 165.096 369.898 165.081C370.006 165.067 370.116 165.074 370.222 165.102C370.328 165.131 370.427 165.179 370.514 165.246L370.496 165.27L370.514 165.246C370.689 165.381 370.804 165.579 370.833 165.798C370.862 166.017 370.803 166.238 370.668 166.414L367.292 170.815C367.214 170.916 367.113 170.998 366.998 171.054C366.883 171.111 366.757 171.14 366.629 171.14Z" fill="white"/>
<path d="M444.376 234.685C444.293 234.685 444.241 234.683 444.223 234.682L434.314 234.683V233.223H444.258C444.489 233.232 449.186 233.364 453.514 228.116C459.963 220.295 465.26 200.932 453.865 153.108C438.544 88.8012 451.323 31.9898 457.528 10.5492C457.834 9.48846 457.888 8.37119 457.688 7.28568C457.487 6.20017 457.036 5.17617 456.372 4.29458C455.707 3.41299 454.846 2.69796 453.857 2.206C452.868 1.71404 451.779 1.45863 450.674 1.45994H302.704C301.579 1.46145 300.47 1.72801 299.467 2.238C298.465 2.74798 297.597 3.48702 296.933 4.39513C294.305 8.0086 290.697 14.9504 288.44 27.5024L287.002 27.2443C289.309 14.4197 293.033 7.27363 295.752 3.53684C296.551 2.44262 297.597 1.55209 298.804 0.937562C300.012 0.323032 301.348 0.00181754 302.704 3.97336e-06H450.674C452.005 -0.00127619 453.318 0.306797 454.51 0.899884C455.701 1.49297 456.739 2.35482 457.539 3.41734C458.34 4.47987 458.883 5.71395 459.124 7.0221C459.366 8.33024 459.3 9.67661 458.931 10.9548C452.758 32.2842 440.046 88.8009 455.287 152.77C466.841 201.267 461.287 221.049 454.592 229.104C450.177 234.416 445.312 234.685 444.376 234.685Z" fill="#E6E6E6"/>
<path d="M417.714 261.329C417.632 261.329 417.579 261.327 417.561 261.326L407.653 261.327V259.867H417.597C417.829 259.874 422.525 260.008 426.853 254.76C433.302 246.938 438.598 227.576 427.204 179.752C411.883 115.445 424.662 58.6335 430.867 37.1929C431.172 36.1321 431.227 35.0149 431.026 33.9294C430.826 32.8439 430.375 31.8199 429.71 30.9383C429.046 30.0567 428.185 29.3417 427.196 28.8497C426.207 28.3577 425.117 28.1023 424.013 28.1036H276.042C274.917 28.1051 273.809 28.3717 272.806 28.8817C271.803 29.3917 270.935 30.1307 270.272 31.0388C267.643 34.6523 264.036 41.5941 261.779 54.146L260.341 53.888C262.647 41.0633 266.372 33.9173 269.09 30.1805C269.889 29.0863 270.935 28.1958 272.143 27.5812C273.351 26.9667 274.687 26.6455 276.042 26.6437H424.013C425.344 26.6424 426.657 26.9505 427.849 27.5436C429.04 28.1367 430.077 28.9985 430.878 30.061C431.679 31.1236 432.222 32.3576 432.463 33.6658C432.705 34.9739 432.639 36.3203 432.27 37.5985C426.097 58.9279 413.385 115.445 428.626 179.414C440.18 227.911 434.625 247.693 427.931 255.747C423.516 261.06 418.651 261.329 417.714 261.329Z" fill="#CCCCCC"/>
<path d="M401.964 206.06C386.721 142.091 399.434 85.5701 405.61 64.245C405.978 62.9668 406.043 61.6206 405.802 60.3127C405.56 59.0048 405.017 57.771 404.216 56.7085C403.416 55.6461 402.379 54.7841 401.188 54.1905C399.997 53.5969 398.684 53.2879 397.353 53.288H249.38C248.025 53.2894 246.689 53.61 245.482 54.224C244.274 54.8381 243.229 55.7281 242.43 56.8218C236.457 65.0303 224.062 92.251 237.906 167.57C245.309 207.864 245.199 235.336 242.78 253.434C241.423 263.624 239.33 270.839 237.433 275.704L237.23 276.219C236.831 277.204 236.623 278.255 236.617 279.317C236.603 280.517 236.843 281.706 237.323 282.806C237.802 283.905 238.509 284.891 239.397 285.698C239.977 286.24 240.632 286.695 241.343 287.047C241.934 287.348 242.558 287.577 243.204 287.728C243.861 287.889 244.535 287.969 245.211 287.968H390.901C390.92 287.968 390.969 287.974 391.055 287.974C391.988 287.974 396.856 287.704 401.27 282.391C407.962 274.336 413.517 254.557 401.964 206.06ZM400.189 281.403C395.862 286.655 391.165 286.52 390.938 286.514H245.211C244.044 286.513 242.896 286.227 241.865 285.681C240.834 285.134 239.953 284.344 239.299 283.379C238.724 282.544 238.337 281.594 238.166 280.595C237.996 279.596 238.045 278.572 238.311 277.594C238.38 277.309 238.471 277.03 238.581 276.759C240.748 271.195 242.354 265.428 243.375 259.545C246.838 240.68 247.482 211.569 239.342 167.306C225.603 92.5455 237.752 65.7358 243.609 57.6806C244.273 56.7739 245.142 56.036 246.144 55.5265C247.147 55.0171 248.255 54.7505 249.38 54.7481H397.353C398.457 54.7474 399.546 55.003 400.534 55.495C401.523 55.9869 402.383 56.7016 403.047 57.5827C403.712 58.4639 404.162 59.4872 404.363 60.5721C404.564 61.657 404.509 62.7737 404.204 63.834C397.998 85.2756 385.223 142.091 400.546 206.398C411.94 254.219 406.642 273.581 400.189 281.403Z" fill="#3F3D56"/>
<path d="M331.666 122.944H255.428C253.879 122.944 252.392 122.329 251.296 121.234C250.201 120.139 249.585 118.653 249.585 117.105C249.585 115.556 250.201 114.07 251.296 112.975C252.392 111.88 253.879 111.265 255.428 111.265H331.666C333.216 111.265 334.702 111.88 335.798 112.975C336.894 114.07 337.51 115.556 337.51 117.105C337.51 118.653 336.894 120.139 335.798 121.234C334.702 122.329 333.216 122.944 331.666 122.944Z" fill="#CCCCCC"/>
<path d="M331.666 148.098H255.428C253.879 148.098 252.392 147.482 251.296 146.387C250.201 145.292 249.585 143.807 249.585 142.258C249.585 140.709 250.201 139.224 251.296 138.129C252.392 137.033 253.879 136.418 255.428 136.418H331.666C333.216 136.418 334.702 137.033 335.798 138.129C336.894 139.224 337.51 140.709 337.51 142.258C337.51 143.807 336.894 145.292 335.798 146.387C334.702 147.482 333.216 148.098 331.666 148.098Z" fill="#CCCCCC"/>
<path d="M337.805 173.864H261.567C260.018 173.864 258.531 173.249 257.435 172.154C256.34 171.059 255.724 169.573 255.724 168.025C255.724 166.476 256.34 164.99 257.435 163.895C258.531 162.8 260.018 162.185 261.567 162.185H337.805C339.355 162.185 340.841 162.8 341.937 163.895C343.033 164.99 343.649 166.476 343.649 168.025C343.649 169.573 343.033 171.059 341.937 172.154C340.841 173.249 339.355 173.864 337.805 173.864Z" fill="#CCCCCC"/>
<path d="M342.102 200.858H265.865C264.315 200.858 262.829 200.243 261.733 199.148C260.637 198.052 260.021 196.567 260.021 195.018C260.021 193.469 260.637 191.984 261.733 190.889C262.829 189.794 264.315 189.179 265.865 189.179H342.102C343.652 189.179 345.138 189.794 346.234 190.889C347.33 191.984 347.946 193.469 347.946 195.018C347.946 196.567 347.33 198.052 346.234 199.148C345.138 200.243 343.652 200.858 342.102 200.858Z" fill="#CCCCCC"/>
<path d="M342.134 77.6011H287.351C286.583 77.6019 285.823 77.4515 285.113 77.1583C284.403 76.8652 283.758 76.4352 283.215 75.8928C282.672 75.3505 282.241 74.7065 281.947 73.9976C281.653 73.2887 281.501 72.5288 281.501 71.7614C281.501 70.994 281.653 70.2342 281.947 69.5253C282.241 68.8164 282.672 68.1723 283.215 67.63C283.758 67.0876 284.403 66.6576 285.113 66.3645C285.823 66.0714 286.583 65.9209 287.351 65.9217H342.134C343.684 65.9217 345.171 66.537 346.266 67.6321C347.362 68.7273 347.978 70.2126 347.978 71.7614C347.978 73.3102 347.362 74.7956 346.266 75.8907C345.171 76.9859 343.684 77.6011 342.134 77.6011Z" fill="#F16161"/>
<path d="M372.331 202.994C376.739 202.994 380.312 199.423 380.312 195.018C380.312 190.614 376.739 187.043 372.331 187.043C367.923 187.043 364.35 190.614 364.35 195.018C364.35 199.423 367.923 202.994 372.331 202.994Z" fill="#CCCCCC"/>
<path d="M345.786 227.238H269.548C267.998 227.238 266.512 226.623 265.416 225.528C264.32 224.433 263.705 222.947 263.705 221.398C263.705 219.85 264.32 218.364 265.416 217.269C266.512 216.174 267.998 215.559 269.548 215.559H345.786C347.335 215.559 348.822 216.174 349.918 217.269C351.014 218.364 351.629 219.85 351.629 221.398C351.629 222.947 351.014 224.433 349.918 225.528C348.822 226.623 347.335 227.238 345.786 227.238Z" fill="#CCCCCC"/>
<path d="M376.014 229.374C380.422 229.374 383.995 225.803 383.995 221.398C383.995 216.994 380.422 213.423 376.014 213.423C371.607 213.423 368.034 216.994 368.034 221.398C368.034 225.803 371.607 229.374 376.014 229.374Z" fill="#CCCCCC"/>
</g>
<defs>
<clipPath id="clip0">
<rect width="521" height="288" fill="white"/>
</clipPath>
</defs>
</svg>
