<svg width="414" height="678" viewBox="0 0 414 678" fill="none" xmlns="http://www.w3.org/2000/svg">
<circle cx="10" cy="10" r="10" fill="#4870FF"/>
<circle cx="10" cy="10" r="9" stroke="#5586FF" stroke-opacity="0.5" stroke-width="2"/>
<circle cx="42" cy="10" r="10" fill="#4870FF"/>
<circle cx="42" cy="10" r="9" stroke="#5586FF" stroke-opacity="0.5" stroke-width="2"/>
<circle cx="74" cy="10" r="10" fill="#4870FF"/>
<circle cx="74" cy="10" r="9" stroke="#5586FF" stroke-opacity="0.5" stroke-width="2"/>
<circle cx="106" cy="10" r="10" fill="#4870FF"/>
<circle cx="106" cy="10" r="9" stroke="#5586FF" stroke-opacity="0.5" stroke-width="2"/>
<circle cx="10" cy="42" r="10" fill="#4870FF"/>
<circle cx="10" cy="42" r="9" stroke="#5586FF" stroke-opacity="0.5" stroke-width="2"/>
<circle cx="42" cy="42" r="10" fill="#4870FF"/>
<circle cx="42" cy="42" r="9" stroke="#5586FF" stroke-opacity="0.5" stroke-width="2"/>
<circle cx="74" cy="42" r="10" fill="#4870FF"/>
<circle cx="74" cy="42" r="9" stroke="#5586FF" stroke-opacity="0.5" stroke-width="2"/>
<circle cx="106" cy="42" r="10" fill="#4870FF"/>
<circle cx="106" cy="42" r="9" stroke="#5586FF" stroke-opacity="0.5" stroke-width="2"/>
<circle cx="10" cy="74" r="10" fill="#4870FF"/>
<circle cx="10" cy="74" r="9" stroke="#5586FF" stroke-opacity="0.5" stroke-width="2"/>
<circle cx="42" cy="74" r="10" fill="#4870FF"/>
<circle cx="42" cy="74" r="9" stroke="#5586FF" stroke-opacity="0.5" stroke-width="2"/>
<circle cx="74" cy="74" r="10" fill="#4870FF"/>
<circle cx="74" cy="74" r="9" stroke="#5586FF" stroke-opacity="0.5" stroke-width="2"/>
<circle cx="106" cy="74" r="10" fill="#4870FF"/>
<circle cx="106" cy="74" r="9" stroke="#5586FF" stroke-opacity="0.5" stroke-width="2"/>
<circle cx="10" cy="106" r="10" fill="#4870FF"/>
<circle cx="10" cy="106" r="9" stroke="#5586FF" stroke-opacity="0.5" stroke-width="2"/>
<circle cx="42" cy="106" r="10" fill="#4870FF"/>
<circle cx="42" cy="106" r="9" stroke="#5586FF" stroke-opacity="0.5" stroke-width="2"/>
<circle cx="74" cy="106" r="10" fill="#4870FF"/>
<circle cx="74" cy="106" r="9" stroke="#5586FF" stroke-opacity="0.5" stroke-width="2"/>
<circle cx="106" cy="106" r="10" fill="#4870FF"/>
<circle cx="106" cy="106" r="9" stroke="#5586FF" stroke-opacity="0.5" stroke-width="2"/>
<rect x="118.5" y="137.5" width="293" height="538" rx="47.5" stroke="#5586FF" stroke-opacity="0.5" stroke-width="5"/>
</svg>
