<svg width="414" height="678" viewBox="0 0 414 678" fill="none" xmlns="http://www.w3.org/2000/svg">
<circle cx="10" cy="10" r="10" fill="#4870FF"/>
<circle cx="10" cy="10" r="9" stroke="#5586FF" stroke-opacity="0.5" stroke-width="2"/>
<circle cx="42" cy="10" r="10" fill="#4870FF"/>
<circle cx="42" cy="10" r="9" stroke="#5586FF" stroke-opacity="0.5" stroke-width="2"/>
<circle cx="74" cy="10" r="10" fill="#4870FF"/>
<circle cx="74" cy="10" r="9" stroke="#5586FF" stroke-opacity="0.5" stroke-width="2"/>
<circle cx="106" cy="10" r="10" fill="#4870FF"/>
<circle cx="106" cy="10" r="9" stroke="#5586FF" stroke-opacity="0.5" stroke-width="2"/>
<circle cx="10" cy="42" r="10" fill="#4870FF"/>
<circle cx="10" cy="42" r="9" stroke="#5586FF" stroke-opacity="0.5" stroke-width="2"/>
<circle cx="42" cy="42" r="10" fill="#4870FF"/>
<circle cx="42" cy="42" r="9" stroke="#5586FF" stroke-opacity="0.5" stroke-width="2"/>
<circle cx="74" cy="42" r="10" fill="#4870FF"/>
<circle cx="74" cy="42" r="9" stroke="#5586FF" stroke-opacity="0.5" stroke-width="2"/>
<circle cx="106" cy="42" r="10" fill="#4870FF"/>
<circle cx="106" cy="42" r="9" stroke="#5586FF" stroke-opacity="0.5" stroke-width="2"/>
<circle cx="10" cy="74" r="10" fill="#4870FF"/>
<circle cx="10" cy="74" r="9" stroke="#5586FF" stroke-opacity="0.5" stroke-width="2"/>
<circle cx="42" cy="74" r="10" fill="#4870FF"/>
<circle cx="42" cy="74" r="9" stroke="#5586FF" stroke-opacity="0.5" stroke-width="2"/>
<circle cx="74" cy="74" r="10" fill="#4870FF"/>
<circle cx="74" cy="74" r="9" stroke="#5586FF" stroke-opacity="0.5" stroke-width="2"/>
<circle cx="106" cy="74" r="10" fill="#4870FF"/>
<circle cx="106" cy="74" r="9" stroke="#5586FF" stroke-opacity="0.5" stroke-width="2"/>
<circle cx="10" cy="106" r="10" fill="#4870FF"/>
<circle cx="10" cy="106" r="9" stroke="#5586FF" stroke-opacity="0.5" stroke-width="2"/>
<circle cx="42" cy="106" r="10" fill="#4870FF"/>
<circle cx="42" cy="106" r="9" stroke="#5586FF" stroke-opacity="0.5" stroke-width="2"/>
<circle cx="74" cy="106" r="10" fill="#4870FF"/>
<circle cx="74" cy="106" r="9" stroke="#5586FF" stroke-opacity="0.5" stroke-width="2"/>
<circle cx="106" cy="106" r="10" fill="#4870FF"/>
<circle cx="106" cy="106" r="9" stroke="#5586FF" stroke-opacity="0.5" stroke-width="2"/>
<rect x="118.5" y="137.5" width="293" height="538" rx="47.5" stroke="#5586FF" stroke-opacity="0.5" stroke-width="5"/>
<rect x="57" y="494" width="293" height="47" fill="#FC3A3A" stroke="black"/>
<path fill-rule="evenodd" clip-rule="evenodd" d="M200.413 505.74C201.698 504.753 203.474 504.753 204.759 505.74L213.038 512.093C214.382 513.125 215.172 514.733 215.172 516.44V526.362C215.172 528.371 213.562 530 211.576 530H207.98C205.994 530 204.384 528.371 204.384 526.362V519.996H200.788V526.362C200.788 528.371 199.178 530 197.192 530H193.596C191.61 530 190 528.371 190 526.362V516.44C190 514.733 190.79 513.125 192.134 512.093L200.413 505.74ZM210.865 514.991L202.586 508.638L194.307 514.991C193.859 515.335 193.596 515.871 193.596 516.44V526.362H197.192V519.996C197.192 517.987 198.802 516.358 200.788 516.358H204.384C206.37 516.358 207.98 517.987 207.98 519.996V526.362L211.576 526.362V516.44C211.576 515.871 211.313 515.335 210.865 514.991Z" fill="white"/>
<rect x="57" y="270" width="293" height="31" fill="#B39D9D" stroke="black"/>
<rect x="57" y="270" width="293" height="31" fill="#B39D9D" stroke="black"/>
<path d="M77.324 285.376C77.948 285.688 78.422 286.096 78.746 286.6C79.082 287.104 79.25 287.686 79.25 288.346C79.25 289.126 79.028 289.81 78.584 290.398C78.14 290.974 77.516 291.424 76.712 291.748C75.908 292.06 74.978 292.216 73.922 292.216C72.866 292.216 71.936 292.06 71.132 291.748C70.34 291.424 69.722 290.974 69.278 290.398C68.846 289.81 68.63 289.126 68.63 288.346C68.63 287.686 68.792 287.104 69.116 286.6C69.452 286.096 69.926 285.688 70.538 285.376C70.07 285.088 69.71 284.728 69.458 284.296C69.206 283.852 69.08 283.348 69.08 282.784C69.08 282.052 69.284 281.416 69.692 280.876C70.1 280.336 70.67 279.922 71.402 279.634C72.134 279.334 72.974 279.184 73.922 279.184C74.882 279.184 75.728 279.334 76.46 279.634C77.204 279.922 77.78 280.336 78.188 280.876C78.596 281.416 78.8 282.052 78.8 282.784C78.8 283.348 78.674 283.852 78.422 284.296C78.17 284.728 77.804 285.088 77.324 285.376ZM73.922 281.326C73.334 281.326 72.86 281.47 72.5 281.758C72.152 282.034 71.978 282.418 71.978 282.91C71.978 283.39 72.152 283.768 72.5 284.044C72.848 284.32 73.322 284.458 73.922 284.458C74.522 284.458 75.002 284.32 75.362 284.044C75.722 283.768 75.902 283.39 75.902 282.91C75.902 282.418 75.722 282.034 75.362 281.758C75.002 281.47 74.522 281.326 73.922 281.326ZM73.922 290.074C74.654 290.074 75.23 289.912 75.65 289.588C76.082 289.252 76.298 288.808 76.298 288.256C76.298 287.704 76.082 287.266 75.65 286.942C75.23 286.618 74.654 286.456 73.922 286.456C73.202 286.456 72.632 286.618 72.212 286.942C71.792 287.266 71.582 287.704 71.582 288.256C71.582 288.82 71.792 289.264 72.212 289.588C72.632 289.912 73.202 290.074 73.922 290.074ZM82.2408 285.682C81.7488 285.682 81.3348 285.514 80.9988 285.178C80.6628 284.842 80.4948 284.422 80.4948 283.918C80.4948 283.402 80.6628 282.988 80.9988 282.676C81.3348 282.352 81.7488 282.19 82.2408 282.19C82.7328 282.19 83.1468 282.352 83.4828 282.676C83.8188 282.988 83.9868 283.402 83.9868 283.918C83.9868 284.422 83.8188 284.842 83.4828 285.178C83.1468 285.514 82.7328 285.682 82.2408 285.682ZM82.2408 292.144C81.7488 292.144 81.3348 291.976 80.9988 291.64C80.6628 291.304 80.4948 290.884 80.4948 290.38C80.4948 289.864 80.6628 289.45 80.9988 289.138C81.3348 288.814 81.7488 288.652 82.2408 288.652C82.7328 288.652 83.1468 288.814 83.4828 289.138C83.8188 289.45 83.9868 289.864 83.9868 290.38C83.9868 290.884 83.8188 291.304 83.4828 291.64C83.1468 291.976 82.7328 292.144 82.2408 292.144ZM90.6958 292.216C89.6518 292.216 88.7218 291.958 87.9058 291.442C87.0898 290.926 86.4478 290.182 85.9798 289.21C85.5238 288.226 85.2958 287.056 85.2958 285.7C85.2958 284.344 85.5238 283.18 85.9798 282.208C86.4478 281.224 87.0898 280.474 87.9058 279.958C88.7218 279.442 89.6518 279.184 90.6958 279.184C91.7398 279.184 92.6698 279.442 93.4858 279.958C94.3018 280.474 94.9378 281.224 95.3938 282.208C95.8618 283.18 96.0958 284.344 96.0958 285.7C96.0958 287.056 95.8618 288.226 95.3938 289.21C94.9378 290.182 94.3018 290.926 93.4858 291.442C92.6698 291.958 91.7398 292.216 90.6958 292.216ZM90.6958 289.75C91.4638 289.75 92.0638 289.42 92.4958 288.76C92.9398 288.1 93.1618 287.08 93.1618 285.7C93.1618 284.32 92.9398 283.3 92.4958 282.64C92.0638 281.98 91.4638 281.65 90.6958 281.65C89.9398 281.65 89.3398 281.98 88.8958 282.64C88.4638 283.3 88.2478 284.32 88.2478 285.7C88.2478 287.08 88.4638 288.1 88.8958 288.76C89.3398 289.42 89.9398 289.75 90.6958 289.75ZM102.913 292.216C101.869 292.216 100.939 291.958 100.123 291.442C99.3065 290.926 98.6645 290.182 98.1965 289.21C97.7405 288.226 97.5125 287.056 97.5125 285.7C97.5125 284.344 97.7405 283.18 98.1965 282.208C98.6645 281.224 99.3065 280.474 100.123 279.958C100.939 279.442 101.869 279.184 102.913 279.184C103.957 279.184 104.887 279.442 105.703 279.958C106.519 280.474 107.155 281.224 107.611 282.208C108.079 283.18 108.313 284.344 108.313 285.7C108.313 287.056 108.079 288.226 107.611 289.21C107.155 290.182 106.519 290.926 105.703 291.442C104.887 291.958 103.957 292.216 102.913 292.216ZM102.913 289.75C103.681 289.75 104.281 289.42 104.713 288.76C105.157 288.1 105.379 287.08 105.379 285.7C105.379 284.32 105.157 283.3 104.713 282.64C104.281 281.98 103.681 281.65 102.913 281.65C102.157 281.65 101.557 281.98 101.113 282.64C100.681 283.3 100.465 284.32 100.465 285.7C100.465 287.08 100.681 288.1 101.113 288.76C101.557 289.42 102.157 289.75 102.913 289.75Z" fill="#070707"/>
<rect x="326" y="277" width="3" height="17" fill="black"/>
<rect x="319" y="287" width="3" height="17" transform="rotate(-90 319 287)" fill="black"/>
<rect x="57" y="301" width="293" height="31" fill="#B39D9D" stroke="black"/>
<path d="M73.13 310.184C74.894 310.184 76.274 310.724 77.27 311.804C78.266 312.872 78.764 314.414 78.764 316.43C78.764 317.858 78.494 319.082 77.954 320.102C77.426 321.122 76.676 321.896 75.704 322.424C74.732 322.952 73.61 323.216 72.338 323.216C71.666 323.216 71.024 323.144 70.412 323C69.8 322.844 69.278 322.628 68.846 322.352L69.926 320.21C70.538 320.63 71.324 320.84 72.284 320.84C73.352 320.84 74.198 320.528 74.822 319.904C75.446 319.268 75.782 318.356 75.83 317.168C75.074 317.924 74.03 318.302 72.698 318.302C71.894 318.302 71.162 318.14 70.502 317.816C69.842 317.492 69.32 317.036 68.936 316.448C68.552 315.848 68.36 315.158 68.36 314.378C68.36 313.538 68.57 312.8 68.99 312.164C69.41 311.528 69.98 311.042 70.7 310.706C71.432 310.358 72.242 310.184 73.13 310.184ZM73.346 316.124C73.982 316.124 74.498 315.95 74.894 315.602C75.302 315.242 75.506 314.786 75.506 314.234C75.506 313.682 75.308 313.232 74.912 312.884C74.528 312.536 73.994 312.362 73.31 312.362C72.686 312.362 72.176 312.53 71.78 312.866C71.396 313.202 71.204 313.658 71.204 314.234C71.204 314.81 71.396 315.272 71.78 315.62C72.176 315.956 72.698 316.124 73.346 316.124ZM81.8189 316.682C81.3269 316.682 80.9129 316.514 80.5769 316.178C80.2409 315.842 80.0729 315.422 80.0729 314.918C80.0729 314.402 80.2409 313.988 80.5769 313.676C80.9129 313.352 81.3269 313.19 81.8189 313.19C82.3109 313.19 82.7249 313.352 83.0609 313.676C83.3969 313.988 83.5649 314.402 83.5649 314.918C83.5649 315.422 83.3969 315.842 83.0609 316.178C82.7249 316.514 82.3109 316.682 81.8189 316.682ZM81.8189 323.144C81.3269 323.144 80.9129 322.976 80.5769 322.64C80.2409 322.304 80.0729 321.884 80.0729 321.38C80.0729 320.864 80.2409 320.45 80.5769 320.138C80.9129 319.814 81.3269 319.652 81.8189 319.652C82.3109 319.652 82.7249 319.814 83.0609 320.138C83.3969 320.45 83.5649 320.864 83.5649 321.38C83.5649 321.884 83.3969 322.304 83.0609 322.64C82.7249 322.976 82.3109 323.144 81.8189 323.144ZM90.2739 323.216C89.2299 323.216 88.2999 322.958 87.4839 322.442C86.6679 321.926 86.0259 321.182 85.5579 320.21C85.1019 319.226 84.8739 318.056 84.8739 316.7C84.8739 315.344 85.1019 314.18 85.5579 313.208C86.0259 312.224 86.6679 311.474 87.4839 310.958C88.2999 310.442 89.2299 310.184 90.2739 310.184C91.3179 310.184 92.2479 310.442 93.0639 310.958C93.8799 311.474 94.5159 312.224 94.9719 313.208C95.4399 314.18 95.6739 315.344 95.6739 316.7C95.6739 318.056 95.4399 319.226 94.9719 320.21C94.5159 321.182 93.8799 321.926 93.0639 322.442C92.2479 322.958 91.3179 323.216 90.2739 323.216ZM90.2739 320.75C91.0419 320.75 91.6419 320.42 92.0739 319.76C92.5179 319.1 92.7399 318.08 92.7399 316.7C92.7399 315.32 92.5179 314.3 92.0739 313.64C91.6419 312.98 91.0419 312.65 90.2739 312.65C89.5179 312.65 88.9179 312.98 88.4739 313.64C88.0419 314.3 87.8259 315.32 87.8259 316.7C87.8259 318.08 88.0419 319.1 88.4739 319.76C88.9179 320.42 89.5179 320.75 90.2739 320.75ZM102.491 323.216C101.447 323.216 100.517 322.958 99.7007 322.442C98.8847 321.926 98.2427 321.182 97.7747 320.21C97.3187 319.226 97.0907 318.056 97.0907 316.7C97.0907 315.344 97.3187 314.18 97.7747 313.208C98.2427 312.224 98.8847 311.474 99.7007 310.958C100.517 310.442 101.447 310.184 102.491 310.184C103.535 310.184 104.465 310.442 105.281 310.958C106.097 311.474 106.733 312.224 107.189 313.208C107.657 314.18 107.891 315.344 107.891 316.7C107.891 318.056 107.657 319.226 107.189 320.21C106.733 321.182 106.097 321.926 105.281 322.442C104.465 322.958 103.535 323.216 102.491 323.216ZM102.491 320.75C103.259 320.75 103.859 320.42 104.291 319.76C104.735 319.1 104.957 318.08 104.957 316.7C104.957 315.32 104.735 314.3 104.291 313.64C103.859 312.98 103.259 312.65 102.491 312.65C101.735 312.65 101.135 312.98 100.691 313.64C100.259 314.3 100.043 315.32 100.043 316.7C100.043 318.08 100.259 319.1 100.691 319.76C101.135 320.42 101.735 320.75 102.491 320.75Z" fill="#070707"/>
<rect x="326" y="308" width="3" height="17" fill="black"/>
<rect x="319" y="318" width="3" height="17" transform="rotate(-90 319 318)" fill="black"/>
<rect x="57" y="463" width="293" height="31" fill="#F1ECB9" stroke="black"/>
<path d="M73.562 472.4V485H70.646V474.74H68.126V472.4H73.562ZM77.4068 478.682C76.9148 478.682 76.5008 478.514 76.1648 478.178C75.8288 477.842 75.6608 477.422 75.6608 476.918C75.6608 476.402 75.8288 475.988 76.1648 475.676C76.5008 475.352 76.9148 475.19 77.4068 475.19C77.8988 475.19 78.3128 475.352 78.6488 475.676C78.9848 475.988 79.1528 476.402 79.1528 476.918C79.1528 477.422 78.9848 477.842 78.6488 478.178C78.3128 478.514 77.8988 478.682 77.4068 478.682ZM77.4068 485.144C76.9148 485.144 76.5008 484.976 76.1648 484.64C75.8288 484.304 75.6608 483.884 75.6608 483.38C75.6608 482.864 75.8288 482.45 76.1648 482.138C76.5008 481.814 76.9148 481.652 77.4068 481.652C77.8988 481.652 78.3128 481.814 78.6488 482.138C78.9848 482.45 79.1528 482.864 79.1528 483.38C79.1528 483.884 78.9848 484.304 78.6488 484.64C78.3128 484.976 77.8988 485.144 77.4068 485.144ZM85.8618 485.216C84.8178 485.216 83.8878 484.958 83.0718 484.442C82.2558 483.926 81.6138 483.182 81.1458 482.21C80.6898 481.226 80.4618 480.056 80.4618 478.7C80.4618 477.344 80.6898 476.18 81.1458 475.208C81.6138 474.224 82.2558 473.474 83.0718 472.958C83.8878 472.442 84.8178 472.184 85.8618 472.184C86.9058 472.184 87.8358 472.442 88.6518 472.958C89.4678 473.474 90.1038 474.224 90.5598 475.208C91.0278 476.18 91.2618 477.344 91.2618 478.7C91.2618 480.056 91.0278 481.226 90.5598 482.21C90.1038 483.182 89.4678 483.926 88.6518 484.442C87.8358 484.958 86.9058 485.216 85.8618 485.216ZM85.8618 482.75C86.6298 482.75 87.2298 482.42 87.6618 481.76C88.1058 481.1 88.3278 480.08 88.3278 478.7C88.3278 477.32 88.1058 476.3 87.6618 475.64C87.2298 474.98 86.6298 474.65 85.8618 474.65C85.1058 474.65 84.5058 474.98 84.0618 475.64C83.6298 476.3 83.4138 477.32 83.4138 478.7C83.4138 480.08 83.6298 481.1 84.0618 481.76C84.5058 482.42 85.1058 482.75 85.8618 482.75ZM98.0786 485.216C97.0346 485.216 96.1046 484.958 95.2886 484.442C94.4726 483.926 93.8306 483.182 93.3626 482.21C92.9066 481.226 92.6786 480.056 92.6786 478.7C92.6786 477.344 92.9066 476.18 93.3626 475.208C93.8306 474.224 94.4726 473.474 95.2886 472.958C96.1046 472.442 97.0346 472.184 98.0786 472.184C99.1226 472.184 100.053 472.442 100.869 472.958C101.685 473.474 102.321 474.224 102.777 475.208C103.245 476.18 103.479 477.344 103.479 478.7C103.479 480.056 103.245 481.226 102.777 482.21C102.321 483.182 101.685 483.926 100.869 484.442C100.053 484.958 99.1226 485.216 98.0786 485.216ZM98.0786 482.75C98.8466 482.75 99.4466 482.42 99.8786 481.76C100.323 481.1 100.545 480.08 100.545 478.7C100.545 477.32 100.323 476.3 99.8786 475.64C99.4466 474.98 98.8466 474.65 98.0786 474.65C97.3226 474.65 96.7226 474.98 96.2786 475.64C95.8466 476.3 95.6306 477.32 95.6306 478.7C95.6306 480.08 95.8466 481.1 96.2786 481.76C96.7226 482.42 97.3226 482.75 98.0786 482.75Z" fill="#070707"/>
<rect x="319.95" y="474.071" width="3" height="17" transform="rotate(-45 319.95 474.071)" fill="black"/>
<rect x="322.071" y="486.092" width="3" height="17" transform="rotate(-135 322.071 486.092)" fill="black"/>
<path d="M154.494 473.4H157.41V483.624H163.728V486H154.494V473.4ZM174.845 476.316V486H172.181V484.848C171.809 485.268 171.365 485.592 170.849 485.82C170.333 486.036 169.775 486.144 169.175 486.144C167.903 486.144 166.895 485.778 166.151 485.046C165.407 484.314 165.035 483.228 165.035 481.788V476.316H167.843V481.374C167.843 482.934 168.497 483.714 169.805 483.714C170.477 483.714 171.017 483.498 171.425 483.066C171.833 482.622 172.037 481.968 172.037 481.104V476.316H174.845ZM183.332 476.172C184.532 476.172 185.498 476.532 186.23 477.252C186.974 477.972 187.346 479.04 187.346 480.456V486H184.538V480.888C184.538 480.12 184.37 479.55 184.034 479.178C183.698 478.794 183.212 478.602 182.576 478.602C181.868 478.602 181.304 478.824 180.884 479.268C180.464 479.7 180.254 480.348 180.254 481.212V486H177.446V476.316H180.128V477.45C180.5 477.042 180.962 476.73 181.514 476.514C182.066 476.286 182.672 476.172 183.332 476.172ZM194.677 486.144C193.645 486.144 192.715 485.934 191.887 485.514C191.071 485.082 190.429 484.488 189.961 483.732C189.505 482.976 189.277 482.118 189.277 481.158C189.277 480.198 189.505 479.34 189.961 478.584C190.429 477.828 191.071 477.24 191.887 476.82C192.715 476.388 193.645 476.172 194.677 476.172C195.697 476.172 196.585 476.388 197.341 476.82C198.109 477.24 198.667 477.846 199.015 478.638L196.837 479.808C196.333 478.92 195.607 478.476 194.659 478.476C193.927 478.476 193.321 478.716 192.841 479.196C192.361 479.676 192.121 480.33 192.121 481.158C192.121 481.986 192.361 482.64 192.841 483.12C193.321 483.6 193.927 483.84 194.659 483.84C195.619 483.84 196.345 483.396 196.837 482.508L199.015 483.696C198.667 484.464 198.109 485.064 197.341 485.496C196.585 485.928 195.697 486.144 194.677 486.144ZM206.448 476.172C207.648 476.172 208.614 476.532 209.346 477.252C210.09 477.972 210.462 479.04 210.462 480.456V486H207.654V480.888C207.654 480.12 207.486 479.55 207.15 479.178C206.814 478.794 206.328 478.602 205.692 478.602C204.984 478.602 204.42 478.824 204 479.268C203.58 479.7 203.37 480.348 203.37 481.212V486H200.562V472.644H203.37V477.324C203.742 476.952 204.192 476.67 204.72 476.478C205.248 476.274 205.824 476.172 206.448 476.172Z" fill="#101010"/>
<rect x="57" y="139" width="293" height="131" fill="#4870FF" stroke="black"/>
<path d="M173.538 155.4L169.416 168H166.284L163.512 159.468L160.65 168H157.536L153.396 155.4H156.42L159.264 164.256L162.234 155.4H164.934L167.814 164.328L170.748 155.4H173.538ZM178.855 168.144C177.835 168.144 176.917 167.934 176.101 167.514C175.297 167.082 174.667 166.488 174.211 165.732C173.755 164.976 173.527 164.118 173.527 163.158C173.527 162.198 173.755 161.34 174.211 160.584C174.667 159.828 175.297 159.24 176.101 158.82C176.917 158.388 177.835 158.172 178.855 158.172C179.875 158.172 180.787 158.388 181.591 158.82C182.395 159.24 183.025 159.828 183.481 160.584C183.937 161.34 184.165 162.198 184.165 163.158C184.165 164.118 183.937 164.976 183.481 165.732C183.025 166.488 182.395 167.082 181.591 167.514C180.787 167.934 179.875 168.144 178.855 168.144ZM178.855 165.84C179.575 165.84 180.163 165.6 180.619 165.12C181.087 164.628 181.321 163.974 181.321 163.158C181.321 162.342 181.087 161.694 180.619 161.214C180.163 160.722 179.575 160.476 178.855 160.476C178.135 160.476 177.541 160.722 177.073 161.214C176.605 161.694 176.371 162.342 176.371 163.158C176.371 163.974 176.605 164.628 177.073 165.12C177.541 165.6 178.135 165.84 178.855 165.84ZM188.724 159.594C189.06 159.126 189.51 158.772 190.074 158.532C190.65 158.292 191.31 158.172 192.054 158.172V160.764C191.742 160.74 191.532 160.728 191.424 160.728C190.62 160.728 189.99 160.956 189.534 161.412C189.078 161.856 188.85 162.528 188.85 163.428V168H186.042V158.316H188.724V159.594ZM197.882 164.202L196.532 165.534V168H193.724V154.644H196.532V162.204L200.636 158.316H203.984L199.952 162.42L204.344 168H200.942L197.882 164.202ZM209.793 168.144C208.773 168.144 207.855 167.934 207.039 167.514C206.235 167.082 205.605 166.488 205.149 165.732C204.693 164.976 204.465 164.118 204.465 163.158C204.465 162.198 204.693 161.34 205.149 160.584C205.605 159.828 206.235 159.24 207.039 158.82C207.855 158.388 208.773 158.172 209.793 158.172C210.813 158.172 211.725 158.388 212.529 158.82C213.333 159.24 213.963 159.828 214.419 160.584C214.875 161.34 215.103 162.198 215.103 163.158C215.103 164.118 214.875 164.976 214.419 165.732C213.963 166.488 213.333 167.082 212.529 167.514C211.725 167.934 210.813 168.144 209.793 168.144ZM209.793 165.84C210.513 165.84 211.101 165.6 211.557 165.12C212.025 164.628 212.259 163.974 212.259 163.158C212.259 162.342 212.025 161.694 211.557 161.214C211.101 160.722 210.513 160.476 209.793 160.476C209.073 160.476 208.479 160.722 208.011 161.214C207.543 161.694 207.309 162.342 207.309 163.158C207.309 163.974 207.543 164.628 208.011 165.12C208.479 165.6 209.073 165.84 209.793 165.84ZM226.736 158.316V168H224.072V166.848C223.7 167.268 223.256 167.592 222.74 167.82C222.224 168.036 221.666 168.144 221.066 168.144C219.794 168.144 218.786 167.778 218.042 167.046C217.298 166.314 216.926 165.228 216.926 163.788V158.316H219.734V163.374C219.734 164.934 220.388 165.714 221.696 165.714C222.368 165.714 222.908 165.498 223.316 165.066C223.724 164.622 223.928 163.968 223.928 163.104V158.316H226.736ZM235.583 167.532C235.307 167.736 234.965 167.892 234.557 168C234.161 168.096 233.741 168.144 233.297 168.144C232.145 168.144 231.251 167.85 230.615 167.262C229.991 166.674 229.679 165.81 229.679 164.67V160.692H228.185V158.532H229.679V156.174H232.487V158.532H234.899V160.692H232.487V164.634C232.487 165.042 232.589 165.36 232.793 165.588C233.009 165.804 233.309 165.912 233.693 165.912C234.137 165.912 234.515 165.792 234.827 165.552L235.583 167.532Z" fill="#101010"/>
<path d="M74.768 161.098C75.572 161.098 76.304 161.26 76.964 161.584C77.624 161.908 78.146 162.37 78.53 162.97C78.914 163.558 79.106 164.242 79.106 165.022C79.106 165.862 78.896 166.6 78.476 167.236C78.056 167.872 77.48 168.364 76.748 168.712C76.028 169.048 75.224 169.216 74.336 169.216C72.572 169.216 71.192 168.676 70.196 167.596C69.2 166.516 68.702 164.974 68.702 162.97C68.702 161.542 68.972 160.318 69.512 159.298C70.052 158.278 70.802 157.504 71.762 156.976C72.734 156.448 73.856 156.184 75.128 156.184C75.8 156.184 76.442 156.262 77.054 156.418C77.678 156.562 78.206 156.772 78.638 157.048L77.558 159.19C76.934 158.77 76.148 158.56 75.2 158.56C74.132 158.56 73.286 158.872 72.662 159.496C72.038 160.12 71.702 161.026 71.654 162.214C72.398 161.47 73.436 161.098 74.768 161.098ZM74.174 167.038C74.798 167.038 75.302 166.87 75.686 166.534C76.082 166.198 76.28 165.742 76.28 165.166C76.28 164.59 76.082 164.134 75.686 163.798C75.302 163.45 74.786 163.276 74.138 163.276C73.502 163.276 72.98 163.456 72.572 163.816C72.164 164.164 71.96 164.614 71.96 165.166C71.96 165.718 72.158 166.168 72.554 166.516C72.95 166.864 73.49 167.038 74.174 167.038ZM81.8189 162.682C81.3269 162.682 80.9129 162.514 80.5769 162.178C80.2409 161.842 80.0729 161.422 80.0729 160.918C80.0729 160.402 80.2409 159.988 80.5769 159.676C80.9129 159.352 81.3269 159.19 81.8189 159.19C82.3109 159.19 82.7249 159.352 83.0609 159.676C83.3969 159.988 83.5649 160.402 83.5649 160.918C83.5649 161.422 83.3969 161.842 83.0609 162.178C82.7249 162.514 82.3109 162.682 81.8189 162.682ZM81.8189 169.144C81.3269 169.144 80.9129 168.976 80.5769 168.64C80.2409 168.304 80.0729 167.884 80.0729 167.38C80.0729 166.864 80.2409 166.45 80.5769 166.138C80.9129 165.814 81.3269 165.652 81.8189 165.652C82.3109 165.652 82.7249 165.814 83.0609 166.138C83.3969 166.45 83.5649 166.864 83.5649 167.38C83.5649 167.884 83.3969 168.304 83.0609 168.64C82.7249 168.976 82.3109 169.144 81.8189 169.144ZM90.2739 169.216C89.2299 169.216 88.2999 168.958 87.4839 168.442C86.6679 167.926 86.0259 167.182 85.5579 166.21C85.1019 165.226 84.8739 164.056 84.8739 162.7C84.8739 161.344 85.1019 160.18 85.5579 159.208C86.0259 158.224 86.6679 157.474 87.4839 156.958C88.2999 156.442 89.2299 156.184 90.2739 156.184C91.3179 156.184 92.2479 156.442 93.0639 156.958C93.8799 157.474 94.5159 158.224 94.9719 159.208C95.4399 160.18 95.6739 161.344 95.6739 162.7C95.6739 164.056 95.4399 165.226 94.9719 166.21C94.5159 167.182 93.8799 167.926 93.0639 168.442C92.2479 168.958 91.3179 169.216 90.2739 169.216ZM90.2739 166.75C91.0419 166.75 91.6419 166.42 92.0739 165.76C92.5179 165.1 92.7399 164.08 92.7399 162.7C92.7399 161.32 92.5179 160.3 92.0739 159.64C91.6419 158.98 91.0419 158.65 90.2739 158.65C89.5179 158.65 88.9179 158.98 88.4739 159.64C88.0419 160.3 87.8259 161.32 87.8259 162.7C87.8259 164.08 88.0419 165.1 88.4739 165.76C88.9179 166.42 89.5179 166.75 90.2739 166.75ZM102.491 169.216C101.447 169.216 100.517 168.958 99.7007 168.442C98.8847 167.926 98.2427 167.182 97.7747 166.21C97.3187 165.226 97.0907 164.056 97.0907 162.7C97.0907 161.344 97.3187 160.18 97.7747 159.208C98.2427 158.224 98.8847 157.474 99.7007 156.958C100.517 156.442 101.447 156.184 102.491 156.184C103.535 156.184 104.465 156.442 105.281 156.958C106.097 157.474 106.733 158.224 107.189 159.208C107.657 160.18 107.891 161.344 107.891 162.7C107.891 164.056 107.657 165.226 107.189 166.21C106.733 167.182 106.097 167.926 105.281 168.442C104.465 168.958 103.535 169.216 102.491 169.216ZM102.491 166.75C103.259 166.75 103.859 166.42 104.291 165.76C104.735 165.1 104.957 164.08 104.957 162.7C104.957 161.32 104.735 160.3 104.291 159.64C103.859 158.98 103.259 158.65 102.491 158.65C101.735 158.65 101.135 158.98 100.691 159.64C100.259 160.3 100.043 161.32 100.043 162.7C100.043 164.08 100.259 165.1 100.691 165.76C101.135 166.42 101.735 166.75 102.491 166.75Z" fill="#060606"/>
<rect x="320" y="157.121" width="3" height="17" transform="rotate(-45 320 157.121)" fill="black"/>
<rect x="322.121" y="169.142" width="3" height="17" transform="rotate(-135 322.121 169.142)" fill="black"/>
<path d="M78.566 248.4V250.29L73.886 261H70.718L75.236 250.776H71.06V252.828H68.468V248.4H78.566ZM81.1685 254.682C80.6765 254.682 80.2625 254.514 79.9265 254.178C79.5905 253.842 79.4225 253.422 79.4225 252.918C79.4225 252.402 79.5905 251.988 79.9265 251.676C80.2625 251.352 80.6765 251.19 81.1685 251.19C81.6605 251.19 82.0745 251.352 82.4105 251.676C82.7465 251.988 82.9145 252.402 82.9145 252.918C82.9145 253.422 82.7465 253.842 82.4105 254.178C82.0745 254.514 81.6605 254.682 81.1685 254.682ZM81.1685 261.144C80.6765 261.144 80.2625 260.976 79.9265 260.64C79.5905 260.304 79.4225 259.884 79.4225 259.38C79.4225 258.864 79.5905 258.45 79.9265 258.138C80.2625 257.814 80.6765 257.652 81.1685 257.652C81.6605 257.652 82.0745 257.814 82.4105 258.138C82.7465 258.45 82.9145 258.864 82.9145 259.38C82.9145 259.884 82.7465 260.304 82.4105 260.64C82.0745 260.976 81.6605 261.144 81.1685 261.144ZM89.6235 261.216C88.5795 261.216 87.6495 260.958 86.8335 260.442C86.0175 259.926 85.3755 259.182 84.9075 258.21C84.4515 257.226 84.2235 256.056 84.2235 254.7C84.2235 253.344 84.4515 252.18 84.9075 251.208C85.3755 250.224 86.0175 249.474 86.8335 248.958C87.6495 248.442 88.5795 248.184 89.6235 248.184C90.6675 248.184 91.5975 248.442 92.4135 248.958C93.2295 249.474 93.8655 250.224 94.3215 251.208C94.7895 252.18 95.0235 253.344 95.0235 254.7C95.0235 256.056 94.7895 257.226 94.3215 258.21C93.8655 259.182 93.2295 259.926 92.4135 260.442C91.5975 260.958 90.6675 261.216 89.6235 261.216ZM89.6235 258.75C90.3915 258.75 90.9915 258.42 91.4235 257.76C91.8675 257.1 92.0895 256.08 92.0895 254.7C92.0895 253.32 91.8675 252.3 91.4235 251.64C90.9915 250.98 90.3915 250.65 89.6235 250.65C88.8675 250.65 88.2675 250.98 87.8235 251.64C87.3915 252.3 87.1755 253.32 87.1755 254.7C87.1755 256.08 87.3915 257.1 87.8235 257.76C88.2675 258.42 88.8675 258.75 89.6235 258.75ZM101.84 261.216C100.796 261.216 99.8663 260.958 99.0503 260.442C98.2343 259.926 97.5923 259.182 97.1243 258.21C96.6683 257.226 96.4403 256.056 96.4403 254.7C96.4403 253.344 96.6683 252.18 97.1243 251.208C97.5923 250.224 98.2343 249.474 99.0503 248.958C99.8663 248.442 100.796 248.184 101.84 248.184C102.884 248.184 103.814 248.442 104.63 248.958C105.446 249.474 106.082 250.224 106.538 251.208C107.006 252.18 107.24 253.344 107.24 254.7C107.24 256.056 107.006 257.226 106.538 258.21C106.082 259.182 105.446 259.926 104.63 260.442C103.814 260.958 102.884 261.216 101.84 261.216ZM101.84 258.75C102.608 258.75 103.208 258.42 103.64 257.76C104.084 257.1 104.306 256.08 104.306 254.7C104.306 253.32 104.084 252.3 103.64 251.64C103.208 250.98 102.608 250.65 101.84 250.65C101.084 250.65 100.484 250.98 100.04 251.64C99.6083 252.3 99.3923 253.32 99.3923 254.7C99.3923 256.08 99.6083 257.1 100.04 257.76C100.484 258.42 101.084 258.75 101.84 258.75Z" fill="#070707"/>
<rect x="57" y="332" width="293" height="131" fill="#C5FCE5" stroke="black"/>
<path d="M160.524 358.216C159.24 358.216 158.076 357.94 157.032 357.388C156 356.824 155.184 356.05 154.584 355.066C153.996 354.07 153.702 352.948 153.702 351.7C153.702 350.452 153.996 349.336 154.584 348.352C155.184 347.356 156 346.582 157.032 346.03C158.076 345.466 159.246 345.184 160.542 345.184C161.634 345.184 162.618 345.376 163.494 345.76C164.382 346.144 165.126 346.696 165.726 347.416L163.854 349.144C163.002 348.16 161.946 347.668 160.686 347.668C159.906 347.668 159.21 347.842 158.598 348.19C157.986 348.526 157.506 349 157.158 349.612C156.822 350.224 156.654 350.92 156.654 351.7C156.654 352.48 156.822 353.176 157.158 353.788C157.506 354.4 157.986 354.88 158.598 355.228C159.21 355.564 159.906 355.732 160.686 355.732C161.946 355.732 163.002 355.234 163.854 354.238L165.726 355.966C165.126 356.698 164.382 357.256 163.494 357.64C162.606 358.024 161.616 358.216 160.524 358.216ZM167.497 344.644H170.305V358H167.497V344.644ZM172.911 348.316H175.719V358H172.911V348.316ZM174.315 346.966C173.799 346.966 173.379 346.816 173.055 346.516C172.731 346.216 172.569 345.844 172.569 345.4C172.569 344.956 172.731 344.584 173.055 344.284C173.379 343.984 173.799 343.834 174.315 343.834C174.831 343.834 175.251 343.978 175.575 344.266C175.899 344.554 176.061 344.914 176.061 345.346C176.061 345.814 175.899 346.204 175.575 346.516C175.251 346.816 174.831 346.966 174.315 346.966ZM187.811 353.194C187.811 353.23 187.793 353.482 187.757 353.95H180.431C180.563 354.55 180.875 355.024 181.367 355.372C181.859 355.72 182.471 355.894 183.203 355.894C183.707 355.894 184.151 355.822 184.535 355.678C184.931 355.522 185.297 355.282 185.633 354.958L187.127 356.578C186.215 357.622 184.883 358.144 183.131 358.144C182.039 358.144 181.073 357.934 180.233 357.514C179.393 357.082 178.745 356.488 178.289 355.732C177.833 354.976 177.605 354.118 177.605 353.158C177.605 352.21 177.827 351.358 178.271 350.602C178.727 349.834 179.345 349.24 180.125 348.82C180.917 348.388 181.799 348.172 182.771 348.172C183.719 348.172 184.577 348.376 185.345 348.784C186.113 349.192 186.713 349.78 187.145 350.548C187.589 351.304 187.811 352.186 187.811 353.194ZM182.789 350.296C182.153 350.296 181.619 350.476 181.187 350.836C180.755 351.196 180.491 351.688 180.395 352.312H185.165C185.069 351.7 184.805 351.214 184.373 350.854C183.941 350.482 183.413 350.296 182.789 350.296ZM195.567 348.172C196.767 348.172 197.733 348.532 198.465 349.252C199.209 349.972 199.581 351.04 199.581 352.456V358H196.773V352.888C196.773 352.12 196.605 351.55 196.269 351.178C195.933 350.794 195.447 350.602 194.811 350.602C194.103 350.602 193.539 350.824 193.119 351.268C192.699 351.7 192.489 352.348 192.489 353.212V358H189.681V348.316H192.363V349.45C192.735 349.042 193.197 348.73 193.749 348.514C194.301 348.286 194.907 348.172 195.567 348.172ZM208.372 357.532C208.096 357.736 207.754 357.892 207.346 358C206.95 358.096 206.53 358.144 206.086 358.144C204.934 358.144 204.04 357.85 203.404 357.262C202.78 356.674 202.468 355.81 202.468 354.67V350.692H200.974V348.532H202.468V346.174H205.276V348.532H207.688V350.692H205.276V354.634C205.276 355.042 205.378 355.36 205.582 355.588C205.798 355.804 206.098 355.912 206.482 355.912C206.926 355.912 207.304 355.792 207.616 355.552L208.372 357.532ZM226.71 358L226.692 350.44L222.984 356.668H221.67L217.98 350.602V358H215.244V345.4H217.656L222.372 353.23L227.016 345.4H229.41L229.446 358H226.71ZM241.723 353.194C241.723 353.23 241.705 353.482 241.669 353.95H234.343C234.475 354.55 234.787 355.024 235.279 355.372C235.771 355.72 236.383 355.894 237.115 355.894C237.619 355.894 238.063 355.822 238.447 355.678C238.843 355.522 239.209 355.282 239.545 354.958L241.039 356.578C240.127 357.622 238.795 358.144 237.043 358.144C235.951 358.144 234.985 357.934 234.145 357.514C233.305 357.082 232.657 356.488 232.201 355.732C231.745 354.976 231.517 354.118 231.517 353.158C231.517 352.21 231.739 351.358 232.183 350.602C232.639 349.834 233.257 349.24 234.037 348.82C234.829 348.388 235.711 348.172 236.683 348.172C237.631 348.172 238.489 348.376 239.257 348.784C240.025 349.192 240.625 349.78 241.057 350.548C241.501 351.304 241.723 352.186 241.723 353.194ZM236.701 350.296C236.065 350.296 235.531 350.476 235.099 350.836C234.667 351.196 234.403 351.688 234.307 352.312H239.077C238.981 351.7 238.717 351.214 238.285 350.854C237.853 350.482 237.325 350.296 236.701 350.296ZM253.079 353.194C253.079 353.23 253.061 353.482 253.025 353.95H245.699C245.831 354.55 246.143 355.024 246.635 355.372C247.127 355.72 247.739 355.894 248.471 355.894C248.975 355.894 249.419 355.822 249.803 355.678C250.199 355.522 250.565 355.282 250.901 354.958L252.395 356.578C251.483 357.622 250.151 358.144 248.399 358.144C247.307 358.144 246.341 357.934 245.501 357.514C244.661 357.082 244.013 356.488 243.557 355.732C243.101 354.976 242.873 354.118 242.873 353.158C242.873 352.21 243.095 351.358 243.539 350.602C243.995 349.834 244.613 349.24 245.393 348.82C246.185 348.388 247.067 348.172 248.039 348.172C248.987 348.172 249.845 348.376 250.613 348.784C251.381 349.192 251.981 349.78 252.413 350.548C252.857 351.304 253.079 352.186 253.079 353.194ZM248.057 350.296C247.421 350.296 246.887 350.476 246.455 350.836C246.023 351.196 245.759 351.688 245.663 352.312H250.433C250.337 351.7 250.073 351.214 249.641 350.854C249.209 350.482 248.681 350.296 248.057 350.296ZM261.194 357.532C260.918 357.736 260.576 357.892 260.168 358C259.772 358.096 259.352 358.144 258.908 358.144C257.756 358.144 256.862 357.85 256.226 357.262C255.602 356.674 255.29 355.81 255.29 354.67V350.692H253.796V348.532H255.29V346.174H258.098V348.532H260.51V350.692H258.098V354.634C258.098 355.042 258.2 355.36 258.404 355.588C258.62 355.804 258.92 355.912 259.304 355.912C259.748 355.912 260.126 355.792 260.438 355.552L261.194 357.532ZM262.771 348.316H265.579V358H262.771V348.316ZM264.175 346.966C263.659 346.966 263.239 346.816 262.915 346.516C262.591 346.216 262.429 345.844 262.429 345.4C262.429 344.956 262.591 344.584 262.915 344.284C263.239 343.984 263.659 343.834 264.175 343.834C264.691 343.834 265.111 343.978 265.435 344.266C265.759 344.554 265.921 344.914 265.921 345.346C265.921 345.814 265.759 346.204 265.435 346.516C265.111 346.816 264.691 346.966 264.175 346.966ZM274.071 348.172C275.271 348.172 276.237 348.532 276.969 349.252C277.713 349.972 278.085 351.04 278.085 352.456V358H275.277V352.888C275.277 352.12 275.109 351.55 274.773 351.178C274.437 350.794 273.951 350.602 273.315 350.602C272.607 350.602 272.043 350.824 271.623 351.268C271.203 351.7 270.993 352.348 270.993 353.212V358H268.185V348.316H270.867V349.45C271.239 349.042 271.701 348.73 272.253 348.514C272.805 348.286 273.411 348.172 274.071 348.172ZM290.725 348.316V356.38C290.725 358.156 290.263 359.476 289.339 360.34C288.415 361.204 287.065 361.636 285.289 361.636C284.353 361.636 283.465 361.522 282.625 361.294C281.785 361.066 281.089 360.736 280.537 360.304L281.653 358.288C282.061 358.624 282.577 358.888 283.201 359.08C283.825 359.284 284.449 359.386 285.073 359.386C286.045 359.386 286.759 359.164 287.215 358.72C287.683 358.288 287.917 357.628 287.917 356.74V356.326C287.185 357.13 286.165 357.532 284.857 357.532C283.969 357.532 283.153 357.34 282.409 356.956C281.677 356.56 281.095 356.008 280.663 355.3C280.231 354.592 280.015 353.776 280.015 352.852C280.015 351.928 280.231 351.112 280.663 350.404C281.095 349.696 281.677 349.15 282.409 348.766C283.153 348.37 283.969 348.172 284.857 348.172C286.261 348.172 287.329 348.634 288.061 349.558V348.316H290.725ZM285.415 355.228C286.159 355.228 286.765 355.012 287.233 354.58C287.713 354.136 287.953 353.56 287.953 352.852C287.953 352.144 287.713 351.574 287.233 351.142C286.765 350.698 286.159 350.476 285.415 350.476C284.671 350.476 284.059 350.698 283.579 351.142C283.099 351.574 282.859 352.144 282.859 352.852C282.859 353.56 283.099 354.136 283.579 354.58C284.059 355.012 284.671 355.228 285.415 355.228ZM296.597 358.144C295.793 358.144 295.007 358.048 294.239 357.856C293.471 357.652 292.859 357.4 292.403 357.1L293.339 355.084C293.771 355.36 294.293 355.588 294.905 355.768C295.517 355.936 296.117 356.02 296.705 356.02C297.893 356.02 298.487 355.726 298.487 355.138C298.487 354.862 298.325 354.664 298.001 354.544C297.677 354.424 297.179 354.322 296.507 354.238C295.715 354.118 295.061 353.98 294.545 353.824C294.029 353.668 293.579 353.392 293.195 352.996C292.823 352.6 292.637 352.036 292.637 351.304C292.637 350.692 292.811 350.152 293.159 349.684C293.519 349.204 294.035 348.832 294.707 348.568C295.391 348.304 296.195 348.172 297.119 348.172C297.803 348.172 298.481 348.25 299.153 348.406C299.837 348.55 300.401 348.754 300.845 349.018L299.909 351.016C299.057 350.536 298.127 350.296 297.119 350.296C296.519 350.296 296.069 350.38 295.769 350.548C295.469 350.716 295.319 350.932 295.319 351.196C295.319 351.496 295.481 351.706 295.805 351.826C296.129 351.946 296.645 352.06 297.353 352.168C298.145 352.3 298.793 352.444 299.297 352.6C299.801 352.744 300.239 353.014 300.611 353.41C300.983 353.806 301.169 354.358 301.169 355.066C301.169 355.666 300.989 356.2 300.629 356.668C300.269 357.136 299.741 357.502 299.045 357.766C298.361 358.018 297.545 358.144 296.597 358.144Z" fill="#101010"/>
<path d="M73.562 345.4V358H70.646V347.74H68.126V345.4H73.562ZM81.1508 358.216C80.1068 358.216 79.1768 357.958 78.3608 357.442C77.5448 356.926 76.9028 356.182 76.4348 355.21C75.9788 354.226 75.7508 353.056 75.7508 351.7C75.7508 350.344 75.9788 349.18 76.4348 348.208C76.9028 347.224 77.5448 346.474 78.3608 345.958C79.1768 345.442 80.1068 345.184 81.1508 345.184C82.1948 345.184 83.1248 345.442 83.9408 345.958C84.7568 346.474 85.3928 347.224 85.8488 348.208C86.3168 349.18 86.5508 350.344 86.5508 351.7C86.5508 353.056 86.3168 354.226 85.8488 355.21C85.3928 356.182 84.7568 356.926 83.9408 357.442C83.1248 357.958 82.1948 358.216 81.1508 358.216ZM81.1508 355.75C81.9188 355.75 82.5188 355.42 82.9508 354.76C83.3948 354.1 83.6168 353.08 83.6168 351.7C83.6168 350.32 83.3948 349.3 82.9508 348.64C82.5188 347.98 81.9188 347.65 81.1508 347.65C80.3948 347.65 79.7948 347.98 79.3508 348.64C78.9188 349.3 78.7028 350.32 78.7028 351.7C78.7028 353.08 78.9188 354.1 79.3508 354.76C79.7948 355.42 80.3948 355.75 81.1508 355.75ZM89.6236 351.682C89.1316 351.682 88.7176 351.514 88.3816 351.178C88.0456 350.842 87.8776 350.422 87.8776 349.918C87.8776 349.402 88.0456 348.988 88.3816 348.676C88.7176 348.352 89.1316 348.19 89.6236 348.19C90.1156 348.19 90.5296 348.352 90.8656 348.676C91.2016 348.988 91.3696 349.402 91.3696 349.918C91.3696 350.422 91.2016 350.842 90.8656 351.178C90.5296 351.514 90.1156 351.682 89.6236 351.682ZM89.6236 358.144C89.1316 358.144 88.7176 357.976 88.3816 357.64C88.0456 357.304 87.8776 356.884 87.8776 356.38C87.8776 355.864 88.0456 355.45 88.3816 355.138C88.7176 354.814 89.1316 354.652 89.6236 354.652C90.1156 354.652 90.5296 354.814 90.8656 355.138C91.2016 355.45 91.3696 355.864 91.3696 356.38C91.3696 356.884 91.2016 357.304 90.8656 357.64C90.5296 357.976 90.1156 358.144 89.6236 358.144ZM98.0786 358.216C97.0346 358.216 96.1046 357.958 95.2886 357.442C94.4726 356.926 93.8306 356.182 93.3626 355.21C92.9066 354.226 92.6786 353.056 92.6786 351.7C92.6786 350.344 92.9066 349.18 93.3626 348.208C93.8306 347.224 94.4726 346.474 95.2886 345.958C96.1046 345.442 97.0346 345.184 98.0786 345.184C99.1226 345.184 100.053 345.442 100.869 345.958C101.685 346.474 102.321 347.224 102.777 348.208C103.245 349.18 103.479 350.344 103.479 351.7C103.479 353.056 103.245 354.226 102.777 355.21C102.321 356.182 101.685 356.926 100.869 357.442C100.053 357.958 99.1226 358.216 98.0786 358.216ZM98.0786 355.75C98.8466 355.75 99.4466 355.42 99.8786 354.76C100.323 354.1 100.545 353.08 100.545 351.7C100.545 350.32 100.323 349.3 99.8786 348.64C99.4466 347.98 98.8466 347.65 98.0786 347.65C97.3226 347.65 96.7226 347.98 96.2786 348.64C95.8466 349.3 95.6306 350.32 95.6306 351.7C95.6306 353.08 95.8466 354.1 96.2786 354.76C96.7226 355.42 97.3226 355.75 98.0786 355.75ZM110.295 358.216C109.251 358.216 108.321 357.958 107.505 357.442C106.689 356.926 106.047 356.182 105.579 355.21C105.123 354.226 104.895 353.056 104.895 351.7C104.895 350.344 105.123 349.18 105.579 348.208C106.047 347.224 106.689 346.474 107.505 345.958C108.321 345.442 109.251 345.184 110.295 345.184C111.339 345.184 112.269 345.442 113.085 345.958C113.901 346.474 114.537 347.224 114.993 348.208C115.461 349.18 115.695 350.344 115.695 351.7C115.695 353.056 115.461 354.226 114.993 355.21C114.537 356.182 113.901 356.926 113.085 357.442C112.269 357.958 111.339 358.216 110.295 358.216ZM110.295 355.75C111.063 355.75 111.663 355.42 112.095 354.76C112.539 354.1 112.761 353.08 112.761 351.7C112.761 350.32 112.539 349.3 112.095 348.64C111.663 347.98 111.063 347.65 110.295 347.65C109.539 347.65 108.939 347.98 108.495 348.64C108.063 349.3 107.847 350.32 107.847 351.7C107.847 353.08 108.063 354.1 108.495 354.76C108.939 355.42 109.539 355.75 110.295 355.75Z" fill="#060606"/>
<rect x="319.95" y="346.071" width="3" height="17" transform="rotate(-45 319.95 346.071)" fill="black"/>
<rect x="322.071" y="358.092" width="3" height="17" transform="rotate(-135 322.071 358.092)" fill="black"/>
<path d="M73.562 440.4V453H70.646V442.74H68.126V440.4H73.562ZM85.1648 450.624V453H75.6428V451.11L80.5028 446.52C81.0188 446.028 81.3668 445.608 81.5468 445.26C81.7268 444.9 81.8168 444.546 81.8168 444.198C81.8168 443.694 81.6428 443.31 81.2948 443.046C80.9588 442.77 80.4608 442.632 79.8008 442.632C79.2488 442.632 78.7508 442.74 78.3068 442.956C77.8628 443.16 77.4908 443.472 77.1908 443.892L75.0668 442.524C75.5588 441.792 76.2368 441.222 77.1008 440.814C77.9648 440.394 78.9548 440.184 80.0708 440.184C81.0068 440.184 81.8228 440.34 82.5188 440.652C83.2268 440.952 83.7728 441.384 84.1568 441.948C84.5528 442.5 84.7508 443.154 84.7508 443.91C84.7508 444.594 84.6068 445.236 84.3188 445.836C84.0308 446.436 83.4728 447.12 82.6448 447.888L79.7468 450.624H85.1648ZM88.024 446.682C87.532 446.682 87.118 446.514 86.782 446.178C86.446 445.842 86.278 445.422 86.278 444.918C86.278 444.402 86.446 443.988 86.782 443.676C87.118 443.352 87.532 443.19 88.024 443.19C88.516 443.19 88.93 443.352 89.266 443.676C89.602 443.988 89.77 444.402 89.77 444.918C89.77 445.422 89.602 445.842 89.266 446.178C88.93 446.514 88.516 446.682 88.024 446.682ZM88.024 453.144C87.532 453.144 87.118 452.976 86.782 452.64C86.446 452.304 86.278 451.884 86.278 451.38C86.278 450.864 86.446 450.45 86.782 450.138C87.118 449.814 87.532 449.652 88.024 449.652C88.516 449.652 88.93 449.814 89.266 450.138C89.602 450.45 89.77 450.864 89.77 451.38C89.77 451.884 89.602 452.304 89.266 452.64C88.93 452.976 88.516 453.144 88.024 453.144ZM96.479 453.216C95.435 453.216 94.505 452.958 93.689 452.442C92.873 451.926 92.231 451.182 91.763 450.21C91.307 449.226 91.079 448.056 91.079 446.7C91.079 445.344 91.307 444.18 91.763 443.208C92.231 442.224 92.873 441.474 93.689 440.958C94.505 440.442 95.435 440.184 96.479 440.184C97.523 440.184 98.453 440.442 99.269 440.958C100.085 441.474 100.721 442.224 101.177 443.208C101.645 444.18 101.879 445.344 101.879 446.7C101.879 448.056 101.645 449.226 101.177 450.21C100.721 451.182 100.085 451.926 99.269 452.442C98.453 452.958 97.523 453.216 96.479 453.216ZM96.479 450.75C97.247 450.75 97.847 450.42 98.279 449.76C98.723 449.1 98.945 448.08 98.945 446.7C98.945 445.32 98.723 444.3 98.279 443.64C97.847 442.98 97.247 442.65 96.479 442.65C95.723 442.65 95.123 442.98 94.679 443.64C94.247 444.3 94.031 445.32 94.031 446.7C94.031 448.08 94.247 449.1 94.679 449.76C95.123 450.42 95.723 450.75 96.479 450.75ZM108.696 453.216C107.652 453.216 106.722 452.958 105.906 452.442C105.09 451.926 104.448 451.182 103.98 450.21C103.524 449.226 103.296 448.056 103.296 446.7C103.296 445.344 103.524 444.18 103.98 443.208C104.448 442.224 105.09 441.474 105.906 440.958C106.722 440.442 107.652 440.184 108.696 440.184C109.74 440.184 110.67 440.442 111.486 440.958C112.302 441.474 112.938 442.224 113.394 443.208C113.862 444.18 114.096 445.344 114.096 446.7C114.096 448.056 113.862 449.226 113.394 450.21C112.938 451.182 112.302 451.926 111.486 452.442C110.67 452.958 109.74 453.216 108.696 453.216ZM108.696 450.75C109.464 450.75 110.064 450.42 110.496 449.76C110.94 449.1 111.162 448.08 111.162 446.7C111.162 445.32 110.94 444.3 110.496 443.64C110.064 442.98 109.464 442.65 108.696 442.65C107.94 442.65 107.34 442.98 106.896 443.64C106.464 444.3 106.248 445.32 106.248 446.7C106.248 448.08 106.464 449.1 106.896 449.76C107.34 450.42 107.94 450.75 108.696 450.75Z" fill="#070707"/>
<g filter="url(#filter0_d)">
<path d="M57 110C57 82.3858 79.3858 60 107 60H300C327.614 60 350 82.3858 350 110V139H57V110Z" fill="#FC3A3A" stroke="black"/>
<path d="M170.28 107L170.256 96.92L165.312 105.224H163.56L158.64 97.136V107H154.992V90.2H158.208L164.496 100.64L170.688 90.2H173.88L173.928 107H170.28ZM183.794 107.192C182.434 107.192 181.21 106.912 180.122 106.352C179.05 105.776 178.21 104.984 177.602 103.976C176.994 102.968 176.69 101.824 176.69 100.544C176.69 99.264 176.994 98.12 177.602 97.112C178.21 96.104 179.05 95.32 180.122 94.76C181.21 94.184 182.434 93.896 183.794 93.896C185.154 93.896 186.37 94.184 187.442 94.76C188.514 95.32 189.354 96.104 189.962 97.112C190.57 98.12 190.874 99.264 190.874 100.544C190.874 101.824 190.57 102.968 189.962 103.976C189.354 104.984 188.514 105.776 187.442 106.352C186.37 106.912 185.154 107.192 183.794 107.192ZM183.794 104.12C184.754 104.12 185.538 103.8 186.146 103.16C186.77 102.504 187.082 101.632 187.082 100.544C187.082 99.456 186.77 98.592 186.146 97.952C185.538 97.296 184.754 96.968 183.794 96.968C182.834 96.968 182.042 97.296 181.418 97.952C180.794 98.592 180.482 99.456 180.482 100.544C180.482 101.632 180.794 102.504 181.418 103.16C182.042 103.8 182.834 104.12 183.794 104.12ZM201.224 93.896C202.824 93.896 204.112 94.376 205.088 95.336C206.08 96.296 206.576 97.72 206.576 99.608V107H202.832V100.184C202.832 99.16 202.608 98.4 202.16 97.904C201.712 97.392 201.064 97.136 200.216 97.136C199.272 97.136 198.52 97.432 197.96 98.024C197.4 98.6 197.12 99.464 197.12 100.616V107H193.376V94.088H196.952V95.6C197.448 95.056 198.064 94.64 198.8 94.352C199.536 94.048 200.344 93.896 201.224 93.896ZM223.263 89.192V107H219.687V105.512C218.759 106.632 217.415 107.192 215.655 107.192C214.439 107.192 213.335 106.92 212.343 106.376C211.367 105.832 210.599 105.056 210.039 104.048C209.479 103.04 209.199 101.872 209.199 100.544C209.199 99.216 209.479 98.048 210.039 97.04C210.599 96.032 211.367 95.256 212.343 94.712C213.335 94.168 214.439 93.896 215.655 93.896C217.303 93.896 218.591 94.416 219.519 95.456V89.192H223.263ZM216.303 104.12C217.247 104.12 218.031 103.8 218.655 103.16C219.279 102.504 219.591 101.632 219.591 100.544C219.591 99.456 219.279 98.592 218.655 97.952C218.031 97.296 217.247 96.968 216.303 96.968C215.343 96.968 214.551 97.296 213.927 97.952C213.303 98.592 212.991 99.456 212.991 100.544C212.991 101.632 213.303 102.504 213.927 103.16C214.551 103.8 215.343 104.12 216.303 104.12ZM231.936 93.896C233.936 93.896 235.472 94.376 236.544 95.336C237.616 96.28 238.152 97.712 238.152 99.632V107H234.648V105.392C233.944 106.592 232.632 107.192 230.712 107.192C229.72 107.192 228.856 107.024 228.12 106.688C227.4 106.352 226.848 105.888 226.464 105.296C226.08 104.704 225.888 104.032 225.888 103.28C225.888 102.08 226.336 101.136 227.232 100.448C228.144 99.76 229.544 99.416 231.432 99.416H234.408C234.408 98.6 234.16 97.976 233.664 97.544C233.168 97.096 232.424 96.872 231.432 96.872C230.744 96.872 230.064 96.984 229.392 97.208C228.736 97.416 228.176 97.704 227.712 98.072L226.368 95.456C227.072 94.96 227.912 94.576 228.888 94.304C229.88 94.032 230.896 93.896 231.936 93.896ZM231.648 104.672C232.288 104.672 232.856 104.528 233.352 104.24C233.848 103.936 234.2 103.496 234.408 102.92V101.6H231.84C230.304 101.6 229.536 102.104 229.536 103.112C229.536 103.592 229.72 103.976 230.088 104.264C230.472 104.536 230.992 104.672 231.648 104.672ZM254.122 94.088L248.29 107.792C247.698 109.28 246.962 110.328 246.082 110.936C245.218 111.544 244.17 111.848 242.938 111.848C242.266 111.848 241.602 111.744 240.946 111.536C240.29 111.328 239.754 111.04 239.338 110.672L240.706 108.008C240.994 108.264 241.322 108.464 241.69 108.608C242.074 108.752 242.45 108.824 242.818 108.824C243.33 108.824 243.746 108.696 244.066 108.44C244.386 108.2 244.674 107.792 244.93 107.216L244.978 107.096L239.386 94.088H243.25L246.874 102.848L250.522 94.088H254.122Z" fill="white"/>
<path fill-rule="evenodd" clip-rule="evenodd" d="M267.2 84.2689C267.939 83.8734 268.836 83.9168 269.533 84.3817L289.988 98.0181C290.62 98.4396 291 99.1492 291 99.9091C291 100.669 290.62 101.379 289.988 101.8L269.533 115.436C268.836 115.901 267.939 115.945 267.2 115.549C266.461 115.154 266 114.384 266 113.545V86.2727C266 85.4346 266.461 84.6644 267.2 84.2689ZM270.545 90.5194V109.299L284.63 99.9091L270.545 90.5194Z" fill="white"/>
<path fill-rule="evenodd" clip-rule="evenodd" d="M139.8 115.731C139.061 116.127 138.164 116.083 137.467 115.618L117.012 101.982C116.38 101.56 116 100.851 116 100.091C116 99.331 116.38 98.6214 117.012 98.1999L137.467 84.5635C138.164 84.0986 139.061 84.0552 139.8 84.4507C140.539 84.8462 141 85.6164 141 86.4545V113.727C141 114.565 140.539 115.336 139.8 115.731ZM136.455 109.481V90.7012L122.37 100.091L136.455 109.481Z" fill="white"/>
</g>
<path d="M350 570C350 597.614 327.614 620 300 620H107C79.3858 620 57 597.614 57 570V541H350V570Z" fill="black" stroke="black"/>
<defs>
<filter id="filter0_d" x="22.5" y="29.5" width="362" height="148" filterUnits="userSpaceOnUse" color-interpolation-filters="sRGB">
<feFlood flood-opacity="0" result="BackgroundImageFix"/>
<feColorMatrix in="SourceAlpha" type="matrix" values="0 0 0 0 0 0 0 0 0 0 0 0 0 0 0 0 0 0 127 0" result="hardAlpha"/>
<feOffset dy="4"/>
<feGaussianBlur stdDeviation="17"/>
<feComposite in2="hardAlpha" operator="out"/>
<feColorMatrix type="matrix" values="0 0 0 0 0 0 0 0 0 0 0 0 0 0 0 0 0 0 0.15 0"/>
<feBlend mode="normal" in2="BackgroundImageFix" result="effect1_dropShadow"/>
<feBlend mode="normal" in="SourceGraphic" in2="effect1_dropShadow" result="shape"/>
</filter>
</defs>
</svg>
