<svg width="66" height="58" viewBox="0 0 66 58" fill="none" xmlns="http://www.w3.org/2000/svg">
<circle cx="33.9925" cy="19.1053" r="19.1053" fill="#FC3A3A"/>
<circle cx="19.3534" cy="38.2105" r="19.3534" fill="#4870FF"/>
<circle cx="46.6466" cy="38.2105" r="19.3534" fill="#FFF742"/>
<path d="M32.2557 46.8134C30.9641 46.8134 29.7784 46.5275 28.6986 45.9559C27.64 45.3842 26.7931 44.5902 26.1579 43.5739C25.5439 42.5576 25.2368 41.3507 25.2368 39.9533V30.2667C25.2368 29.7586 25.0569 29.3245 24.6969 28.9646C24.337 28.6046 23.903 28.4247 23.3948 28.4247C22.8867 28.4247 22.4526 28.6046 22.0927 28.9646C21.7539 29.3245 21.5845 29.7586 21.5845 30.2667V46.4322H16.376V30.6478C16.376 29.3351 16.6724 28.16 17.2652 27.1225C17.8793 26.0851 18.7156 25.2805 19.7742 24.7088C20.8541 24.116 22.0609 23.8195 23.3948 23.8195C24.7287 23.8195 25.925 24.116 26.9836 24.7088C28.0423 25.2805 28.8786 26.0851 29.4926 27.1225C30.1278 28.16 30.4454 29.3351 30.4454 30.6478V40.3344C30.4454 40.8638 30.6148 41.3084 30.9535 41.6683C31.3135 42.0071 31.7369 42.1765 32.2239 42.1765C32.7321 42.1765 33.1661 42.0071 33.5261 41.6683C33.9072 41.3084 34.0977 40.8638 34.0977 40.3344V30.6478C34.0977 29.3351 34.4047 28.16 35.0187 27.1225C35.6328 26.0851 36.4691 25.2805 37.5277 24.7088C38.5864 24.116 39.7827 23.8195 41.1166 23.8195C42.4504 23.8195 43.6467 24.116 44.7054 24.7088C45.764 25.2805 46.6003 26.0851 47.2144 27.1225C47.8284 28.16 48.1354 29.3351 48.1354 30.6478V46.4322H42.9268V30.2349C42.9268 29.748 42.7469 29.3245 42.3869 28.9646C42.0482 28.6046 41.6247 28.4247 41.1166 28.4247C40.6296 28.4247 40.1955 28.6046 39.8144 28.9646C39.4545 29.3245 39.2745 29.748 39.2745 30.2349V39.9533C39.2745 41.3507 38.9569 42.5576 38.3217 43.5739C37.6865 44.5902 36.8396 45.3842 35.781 45.9559C34.7223 46.5275 33.5472 46.8134 32.2557 46.8134Z" fill="black"/>
</svg>
