<svg width="329" height="360" viewBox="0 0 329 360" fill="none" xmlns="http://www.w3.org/2000/svg">
<g clip-path="url(#clip0)">
<path d="M66.2774 293.306C70.8659 293.306 74.5857 289.589 74.5857 285.004C74.5857 280.418 70.8659 276.701 66.2774 276.701C61.6888 276.701 57.969 280.418 57.969 285.004C57.969 289.589 61.6888 293.306 66.2774 293.306Z" fill="#F0F0F0"/>
<path d="M50.9005 294.793C54.1194 294.793 56.7288 292.186 56.7288 288.969C56.7288 285.752 54.1194 283.145 50.9005 283.145C47.6817 283.145 45.0723 285.752 45.0723 288.969C45.0723 292.186 47.6817 294.793 50.9005 294.793Z" fill="#F0F0F0"/>
<path d="M62.8771 34.5011C66.5676 34.5011 69.5593 31.5115 69.5593 27.8235C69.5593 24.1356 66.5676 21.1459 62.8771 21.1459C59.1866 21.1459 56.1948 24.1356 56.1948 27.8235C56.1948 31.5115 59.1866 34.5011 62.8771 34.5011Z" fill="#CCCCCC"/>
<path d="M303.438 112.407C307.129 112.407 310.12 109.417 310.12 105.729C310.12 102.041 307.129 99.0515 303.438 99.0515C299.748 99.0515 296.756 102.041 296.756 105.729C296.756 109.417 299.748 112.407 303.438 112.407Z" fill="#CCCCCC"/>
<path d="M73.4574 154.142H62.3203V165.271H73.4574V154.142Z" fill="#CCCCCC"/>
<path d="M4.96429 72.341H3.85059V0H75.1279V1.11294H4.96429V72.341Z" fill="#CCCCCC"/>
<path d="M329 72.341H327.886V1.11294H257.723V0H329V72.341Z" fill="#CCCCCC"/>
<path d="M4.96429 133.553H3.85059V205.894H75.1279V204.781H4.96429V133.553Z" fill="#CCCCCC"/>
<path d="M329 133.553H327.886V204.781H257.723V205.894H329V133.553Z" fill="#CCCCCC"/>
<path d="M101.857 33.9446H23.8972V35.0575H101.857V33.9446Z" fill="#CCCCCC"/>
<path d="M46.1716 23.9282H45.0579V34.2229H46.1716V23.9282Z" fill="#CCCCCC"/>
<path d="M80.1396 23.9282H79.0259V34.2229H80.1396V23.9282Z" fill="#CCCCCC"/>
<path d="M312.348 112.407H234.388V113.52H312.348V112.407Z" fill="#CCCCCC"/>
<path d="M256.662 102.39H255.549V112.685H256.662V102.39Z" fill="#CCCCCC"/>
<path d="M290.631 102.39H289.517V112.685H290.631V102.39Z" fill="#CCCCCC"/>
<path d="M106.869 164.715H28.9089V165.828H106.869V164.715Z" fill="#CCCCCC"/>
<path d="M51.183 154.698H50.0693V164.993H51.183V154.698Z" fill="#CCCCCC"/>
<path d="M85.1513 154.698H84.0376V164.993H85.1513V154.698Z" fill="#CCCCCC"/>
<path d="M165.278 232.847C182.501 232.847 196.462 229.608 196.462 225.613C196.462 221.617 182.501 218.379 165.278 218.379C148.056 218.379 134.094 221.617 134.094 225.613C134.094 229.608 148.056 232.847 165.278 232.847Z" fill="#3F3D56"/>
<path d="M190.296 297.679L160.225 299.901L160.307 301.011L190.378 298.789L190.296 297.679Z" fill="#CACACA"/>
<path d="M140.488 293.849L139.952 294.824L151.089 300.945L151.625 299.97L140.488 293.849Z" fill="#CACACA"/>
<path d="M171.961 289.885H161.937V290.998H171.961V289.885Z" fill="#CACACA"/>
<path d="M135.764 359.481L134.652 359.406L143.005 231.974L144.117 232.05L135.764 359.481Z" fill="#CACACA"/>
<path d="M176.973 359.471L171.404 242.056L172.517 242.001L178.085 359.416L176.973 359.471Z" fill="#CACACA"/>
<path d="M188.108 231.41L186.998 231.501L197.578 359.489L198.688 359.398L188.108 231.41Z" fill="#CACACA"/>
<path d="M153.028 359.457L151.914 359.43L155.255 242.015L156.369 242.042L153.028 359.457Z" fill="#CACACA"/>
<path d="M147.698 285.853L140.302 290.23L119.885 263.805L130.802 257.344L147.698 285.853Z" fill="#FFB6B6"/>
<path d="M153.831 291.901L129.982 306.016L129.803 305.715C128.345 303.255 127.925 300.316 128.635 297.547C129.344 294.777 131.126 292.402 133.588 290.945L133.588 290.944L148.154 282.323L153.831 291.901Z" fill="#2F2E41"/>
<path d="M183.416 285.853L190.812 290.23L211.228 263.805L200.312 257.344L183.416 285.853Z" fill="#FFB6B6"/>
<path d="M182.959 282.323L197.525 290.944L197.526 290.945C199.987 292.402 201.769 294.777 202.479 297.547C203.188 300.316 202.768 303.255 201.31 305.715L201.131 306.016L177.283 291.901L182.959 282.323Z" fill="#2F2E41"/>
<path d="M188.499 185.026C188.499 185.026 164.367 202.011 140.878 186.684L140.511 197.368C140.511 197.368 90.1963 218.692 98.4558 235.351C106.715 252.009 124.071 269.296 124.071 269.296L133.538 261.505L122.957 234.794L151.737 222.611L176.826 222.737L211.811 236.887L195.106 261.928L209.827 266.513C209.827 266.513 244.908 234.238 237.391 225.056C231.365 217.697 195.296 201.196 195.296 201.196L188.499 185.026Z" fill="#2F2E41"/>
<path d="M196.896 122.717L176.01 115.798L170.847 108.476H155.812L151.357 115.914L131.99 122.717C130.934 123.018 130.026 123.699 129.442 124.628C128.858 125.557 128.637 126.67 128.823 127.751L137.436 198.624L151.357 197.511C151.357 197.511 170.113 212.136 181.427 195.285L182.031 186.787L193.678 198.067L200.063 127.751C200.249 126.67 200.028 125.557 199.444 124.628C198.86 123.699 197.952 123.018 196.896 122.717Z" fill="#FC3A3A"/>
<path d="M180.86 74.6556C174.685 64.2283 162.467 63.7423 162.467 63.7423C162.467 63.7423 150.562 62.2209 142.925 78.1019C135.806 92.9043 125.982 102.188 141.343 105.653L144.118 97.0231L145.836 106.296C148.023 106.453 150.217 106.49 152.409 106.408C168.859 105.877 184.526 106.563 184.022 100.664C183.351 92.8221 186.802 84.6888 180.86 74.6556Z" fill="#2F2E41"/>
<path d="M163.886 105.648C172.805 105.648 180.035 98.4233 180.035 89.5108C180.035 80.5982 172.805 73.3732 163.886 73.3732C154.967 73.3732 147.737 80.5982 147.737 89.5108C147.737 98.4233 154.967 105.648 163.886 105.648Z" fill="#FFB8B8"/>
<path d="M178.687 73.0939L166.616 66.7758L149.948 69.3606L146.5 84.5817L155.084 84.2517L157.482 78.6597V84.1599L161.444 84.0074L163.743 75.1044L165.18 84.5817L179.262 84.2945L178.687 73.0939Z" fill="#2F2E41"/>
<path opacity="0.2" d="M138.651 138.004L151.18 186.969C151.18 186.969 145.333 144.126 138.651 138.004Z" fill="black"/>
<path opacity="0.2" d="M176.036 187.525L188.565 138.561C181.883 144.682 176.036 187.525 176.036 187.525Z" fill="black"/>
<path d="M178.953 230.301C179.628 229.945 180.217 229.445 180.678 228.837C181.139 228.229 181.461 227.527 181.621 226.781C181.781 226.035 181.775 225.263 181.605 224.52C181.434 223.776 181.102 223.079 180.633 222.478L192.007 191.39L183.301 186.96L172.977 221.763C172.018 222.618 171.406 223.795 171.257 225.071C171.109 226.347 171.434 227.632 172.17 228.685C172.907 229.737 174.004 230.483 175.255 230.781C176.505 231.079 177.821 230.908 178.953 230.301Z" fill="#FFB6B6"/>
<path d="M189.944 134.945L177.253 190.093C177.131 190.662 177.237 191.257 177.549 191.75C177.861 192.242 178.354 192.593 178.921 192.726L191.143 194.486C191.444 194.557 191.756 194.564 192.06 194.508C192.363 194.451 192.652 194.333 192.907 194.159C193.163 193.985 193.379 193.76 193.543 193.498C193.706 193.236 193.813 192.943 193.857 192.637L197.576 135.186L189.944 134.945Z" fill="#FC3A3A"/>
<path d="M149.933 231.414C149.257 231.058 148.669 230.558 148.208 229.95C147.747 229.342 147.425 228.64 147.265 227.894C147.105 227.148 147.111 226.376 147.281 225.633C147.452 224.889 147.784 224.192 148.253 223.591L136.879 192.503L145.585 188.073L155.909 222.876C156.868 223.731 157.48 224.908 157.629 226.184C157.777 227.459 157.452 228.745 156.716 229.798C155.979 230.85 154.882 231.596 153.631 231.894C152.381 232.192 151.065 232.021 149.933 231.414Z" fill="#FFB6B6"/>
<path d="M138.942 136.058L151.633 191.205C151.755 191.775 151.649 192.37 151.337 192.863C151.025 193.355 150.532 193.706 149.965 193.839L137.743 195.599C137.442 195.67 137.13 195.677 136.827 195.621C136.523 195.564 136.234 195.445 135.979 195.272C135.723 195.098 135.507 194.873 135.344 194.611C135.18 194.349 135.073 194.056 135.029 193.75L130.197 136.299L138.942 136.058Z" fill="#FC3A3A"/>
<path d="M325.203 360H0.556854C0.409167 360 0.26752 359.941 0.16309 359.837C0.0586595 359.733 0 359.591 0 359.443C0 359.296 0.0586595 359.154 0.16309 359.05C0.26752 358.946 0.409167 358.887 0.556854 358.887H325.203C325.351 358.887 325.492 358.946 325.597 359.05C325.701 359.154 325.76 359.296 325.76 359.443C325.76 359.591 325.701 359.733 325.597 359.837C325.492 359.941 325.351 360 325.203 360Z" fill="#E4E4E4"/>
<path d="M279.324 302.04L279.741 301.447C286.888 306.462 292.103 317.618 295.238 334.604C296.672 342.538 297.532 350.565 297.813 358.622L297.087 358.636C297.079 358.189 296.022 313.755 279.324 302.04Z" fill="#E4E4E4"/>
<path d="M280.412 334.098L280.828 333.505C288.279 338.733 288.732 357.646 288.748 358.449L288.023 358.463C288.019 358.27 287.562 339.115 280.412 334.098Z" fill="#E4E4E4"/>
<path d="M275.181 301.743C277.184 301.743 278.807 300.121 278.807 298.12C278.807 296.119 277.184 294.497 275.181 294.497C273.179 294.497 271.556 296.119 271.556 298.12C271.556 300.121 273.179 301.743 275.181 301.743Z" fill="#E4E4E4"/>
<path d="M276.994 333.266C278.997 333.266 280.62 331.644 280.62 329.643C280.62 327.642 278.997 326.02 276.994 326.02C274.992 326.02 273.368 327.642 273.368 329.643C273.368 331.644 274.992 333.266 276.994 333.266Z" fill="#E4E4E4"/>
<path d="M293.275 296.767C294.428 299.35 294.808 302.212 294.37 305.006C293.932 307.801 292.695 310.409 290.808 312.517C289.655 309.934 289.275 307.072 289.713 304.278C290.151 301.483 291.388 298.875 293.275 296.767Z" fill="#E4E4E4"/>
<path d="M271.081 310.027C273.827 309.343 276.713 309.468 279.39 310.386C282.068 311.303 284.423 312.975 286.171 315.2C283.424 315.883 280.539 315.759 277.861 314.841C275.184 313.923 272.829 312.251 271.081 310.027Z" fill="#E4E4E4"/>
<path d="M272.975 339.062C274.9 338.583 276.923 338.67 278.799 339.314C280.676 339.957 282.326 341.129 283.552 342.688C281.627 343.167 279.604 343.08 277.727 342.436C275.851 341.793 274.2 340.621 272.975 339.062Z" fill="#E4E4E4"/>
</g>
<defs>
<clipPath id="clip0">
<rect width="329" height="360" fill="white"/>
</clipPath>
</defs>
</svg>
