<svg width="295" height="49" viewBox="0 0 295 49" fill="none" xmlns="http://www.w3.org/2000/svg">
<rect x="1" y="1" width="293" height="47" fill="#FC3A3A" stroke="black"/>
<path fill-rule="evenodd" clip-rule="evenodd" d="M144.413 12.7396C145.698 11.7535 147.474 11.7535 148.759 12.7396L157.038 19.0929C158.382 20.1245 159.172 21.7331 159.172 23.4401V33.3623C159.172 35.3713 157.562 37 155.576 37H151.98C149.994 37 148.384 35.3713 148.384 33.3623V26.9962H144.788V33.3623C144.788 35.3713 143.178 37 141.192 37H137.596C135.61 37 134 35.3713 134 33.3623V23.4401C134 21.7331 134.79 20.1245 136.134 19.0929L144.413 12.7396ZM154.865 21.991L146.586 15.6377L138.307 21.991C137.859 22.3349 137.596 22.8711 137.596 23.4401V33.3623H141.192V26.9962C141.192 24.9872 142.802 23.3585 144.788 23.3585H148.384C150.37 23.3585 151.98 24.9872 151.98 26.9962V33.3623L155.576 33.3623V23.4401C155.576 22.8711 155.313 22.3349 154.865 21.991Z" fill="white"/>
</svg>
