<svg width="295" height="33" viewBox="0 0 295 33" fill="none" xmlns="http://www.w3.org/2000/svg">
<rect x="1" y="1" width="293" height="31" fill="#F1ECB9" stroke="black"/>
<path d="M17.562 10.4V23H14.646V12.74H12.126V10.4H17.562ZM21.4068 16.682C20.9148 16.682 20.5008 16.514 20.1648 16.178C19.8288 15.842 19.6608 15.422 19.6608 14.918C19.6608 14.402 19.8288 13.988 20.1648 13.676C20.5008 13.352 20.9148 13.19 21.4068 13.19C21.8988 13.19 22.3128 13.352 22.6488 13.676C22.9848 13.988 23.1528 14.402 23.1528 14.918C23.1528 15.422 22.9848 15.842 22.6488 16.178C22.3128 16.514 21.8988 16.682 21.4068 16.682ZM21.4068 23.144C20.9148 23.144 20.5008 22.976 20.1648 22.64C19.8288 22.304 19.6608 21.884 19.6608 21.38C19.6608 20.864 19.8288 20.45 20.1648 20.138C20.5008 19.814 20.9148 19.652 21.4068 19.652C21.8988 19.652 22.3128 19.814 22.6488 20.138C22.9848 20.45 23.1528 20.864 23.1528 21.38C23.1528 21.884 22.9848 22.304 22.6488 22.64C22.3128 22.976 21.8988 23.144 21.4068 23.144ZM29.8618 23.216C28.8178 23.216 27.8878 22.958 27.0718 22.442C26.2558 21.926 25.6138 21.182 25.1458 20.21C24.6898 19.226 24.4618 18.056 24.4618 16.7C24.4618 15.344 24.6898 14.18 25.1458 13.208C25.6138 12.224 26.2558 11.474 27.0718 10.958C27.8878 10.442 28.8178 10.184 29.8618 10.184C30.9058 10.184 31.8358 10.442 32.6518 10.958C33.4678 11.474 34.1038 12.224 34.5598 13.208C35.0278 14.18 35.2618 15.344 35.2618 16.7C35.2618 18.056 35.0278 19.226 34.5598 20.21C34.1038 21.182 33.4678 21.926 32.6518 22.442C31.8358 22.958 30.9058 23.216 29.8618 23.216ZM29.8618 20.75C30.6298 20.75 31.2298 20.42 31.6618 19.76C32.1058 19.1 32.3278 18.08 32.3278 16.7C32.3278 15.32 32.1058 14.3 31.6618 13.64C31.2298 12.98 30.6298 12.65 29.8618 12.65C29.1058 12.65 28.5058 12.98 28.0618 13.64C27.6298 14.3 27.4138 15.32 27.4138 16.7C27.4138 18.08 27.6298 19.1 28.0618 19.76C28.5058 20.42 29.1058 20.75 29.8618 20.75ZM42.0786 23.216C41.0346 23.216 40.1046 22.958 39.2886 22.442C38.4726 21.926 37.8306 21.182 37.3626 20.21C36.9066 19.226 36.6786 18.056 36.6786 16.7C36.6786 15.344 36.9066 14.18 37.3626 13.208C37.8306 12.224 38.4726 11.474 39.2886 10.958C40.1046 10.442 41.0346 10.184 42.0786 10.184C43.1226 10.184 44.0526 10.442 44.8686 10.958C45.6846 11.474 46.3206 12.224 46.7766 13.208C47.2446 14.18 47.4786 15.344 47.4786 16.7C47.4786 18.056 47.2446 19.226 46.7766 20.21C46.3206 21.182 45.6846 21.926 44.8686 22.442C44.0526 22.958 43.1226 23.216 42.0786 23.216ZM42.0786 20.75C42.8466 20.75 43.4466 20.42 43.8786 19.76C44.3226 19.1 44.5446 18.08 44.5446 16.7C44.5446 15.32 44.3226 14.3 43.8786 13.64C43.4466 12.98 42.8466 12.65 42.0786 12.65C41.3226 12.65 40.7226 12.98 40.2786 13.64C39.8466 14.3 39.6306 15.32 39.6306 16.7C39.6306 18.08 39.8466 19.1 40.2786 19.76C40.7226 20.42 41.3226 20.75 42.0786 20.75Z" fill="#070707"/>
<rect x="263.95" y="12.0711" width="3" height="17" transform="rotate(-45 263.95 12.0711)" fill="black"/>
<rect x="266.071" y="24.0919" width="3" height="17" transform="rotate(-135 266.071 24.0919)" fill="black"/>
<path d="M98.494 11.4H101.41V21.624H107.728V24H98.494V11.4ZM118.845 14.316V24H116.181V22.848C115.809 23.268 115.365 23.592 114.849 23.82C114.333 24.036 113.775 24.144 113.175 24.144C111.903 24.144 110.895 23.778 110.151 23.046C109.407 22.314 109.035 21.228 109.035 19.788V14.316H111.843V19.374C111.843 20.934 112.497 21.714 113.805 21.714C114.477 21.714 115.017 21.498 115.425 21.066C115.833 20.622 116.037 19.968 116.037 19.104V14.316H118.845ZM127.332 14.172C128.532 14.172 129.498 14.532 130.23 15.252C130.974 15.972 131.346 17.04 131.346 18.456V24H128.538V18.888C128.538 18.12 128.37 17.55 128.034 17.178C127.698 16.794 127.212 16.602 126.576 16.602C125.868 16.602 125.304 16.824 124.884 17.268C124.464 17.7 124.254 18.348 124.254 19.212V24H121.446V14.316H124.128V15.45C124.5 15.042 124.962 14.73 125.514 14.514C126.066 14.286 126.672 14.172 127.332 14.172ZM138.677 24.144C137.645 24.144 136.715 23.934 135.887 23.514C135.071 23.082 134.429 22.488 133.961 21.732C133.505 20.976 133.277 20.118 133.277 19.158C133.277 18.198 133.505 17.34 133.961 16.584C134.429 15.828 135.071 15.24 135.887 14.82C136.715 14.388 137.645 14.172 138.677 14.172C139.697 14.172 140.585 14.388 141.341 14.82C142.109 15.24 142.667 15.846 143.015 16.638L140.837 17.808C140.333 16.92 139.607 16.476 138.659 16.476C137.927 16.476 137.321 16.716 136.841 17.196C136.361 17.676 136.121 18.33 136.121 19.158C136.121 19.986 136.361 20.64 136.841 21.12C137.321 21.6 137.927 21.84 138.659 21.84C139.619 21.84 140.345 21.396 140.837 20.508L143.015 21.696C142.667 22.464 142.109 23.064 141.341 23.496C140.585 23.928 139.697 24.144 138.677 24.144ZM150.448 14.172C151.648 14.172 152.614 14.532 153.346 15.252C154.09 15.972 154.462 17.04 154.462 18.456V24H151.654V18.888C151.654 18.12 151.486 17.55 151.15 17.178C150.814 16.794 150.328 16.602 149.692 16.602C148.984 16.602 148.42 16.824 148 17.268C147.58 17.7 147.37 18.348 147.37 19.212V24H144.562V10.644H147.37V15.324C147.742 14.952 148.192 14.67 148.72 14.478C149.248 14.274 149.824 14.172 150.448 14.172Z" fill="#101010"/>
</svg>
