<svg width="295" height="33" viewBox="0 0 295 33" fill="none" xmlns="http://www.w3.org/2000/svg">
<rect x="1" y="1" width="293" height="31" fill="#B39D9D" stroke="black"/>
<rect x="1" y="1" width="293" height="31" fill="#B39D9D" stroke="black"/>
<path d="M21.324 16.376C21.948 16.688 22.422 17.096 22.746 17.6C23.082 18.104 23.25 18.686 23.25 19.346C23.25 20.126 23.028 20.81 22.584 21.398C22.14 21.974 21.516 22.424 20.712 22.748C19.908 23.06 18.978 23.216 17.922 23.216C16.866 23.216 15.936 23.06 15.132 22.748C14.34 22.424 13.722 21.974 13.278 21.398C12.846 20.81 12.63 20.126 12.63 19.346C12.63 18.686 12.792 18.104 13.116 17.6C13.452 17.096 13.926 16.688 14.538 16.376C14.07 16.088 13.71 15.728 13.458 15.296C13.206 14.852 13.08 14.348 13.08 13.784C13.08 13.052 13.284 12.416 13.692 11.876C14.1 11.336 14.67 10.922 15.402 10.634C16.134 10.334 16.974 10.184 17.922 10.184C18.882 10.184 19.728 10.334 20.46 10.634C21.204 10.922 21.78 11.336 22.188 11.876C22.596 12.416 22.8 13.052 22.8 13.784C22.8 14.348 22.674 14.852 22.422 15.296C22.17 15.728 21.804 16.088 21.324 16.376ZM17.922 12.326C17.334 12.326 16.86 12.47 16.5 12.758C16.152 13.034 15.978 13.418 15.978 13.91C15.978 14.39 16.152 14.768 16.5 15.044C16.848 15.32 17.322 15.458 17.922 15.458C18.522 15.458 19.002 15.32 19.362 15.044C19.722 14.768 19.902 14.39 19.902 13.91C19.902 13.418 19.722 13.034 19.362 12.758C19.002 12.47 18.522 12.326 17.922 12.326ZM17.922 21.074C18.654 21.074 19.23 20.912 19.65 20.588C20.082 20.252 20.298 19.808 20.298 19.256C20.298 18.704 20.082 18.266 19.65 17.942C19.23 17.618 18.654 17.456 17.922 17.456C17.202 17.456 16.632 17.618 16.212 17.942C15.792 18.266 15.582 18.704 15.582 19.256C15.582 19.82 15.792 20.264 16.212 20.588C16.632 20.912 17.202 21.074 17.922 21.074ZM26.2408 16.682C25.7488 16.682 25.3348 16.514 24.9988 16.178C24.6628 15.842 24.4948 15.422 24.4948 14.918C24.4948 14.402 24.6628 13.988 24.9988 13.676C25.3348 13.352 25.7488 13.19 26.2408 13.19C26.7328 13.19 27.1468 13.352 27.4828 13.676C27.8188 13.988 27.9868 14.402 27.9868 14.918C27.9868 15.422 27.8188 15.842 27.4828 16.178C27.1468 16.514 26.7328 16.682 26.2408 16.682ZM26.2408 23.144C25.7488 23.144 25.3348 22.976 24.9988 22.64C24.6628 22.304 24.4948 21.884 24.4948 21.38C24.4948 20.864 24.6628 20.45 24.9988 20.138C25.3348 19.814 25.7488 19.652 26.2408 19.652C26.7328 19.652 27.1468 19.814 27.4828 20.138C27.8188 20.45 27.9868 20.864 27.9868 21.38C27.9868 21.884 27.8188 22.304 27.4828 22.64C27.1468 22.976 26.7328 23.144 26.2408 23.144ZM34.6958 23.216C33.6518 23.216 32.7218 22.958 31.9058 22.442C31.0898 21.926 30.4478 21.182 29.9798 20.21C29.5238 19.226 29.2958 18.056 29.2958 16.7C29.2958 15.344 29.5238 14.18 29.9798 13.208C30.4478 12.224 31.0898 11.474 31.9058 10.958C32.7218 10.442 33.6518 10.184 34.6958 10.184C35.7398 10.184 36.6698 10.442 37.4858 10.958C38.3018 11.474 38.9378 12.224 39.3938 13.208C39.8618 14.18 40.0958 15.344 40.0958 16.7C40.0958 18.056 39.8618 19.226 39.3938 20.21C38.9378 21.182 38.3018 21.926 37.4858 22.442C36.6698 22.958 35.7398 23.216 34.6958 23.216ZM34.6958 20.75C35.4638 20.75 36.0638 20.42 36.4958 19.76C36.9398 19.1 37.1618 18.08 37.1618 16.7C37.1618 15.32 36.9398 14.3 36.4958 13.64C36.0638 12.98 35.4638 12.65 34.6958 12.65C33.9398 12.65 33.3398 12.98 32.8958 13.64C32.4638 14.3 32.2478 15.32 32.2478 16.7C32.2478 18.08 32.4638 19.1 32.8958 19.76C33.3398 20.42 33.9398 20.75 34.6958 20.75ZM46.9125 23.216C45.8685 23.216 44.9385 22.958 44.1225 22.442C43.3065 21.926 42.6645 21.182 42.1965 20.21C41.7405 19.226 41.5125 18.056 41.5125 16.7C41.5125 15.344 41.7405 14.18 42.1965 13.208C42.6645 12.224 43.3065 11.474 44.1225 10.958C44.9385 10.442 45.8685 10.184 46.9125 10.184C47.9565 10.184 48.8865 10.442 49.7025 10.958C50.5185 11.474 51.1545 12.224 51.6105 13.208C52.0785 14.18 52.3125 15.344 52.3125 16.7C52.3125 18.056 52.0785 19.226 51.6105 20.21C51.1545 21.182 50.5185 21.926 49.7025 22.442C48.8865 22.958 47.9565 23.216 46.9125 23.216ZM46.9125 20.75C47.6805 20.75 48.2805 20.42 48.7125 19.76C49.1565 19.1 49.3785 18.08 49.3785 16.7C49.3785 15.32 49.1565 14.3 48.7125 13.64C48.2805 12.98 47.6805 12.65 46.9125 12.65C46.1565 12.65 45.5565 12.98 45.1125 13.64C44.6805 14.3 44.4645 15.32 44.4645 16.7C44.4645 18.08 44.6805 19.1 45.1125 19.76C45.5565 20.42 46.1565 20.75 46.9125 20.75Z" fill="#070707"/>
<rect x="270" y="8" width="3" height="17" fill="black"/>
<rect x="263" y="18" width="3" height="17" transform="rotate(-90 263 18)" fill="black"/>
</svg>
