<svg width="295" height="133" viewBox="0 0 295 133" fill="none" xmlns="http://www.w3.org/2000/svg">
<rect x="1" y="1" width="293" height="131" fill="#C5FCE5" stroke="black"/>
<path d="M104.524 27.216C103.24 27.216 102.076 26.94 101.032 26.388C100 25.824 99.184 25.05 98.584 24.066C97.996 23.07 97.702 21.948 97.702 20.7C97.702 19.452 97.996 18.336 98.584 17.352C99.184 16.356 100 15.582 101.032 15.03C102.076 14.466 103.246 14.184 104.542 14.184C105.634 14.184 106.618 14.376 107.494 14.76C108.382 15.144 109.126 15.696 109.726 16.416L107.854 18.144C107.002 17.16 105.946 16.668 104.686 16.668C103.906 16.668 103.21 16.842 102.598 17.19C101.986 17.526 101.506 18 101.158 18.612C100.822 19.224 100.654 19.92 100.654 20.7C100.654 21.48 100.822 22.176 101.158 22.788C101.506 23.4 101.986 23.88 102.598 24.228C103.21 24.564 103.906 24.732 104.686 24.732C105.946 24.732 107.002 24.234 107.854 23.238L109.726 24.966C109.126 25.698 108.382 26.256 107.494 26.64C106.606 27.024 105.616 27.216 104.524 27.216ZM111.497 13.644H114.305V27H111.497V13.644ZM116.911 17.316H119.719V27H116.911V17.316ZM118.315 15.966C117.799 15.966 117.379 15.816 117.055 15.516C116.731 15.216 116.569 14.844 116.569 14.4C116.569 13.956 116.731 13.584 117.055 13.284C117.379 12.984 117.799 12.834 118.315 12.834C118.831 12.834 119.251 12.978 119.575 13.266C119.899 13.554 120.061 13.914 120.061 14.346C120.061 14.814 119.899 15.204 119.575 15.516C119.251 15.816 118.831 15.966 118.315 15.966ZM131.811 22.194C131.811 22.23 131.793 22.482 131.757 22.95H124.431C124.563 23.55 124.875 24.024 125.367 24.372C125.859 24.72 126.471 24.894 127.203 24.894C127.707 24.894 128.151 24.822 128.535 24.678C128.931 24.522 129.297 24.282 129.633 23.958L131.127 25.578C130.215 26.622 128.883 27.144 127.131 27.144C126.039 27.144 125.073 26.934 124.233 26.514C123.393 26.082 122.745 25.488 122.289 24.732C121.833 23.976 121.605 23.118 121.605 22.158C121.605 21.21 121.827 20.358 122.271 19.602C122.727 18.834 123.345 18.24 124.125 17.82C124.917 17.388 125.799 17.172 126.771 17.172C127.719 17.172 128.577 17.376 129.345 17.784C130.113 18.192 130.713 18.78 131.145 19.548C131.589 20.304 131.811 21.186 131.811 22.194ZM126.789 19.296C126.153 19.296 125.619 19.476 125.187 19.836C124.755 20.196 124.491 20.688 124.395 21.312H129.165C129.069 20.7 128.805 20.214 128.373 19.854C127.941 19.482 127.413 19.296 126.789 19.296ZM139.567 17.172C140.767 17.172 141.733 17.532 142.465 18.252C143.209 18.972 143.581 20.04 143.581 21.456V27H140.773V21.888C140.773 21.12 140.605 20.55 140.269 20.178C139.933 19.794 139.447 19.602 138.811 19.602C138.103 19.602 137.539 19.824 137.119 20.268C136.699 20.7 136.489 21.348 136.489 22.212V27H133.681V17.316H136.363V18.45C136.735 18.042 137.197 17.73 137.749 17.514C138.301 17.286 138.907 17.172 139.567 17.172ZM152.372 26.532C152.096 26.736 151.754 26.892 151.346 27C150.95 27.096 150.53 27.144 150.086 27.144C148.934 27.144 148.04 26.85 147.404 26.262C146.78 25.674 146.468 24.81 146.468 23.67V19.692H144.974V17.532H146.468V15.174H149.276V17.532H151.688V19.692H149.276V23.634C149.276 24.042 149.378 24.36 149.582 24.588C149.798 24.804 150.098 24.912 150.482 24.912C150.926 24.912 151.304 24.792 151.616 24.552L152.372 26.532ZM170.71 27L170.692 19.44L166.984 25.668H165.67L161.98 19.602V27H159.244V14.4H161.656L166.372 22.23L171.016 14.4H173.41L173.446 27H170.71ZM185.723 22.194C185.723 22.23 185.705 22.482 185.669 22.95H178.343C178.475 23.55 178.787 24.024 179.279 24.372C179.771 24.72 180.383 24.894 181.115 24.894C181.619 24.894 182.063 24.822 182.447 24.678C182.843 24.522 183.209 24.282 183.545 23.958L185.039 25.578C184.127 26.622 182.795 27.144 181.043 27.144C179.951 27.144 178.985 26.934 178.145 26.514C177.305 26.082 176.657 25.488 176.201 24.732C175.745 23.976 175.517 23.118 175.517 22.158C175.517 21.21 175.739 20.358 176.183 19.602C176.639 18.834 177.257 18.24 178.037 17.82C178.829 17.388 179.711 17.172 180.683 17.172C181.631 17.172 182.489 17.376 183.257 17.784C184.025 18.192 184.625 18.78 185.057 19.548C185.501 20.304 185.723 21.186 185.723 22.194ZM180.701 19.296C180.065 19.296 179.531 19.476 179.099 19.836C178.667 20.196 178.403 20.688 178.307 21.312H183.077C182.981 20.7 182.717 20.214 182.285 19.854C181.853 19.482 181.325 19.296 180.701 19.296ZM197.079 22.194C197.079 22.23 197.061 22.482 197.025 22.95H189.699C189.831 23.55 190.143 24.024 190.635 24.372C191.127 24.72 191.739 24.894 192.471 24.894C192.975 24.894 193.419 24.822 193.803 24.678C194.199 24.522 194.565 24.282 194.901 23.958L196.395 25.578C195.483 26.622 194.151 27.144 192.399 27.144C191.307 27.144 190.341 26.934 189.501 26.514C188.661 26.082 188.013 25.488 187.557 24.732C187.101 23.976 186.873 23.118 186.873 22.158C186.873 21.21 187.095 20.358 187.539 19.602C187.995 18.834 188.613 18.24 189.393 17.82C190.185 17.388 191.067 17.172 192.039 17.172C192.987 17.172 193.845 17.376 194.613 17.784C195.381 18.192 195.981 18.78 196.413 19.548C196.857 20.304 197.079 21.186 197.079 22.194ZM192.057 19.296C191.421 19.296 190.887 19.476 190.455 19.836C190.023 20.196 189.759 20.688 189.663 21.312H194.433C194.337 20.7 194.073 20.214 193.641 19.854C193.209 19.482 192.681 19.296 192.057 19.296ZM205.194 26.532C204.918 26.736 204.576 26.892 204.168 27C203.772 27.096 203.352 27.144 202.908 27.144C201.756 27.144 200.862 26.85 200.226 26.262C199.602 25.674 199.29 24.81 199.29 23.67V19.692H197.796V17.532H199.29V15.174H202.098V17.532H204.51V19.692H202.098V23.634C202.098 24.042 202.2 24.36 202.404 24.588C202.62 24.804 202.92 24.912 203.304 24.912C203.748 24.912 204.126 24.792 204.438 24.552L205.194 26.532ZM206.771 17.316H209.579V27H206.771V17.316ZM208.175 15.966C207.659 15.966 207.239 15.816 206.915 15.516C206.591 15.216 206.429 14.844 206.429 14.4C206.429 13.956 206.591 13.584 206.915 13.284C207.239 12.984 207.659 12.834 208.175 12.834C208.691 12.834 209.111 12.978 209.435 13.266C209.759 13.554 209.921 13.914 209.921 14.346C209.921 14.814 209.759 15.204 209.435 15.516C209.111 15.816 208.691 15.966 208.175 15.966ZM218.071 17.172C219.271 17.172 220.237 17.532 220.969 18.252C221.713 18.972 222.085 20.04 222.085 21.456V27H219.277V21.888C219.277 21.12 219.109 20.55 218.773 20.178C218.437 19.794 217.951 19.602 217.315 19.602C216.607 19.602 216.043 19.824 215.623 20.268C215.203 20.7 214.993 21.348 214.993 22.212V27H212.185V17.316H214.867V18.45C215.239 18.042 215.701 17.73 216.253 17.514C216.805 17.286 217.411 17.172 218.071 17.172ZM234.725 17.316V25.38C234.725 27.156 234.263 28.476 233.339 29.34C232.415 30.204 231.065 30.636 229.289 30.636C228.353 30.636 227.465 30.522 226.625 30.294C225.785 30.066 225.089 29.736 224.537 29.304L225.653 27.288C226.061 27.624 226.577 27.888 227.201 28.08C227.825 28.284 228.449 28.386 229.073 28.386C230.045 28.386 230.759 28.164 231.215 27.72C231.683 27.288 231.917 26.628 231.917 25.74V25.326C231.185 26.13 230.165 26.532 228.857 26.532C227.969 26.532 227.153 26.34 226.409 25.956C225.677 25.56 225.095 25.008 224.663 24.3C224.231 23.592 224.015 22.776 224.015 21.852C224.015 20.928 224.231 20.112 224.663 19.404C225.095 18.696 225.677 18.15 226.409 17.766C227.153 17.37 227.969 17.172 228.857 17.172C230.261 17.172 231.329 17.634 232.061 18.558V17.316H234.725ZM229.415 24.228C230.159 24.228 230.765 24.012 231.233 23.58C231.713 23.136 231.953 22.56 231.953 21.852C231.953 21.144 231.713 20.574 231.233 20.142C230.765 19.698 230.159 19.476 229.415 19.476C228.671 19.476 228.059 19.698 227.579 20.142C227.099 20.574 226.859 21.144 226.859 21.852C226.859 22.56 227.099 23.136 227.579 23.58C228.059 24.012 228.671 24.228 229.415 24.228ZM240.597 27.144C239.793 27.144 239.007 27.048 238.239 26.856C237.471 26.652 236.859 26.4 236.403 26.1L237.339 24.084C237.771 24.36 238.293 24.588 238.905 24.768C239.517 24.936 240.117 25.02 240.705 25.02C241.893 25.02 242.487 24.726 242.487 24.138C242.487 23.862 242.325 23.664 242.001 23.544C241.677 23.424 241.179 23.322 240.507 23.238C239.715 23.118 239.061 22.98 238.545 22.824C238.029 22.668 237.579 22.392 237.195 21.996C236.823 21.6 236.637 21.036 236.637 20.304C236.637 19.692 236.811 19.152 237.159 18.684C237.519 18.204 238.035 17.832 238.707 17.568C239.391 17.304 240.195 17.172 241.119 17.172C241.803 17.172 242.481 17.25 243.153 17.406C243.837 17.55 244.401 17.754 244.845 18.018L243.909 20.016C243.057 19.536 242.127 19.296 241.119 19.296C240.519 19.296 240.069 19.38 239.769 19.548C239.469 19.716 239.319 19.932 239.319 20.196C239.319 20.496 239.481 20.706 239.805 20.826C240.129 20.946 240.645 21.06 241.353 21.168C242.145 21.3 242.793 21.444 243.297 21.6C243.801 21.744 244.239 22.014 244.611 22.41C244.983 22.806 245.169 23.358 245.169 24.066C245.169 24.666 244.989 25.2 244.629 25.668C244.269 26.136 243.741 26.502 243.045 26.766C242.361 27.018 241.545 27.144 240.597 27.144Z" fill="#101010"/>
<path d="M17.562 14.4V27H14.646V16.74H12.126V14.4H17.562ZM25.1508 27.216C24.1068 27.216 23.1768 26.958 22.3608 26.442C21.5448 25.926 20.9028 25.182 20.4348 24.21C19.9788 23.226 19.7508 22.056 19.7508 20.7C19.7508 19.344 19.9788 18.18 20.4348 17.208C20.9028 16.224 21.5448 15.474 22.3608 14.958C23.1768 14.442 24.1068 14.184 25.1508 14.184C26.1948 14.184 27.1248 14.442 27.9408 14.958C28.7568 15.474 29.3928 16.224 29.8488 17.208C30.3168 18.18 30.5508 19.344 30.5508 20.7C30.5508 22.056 30.3168 23.226 29.8488 24.21C29.3928 25.182 28.7568 25.926 27.9408 26.442C27.1248 26.958 26.1948 27.216 25.1508 27.216ZM25.1508 24.75C25.9188 24.75 26.5188 24.42 26.9508 23.76C27.3948 23.1 27.6168 22.08 27.6168 20.7C27.6168 19.32 27.3948 18.3 26.9508 17.64C26.5188 16.98 25.9188 16.65 25.1508 16.65C24.3948 16.65 23.7948 16.98 23.3508 17.64C22.9188 18.3 22.7028 19.32 22.7028 20.7C22.7028 22.08 22.9188 23.1 23.3508 23.76C23.7948 24.42 24.3948 24.75 25.1508 24.75ZM33.6236 20.682C33.1316 20.682 32.7176 20.514 32.3816 20.178C32.0456 19.842 31.8776 19.422 31.8776 18.918C31.8776 18.402 32.0456 17.988 32.3816 17.676C32.7176 17.352 33.1316 17.19 33.6236 17.19C34.1156 17.19 34.5296 17.352 34.8656 17.676C35.2016 17.988 35.3696 18.402 35.3696 18.918C35.3696 19.422 35.2016 19.842 34.8656 20.178C34.5296 20.514 34.1156 20.682 33.6236 20.682ZM33.6236 27.144C33.1316 27.144 32.7176 26.976 32.3816 26.64C32.0456 26.304 31.8776 25.884 31.8776 25.38C31.8776 24.864 32.0456 24.45 32.3816 24.138C32.7176 23.814 33.1316 23.652 33.6236 23.652C34.1156 23.652 34.5296 23.814 34.8656 24.138C35.2016 24.45 35.3696 24.864 35.3696 25.38C35.3696 25.884 35.2016 26.304 34.8656 26.64C34.5296 26.976 34.1156 27.144 33.6236 27.144ZM42.0786 27.216C41.0346 27.216 40.1046 26.958 39.2886 26.442C38.4726 25.926 37.8306 25.182 37.3626 24.21C36.9066 23.226 36.6786 22.056 36.6786 20.7C36.6786 19.344 36.9066 18.18 37.3626 17.208C37.8306 16.224 38.4726 15.474 39.2886 14.958C40.1046 14.442 41.0346 14.184 42.0786 14.184C43.1226 14.184 44.0526 14.442 44.8686 14.958C45.6846 15.474 46.3206 16.224 46.7766 17.208C47.2446 18.18 47.4786 19.344 47.4786 20.7C47.4786 22.056 47.2446 23.226 46.7766 24.21C46.3206 25.182 45.6846 25.926 44.8686 26.442C44.0526 26.958 43.1226 27.216 42.0786 27.216ZM42.0786 24.75C42.8466 24.75 43.4466 24.42 43.8786 23.76C44.3226 23.1 44.5446 22.08 44.5446 20.7C44.5446 19.32 44.3226 18.3 43.8786 17.64C43.4466 16.98 42.8466 16.65 42.0786 16.65C41.3226 16.65 40.7226 16.98 40.2786 17.64C39.8466 18.3 39.6306 19.32 39.6306 20.7C39.6306 22.08 39.8466 23.1 40.2786 23.76C40.7226 24.42 41.3226 24.75 42.0786 24.75ZM54.2954 27.216C53.2514 27.216 52.3214 26.958 51.5054 26.442C50.6894 25.926 50.0474 25.182 49.5794 24.21C49.1234 23.226 48.8954 22.056 48.8954 20.7C48.8954 19.344 49.1234 18.18 49.5794 17.208C50.0474 16.224 50.6894 15.474 51.5054 14.958C52.3214 14.442 53.2514 14.184 54.2954 14.184C55.3394 14.184 56.2694 14.442 57.0854 14.958C57.9014 15.474 58.5374 16.224 58.9934 17.208C59.4614 18.18 59.6954 19.344 59.6954 20.7C59.6954 22.056 59.4614 23.226 58.9934 24.21C58.5374 25.182 57.9014 25.926 57.0854 26.442C56.2694 26.958 55.3394 27.216 54.2954 27.216ZM54.2954 24.75C55.0634 24.75 55.6634 24.42 56.0954 23.76C56.5394 23.1 56.7614 22.08 56.7614 20.7C56.7614 19.32 56.5394 18.3 56.0954 17.64C55.6634 16.98 55.0634 16.65 54.2954 16.65C53.5394 16.65 52.9394 16.98 52.4954 17.64C52.0634 18.3 51.8474 19.32 51.8474 20.7C51.8474 22.08 52.0634 23.1 52.4954 23.76C52.9394 24.42 53.5394 24.75 54.2954 24.75Z" fill="#060606"/>
<rect x="263.95" y="15.0711" width="3" height="17" transform="rotate(-45 263.95 15.0711)" fill="black"/>
<rect x="266.071" y="27.0919" width="3" height="17" transform="rotate(-135 266.071 27.0919)" fill="black"/>
<path d="M17.562 109.4V122H14.646V111.74H12.126V109.4H17.562ZM29.1648 119.624V122H19.6428V120.11L24.5028 115.52C25.0188 115.028 25.3668 114.608 25.5468 114.26C25.7268 113.9 25.8168 113.546 25.8168 113.198C25.8168 112.694 25.6428 112.31 25.2948 112.046C24.9588 111.77 24.4608 111.632 23.8008 111.632C23.2488 111.632 22.7508 111.74 22.3068 111.956C21.8628 112.16 21.4908 112.472 21.1908 112.892L19.0668 111.524C19.5588 110.792 20.2368 110.222 21.1008 109.814C21.9648 109.394 22.9548 109.184 24.0708 109.184C25.0068 109.184 25.8228 109.34 26.5188 109.652C27.2268 109.952 27.7728 110.384 28.1568 110.948C28.5528 111.5 28.7508 112.154 28.7508 112.91C28.7508 113.594 28.6068 114.236 28.3188 114.836C28.0308 115.436 27.4728 116.12 26.6448 116.888L23.7468 119.624H29.1648ZM32.024 115.682C31.532 115.682 31.118 115.514 30.782 115.178C30.446 114.842 30.278 114.422 30.278 113.918C30.278 113.402 30.446 112.988 30.782 112.676C31.118 112.352 31.532 112.19 32.024 112.19C32.516 112.19 32.93 112.352 33.266 112.676C33.602 112.988 33.77 113.402 33.77 113.918C33.77 114.422 33.602 114.842 33.266 115.178C32.93 115.514 32.516 115.682 32.024 115.682ZM32.024 122.144C31.532 122.144 31.118 121.976 30.782 121.64C30.446 121.304 30.278 120.884 30.278 120.38C30.278 119.864 30.446 119.45 30.782 119.138C31.118 118.814 31.532 118.652 32.024 118.652C32.516 118.652 32.93 118.814 33.266 119.138C33.602 119.45 33.77 119.864 33.77 120.38C33.77 120.884 33.602 121.304 33.266 121.64C32.93 121.976 32.516 122.144 32.024 122.144ZM40.479 122.216C39.435 122.216 38.505 121.958 37.689 121.442C36.873 120.926 36.231 120.182 35.763 119.21C35.307 118.226 35.079 117.056 35.079 115.7C35.079 114.344 35.307 113.18 35.763 112.208C36.231 111.224 36.873 110.474 37.689 109.958C38.505 109.442 39.435 109.184 40.479 109.184C41.523 109.184 42.453 109.442 43.269 109.958C44.085 110.474 44.721 111.224 45.177 112.208C45.645 113.18 45.879 114.344 45.879 115.7C45.879 117.056 45.645 118.226 45.177 119.21C44.721 120.182 44.085 120.926 43.269 121.442C42.453 121.958 41.523 122.216 40.479 122.216ZM40.479 119.75C41.247 119.75 41.847 119.42 42.279 118.76C42.723 118.1 42.945 117.08 42.945 115.7C42.945 114.32 42.723 113.3 42.279 112.64C41.847 111.98 41.247 111.65 40.479 111.65C39.723 111.65 39.123 111.98 38.679 112.64C38.247 113.3 38.031 114.32 38.031 115.7C38.031 117.08 38.247 118.1 38.679 118.76C39.123 119.42 39.723 119.75 40.479 119.75ZM52.6958 122.216C51.6518 122.216 50.7218 121.958 49.9058 121.442C49.0898 120.926 48.4478 120.182 47.9798 119.21C47.5238 118.226 47.2958 117.056 47.2958 115.7C47.2958 114.344 47.5238 113.18 47.9798 112.208C48.4478 111.224 49.0898 110.474 49.9058 109.958C50.7218 109.442 51.6518 109.184 52.6958 109.184C53.7398 109.184 54.6698 109.442 55.4858 109.958C56.3018 110.474 56.9378 111.224 57.3938 112.208C57.8618 113.18 58.0958 114.344 58.0958 115.7C58.0958 117.056 57.8618 118.226 57.3938 119.21C56.9378 120.182 56.3018 120.926 55.4858 121.442C54.6698 121.958 53.7398 122.216 52.6958 122.216ZM52.6958 119.75C53.4638 119.75 54.0638 119.42 54.4958 118.76C54.9398 118.1 55.1618 117.08 55.1618 115.7C55.1618 114.32 54.9398 113.3 54.4958 112.64C54.0638 111.98 53.4638 111.65 52.6958 111.65C51.9398 111.65 51.3398 111.98 50.8958 112.64C50.4638 113.3 50.2478 114.32 50.2478 115.7C50.2478 117.08 50.4638 118.1 50.8958 118.76C51.3398 119.42 51.9398 119.75 52.6958 119.75Z" fill="#070707"/>
</svg>
