<svg width="295" height="81" viewBox="0 0 295 81" fill="none" xmlns="http://www.w3.org/2000/svg">
<path d="M1 51C1 23.3858 23.3858 1 51 1H244C271.614 1 294 23.3858 294 51V80H1V51Z" fill="#FC3A3A" stroke="black"/>
<path d="M114.28 48L114.256 37.92L109.312 46.224H107.56L102.64 38.136V48H98.992V31.2H102.208L108.496 41.64L114.688 31.2H117.88L117.928 48H114.28ZM127.794 48.192C126.434 48.192 125.21 47.912 124.122 47.352C123.05 46.776 122.21 45.984 121.602 44.976C120.994 43.968 120.69 42.824 120.69 41.544C120.69 40.264 120.994 39.12 121.602 38.112C122.21 37.104 123.05 36.32 124.122 35.76C125.21 35.184 126.434 34.896 127.794 34.896C129.154 34.896 130.37 35.184 131.442 35.76C132.514 36.32 133.354 37.104 133.962 38.112C134.57 39.12 134.874 40.264 134.874 41.544C134.874 42.824 134.57 43.968 133.962 44.976C133.354 45.984 132.514 46.776 131.442 47.352C130.37 47.912 129.154 48.192 127.794 48.192ZM127.794 45.12C128.754 45.12 129.538 44.8 130.146 44.16C130.77 43.504 131.082 42.632 131.082 41.544C131.082 40.456 130.77 39.592 130.146 38.952C129.538 38.296 128.754 37.968 127.794 37.968C126.834 37.968 126.042 38.296 125.418 38.952C124.794 39.592 124.482 40.456 124.482 41.544C124.482 42.632 124.794 43.504 125.418 44.16C126.042 44.8 126.834 45.12 127.794 45.12ZM145.224 34.896C146.824 34.896 148.112 35.376 149.088 36.336C150.08 37.296 150.576 38.72 150.576 40.608V48H146.832V41.184C146.832 40.16 146.608 39.4 146.16 38.904C145.712 38.392 145.064 38.136 144.216 38.136C143.272 38.136 142.52 38.432 141.96 39.024C141.4 39.6 141.12 40.464 141.12 41.616V48H137.376V35.088H140.952V36.6C141.448 36.056 142.064 35.64 142.8 35.352C143.536 35.048 144.344 34.896 145.224 34.896ZM167.263 30.192V48H163.687V46.512C162.759 47.632 161.415 48.192 159.655 48.192C158.439 48.192 157.335 47.92 156.343 47.376C155.367 46.832 154.599 46.056 154.039 45.048C153.479 44.04 153.199 42.872 153.199 41.544C153.199 40.216 153.479 39.048 154.039 38.04C154.599 37.032 155.367 36.256 156.343 35.712C157.335 35.168 158.439 34.896 159.655 34.896C161.303 34.896 162.591 35.416 163.519 36.456V30.192H167.263ZM160.303 45.12C161.247 45.12 162.031 44.8 162.655 44.16C163.279 43.504 163.591 42.632 163.591 41.544C163.591 40.456 163.279 39.592 162.655 38.952C162.031 38.296 161.247 37.968 160.303 37.968C159.343 37.968 158.551 38.296 157.927 38.952C157.303 39.592 156.991 40.456 156.991 41.544C156.991 42.632 157.303 43.504 157.927 44.16C158.551 44.8 159.343 45.12 160.303 45.12ZM175.936 34.896C177.936 34.896 179.472 35.376 180.544 36.336C181.616 37.28 182.152 38.712 182.152 40.632V48H178.648V46.392C177.944 47.592 176.632 48.192 174.712 48.192C173.72 48.192 172.856 48.024 172.12 47.688C171.4 47.352 170.848 46.888 170.464 46.296C170.08 45.704 169.888 45.032 169.888 44.28C169.888 43.08 170.336 42.136 171.232 41.448C172.144 40.76 173.544 40.416 175.432 40.416H178.408C178.408 39.6 178.16 38.976 177.664 38.544C177.168 38.096 176.424 37.872 175.432 37.872C174.744 37.872 174.064 37.984 173.392 38.208C172.736 38.416 172.176 38.704 171.712 39.072L170.368 36.456C171.072 35.96 171.912 35.576 172.888 35.304C173.88 35.032 174.896 34.896 175.936 34.896ZM175.648 45.672C176.288 45.672 176.856 45.528 177.352 45.24C177.848 44.936 178.2 44.496 178.408 43.92V42.6H175.84C174.304 42.6 173.536 43.104 173.536 44.112C173.536 44.592 173.72 44.976 174.088 45.264C174.472 45.536 174.992 45.672 175.648 45.672ZM198.122 35.088L192.29 48.792C191.698 50.28 190.962 51.328 190.082 51.936C189.218 52.544 188.17 52.848 186.938 52.848C186.266 52.848 185.602 52.744 184.946 52.536C184.29 52.328 183.754 52.04 183.338 51.672L184.706 49.008C184.994 49.264 185.322 49.464 185.69 49.608C186.074 49.752 186.45 49.824 186.818 49.824C187.33 49.824 187.746 49.696 188.066 49.44C188.386 49.2 188.674 48.792 188.93 48.216L188.978 48.096L183.386 35.088H187.25L190.874 43.848L194.522 35.088H198.122Z" fill="white"/>
<path fill-rule="evenodd" clip-rule="evenodd" d="M211.2 25.2689C211.939 24.8734 212.836 24.9168 213.533 25.3817L233.988 39.0181C234.62 39.4396 235 40.1492 235 40.9091C235 41.669 234.62 42.3786 233.988 42.8001L213.533 56.4365C212.836 56.9014 211.939 56.9448 211.2 56.5493C210.461 56.1538 210 55.3836 210 54.5455V27.2727C210 26.4346 210.461 25.6644 211.2 25.2689ZM214.545 31.5194V50.2988L228.63 40.9091L214.545 31.5194Z" fill="white"/>
<path fill-rule="evenodd" clip-rule="evenodd" d="M83.7997 56.7311C83.0607 57.1266 82.164 57.0832 81.4666 56.6183L61.012 42.9819C60.3798 42.5604 60 41.8508 60 41.0909C60 40.331 60.3798 39.6214 61.012 39.1999L81.4666 25.5635C82.164 25.0986 83.0607 25.0552 83.7997 25.4507C84.5387 25.8462 85 26.6164 85 27.4545V54.7273C85 55.5654 84.5387 56.3356 83.7997 56.7311ZM80.4545 50.4806V31.7012L66.3699 41.0909L80.4545 50.4806Z" fill="white"/>
</svg>
