<svg width="295" height="133" viewBox="0 0 295 133" fill="none" xmlns="http://www.w3.org/2000/svg">
<rect x="1" y="1" width="293" height="131" fill="#4870FF" stroke="black"/>
<path d="M117.538 17.4L113.416 30H110.284L107.512 21.468L104.65 30H101.536L97.396 17.4H100.42L103.264 26.256L106.234 17.4H108.934L111.814 26.328L114.748 17.4H117.538ZM122.855 30.144C121.835 30.144 120.917 29.934 120.101 29.514C119.297 29.082 118.667 28.488 118.211 27.732C117.755 26.976 117.527 26.118 117.527 25.158C117.527 24.198 117.755 23.34 118.211 22.584C118.667 21.828 119.297 21.24 120.101 20.82C120.917 20.388 121.835 20.172 122.855 20.172C123.875 20.172 124.787 20.388 125.591 20.82C126.395 21.24 127.025 21.828 127.481 22.584C127.937 23.34 128.165 24.198 128.165 25.158C128.165 26.118 127.937 26.976 127.481 27.732C127.025 28.488 126.395 29.082 125.591 29.514C124.787 29.934 123.875 30.144 122.855 30.144ZM122.855 27.84C123.575 27.84 124.163 27.6 124.619 27.12C125.087 26.628 125.321 25.974 125.321 25.158C125.321 24.342 125.087 23.694 124.619 23.214C124.163 22.722 123.575 22.476 122.855 22.476C122.135 22.476 121.541 22.722 121.073 23.214C120.605 23.694 120.371 24.342 120.371 25.158C120.371 25.974 120.605 26.628 121.073 27.12C121.541 27.6 122.135 27.84 122.855 27.84ZM132.724 21.594C133.06 21.126 133.51 20.772 134.074 20.532C134.65 20.292 135.31 20.172 136.054 20.172V22.764C135.742 22.74 135.532 22.728 135.424 22.728C134.62 22.728 133.99 22.956 133.534 23.412C133.078 23.856 132.85 24.528 132.85 25.428V30H130.042V20.316H132.724V21.594ZM141.882 26.202L140.532 27.534V30H137.724V16.644H140.532V24.204L144.636 20.316H147.984L143.952 24.42L148.344 30H144.942L141.882 26.202ZM153.793 30.144C152.773 30.144 151.855 29.934 151.039 29.514C150.235 29.082 149.605 28.488 149.149 27.732C148.693 26.976 148.465 26.118 148.465 25.158C148.465 24.198 148.693 23.34 149.149 22.584C149.605 21.828 150.235 21.24 151.039 20.82C151.855 20.388 152.773 20.172 153.793 20.172C154.813 20.172 155.725 20.388 156.529 20.82C157.333 21.24 157.963 21.828 158.419 22.584C158.875 23.34 159.103 24.198 159.103 25.158C159.103 26.118 158.875 26.976 158.419 27.732C157.963 28.488 157.333 29.082 156.529 29.514C155.725 29.934 154.813 30.144 153.793 30.144ZM153.793 27.84C154.513 27.84 155.101 27.6 155.557 27.12C156.025 26.628 156.259 25.974 156.259 25.158C156.259 24.342 156.025 23.694 155.557 23.214C155.101 22.722 154.513 22.476 153.793 22.476C153.073 22.476 152.479 22.722 152.011 23.214C151.543 23.694 151.309 24.342 151.309 25.158C151.309 25.974 151.543 26.628 152.011 27.12C152.479 27.6 153.073 27.84 153.793 27.84ZM170.736 20.316V30H168.072V28.848C167.7 29.268 167.256 29.592 166.74 29.82C166.224 30.036 165.666 30.144 165.066 30.144C163.794 30.144 162.786 29.778 162.042 29.046C161.298 28.314 160.926 27.228 160.926 25.788V20.316H163.734V25.374C163.734 26.934 164.388 27.714 165.696 27.714C166.368 27.714 166.908 27.498 167.316 27.066C167.724 26.622 167.928 25.968 167.928 25.104V20.316H170.736ZM179.583 29.532C179.307 29.736 178.965 29.892 178.557 30C178.161 30.096 177.741 30.144 177.297 30.144C176.145 30.144 175.251 29.85 174.615 29.262C173.991 28.674 173.679 27.81 173.679 26.67V22.692H172.185V20.532H173.679V18.174H176.487V20.532H178.899V22.692H176.487V26.634C176.487 27.042 176.589 27.36 176.793 27.588C177.009 27.804 177.309 27.912 177.693 27.912C178.137 27.912 178.515 27.792 178.827 27.552L179.583 29.532Z" fill="#101010"/>
<path d="M18.768 23.098C19.572 23.098 20.304 23.26 20.964 23.584C21.624 23.908 22.146 24.37 22.53 24.97C22.914 25.558 23.106 26.242 23.106 27.022C23.106 27.862 22.896 28.6 22.476 29.236C22.056 29.872 21.48 30.364 20.748 30.712C20.028 31.048 19.224 31.216 18.336 31.216C16.572 31.216 15.192 30.676 14.196 29.596C13.2 28.516 12.702 26.974 12.702 24.97C12.702 23.542 12.972 22.318 13.512 21.298C14.052 20.278 14.802 19.504 15.762 18.976C16.734 18.448 17.856 18.184 19.128 18.184C19.8 18.184 20.442 18.262 21.054 18.418C21.678 18.562 22.206 18.772 22.638 19.048L21.558 21.19C20.934 20.77 20.148 20.56 19.2 20.56C18.132 20.56 17.286 20.872 16.662 21.496C16.038 22.12 15.702 23.026 15.654 24.214C16.398 23.47 17.436 23.098 18.768 23.098ZM18.174 29.038C18.798 29.038 19.302 28.87 19.686 28.534C20.082 28.198 20.28 27.742 20.28 27.166C20.28 26.59 20.082 26.134 19.686 25.798C19.302 25.45 18.786 25.276 18.138 25.276C17.502 25.276 16.98 25.456 16.572 25.816C16.164 26.164 15.96 26.614 15.96 27.166C15.96 27.718 16.158 28.168 16.554 28.516C16.95 28.864 17.49 29.038 18.174 29.038ZM25.8189 24.682C25.3269 24.682 24.9129 24.514 24.5769 24.178C24.2409 23.842 24.0729 23.422 24.0729 22.918C24.0729 22.402 24.2409 21.988 24.5769 21.676C24.9129 21.352 25.3269 21.19 25.8189 21.19C26.3109 21.19 26.7249 21.352 27.0609 21.676C27.3969 21.988 27.5649 22.402 27.5649 22.918C27.5649 23.422 27.3969 23.842 27.0609 24.178C26.7249 24.514 26.3109 24.682 25.8189 24.682ZM25.8189 31.144C25.3269 31.144 24.9129 30.976 24.5769 30.64C24.2409 30.304 24.0729 29.884 24.0729 29.38C24.0729 28.864 24.2409 28.45 24.5769 28.138C24.9129 27.814 25.3269 27.652 25.8189 27.652C26.3109 27.652 26.7249 27.814 27.0609 28.138C27.3969 28.45 27.5649 28.864 27.5649 29.38C27.5649 29.884 27.3969 30.304 27.0609 30.64C26.7249 30.976 26.3109 31.144 25.8189 31.144ZM34.2739 31.216C33.2299 31.216 32.2999 30.958 31.4839 30.442C30.6679 29.926 30.0259 29.182 29.5579 28.21C29.1019 27.226 28.8739 26.056 28.8739 24.7C28.8739 23.344 29.1019 22.18 29.5579 21.208C30.0259 20.224 30.6679 19.474 31.4839 18.958C32.2999 18.442 33.2299 18.184 34.2739 18.184C35.3179 18.184 36.2479 18.442 37.0639 18.958C37.8799 19.474 38.5159 20.224 38.9719 21.208C39.4399 22.18 39.6739 23.344 39.6739 24.7C39.6739 26.056 39.4399 27.226 38.9719 28.21C38.5159 29.182 37.8799 29.926 37.0639 30.442C36.2479 30.958 35.3179 31.216 34.2739 31.216ZM34.2739 28.75C35.0419 28.75 35.6419 28.42 36.0739 27.76C36.5179 27.1 36.7399 26.08 36.7399 24.7C36.7399 23.32 36.5179 22.3 36.0739 21.64C35.6419 20.98 35.0419 20.65 34.2739 20.65C33.5179 20.65 32.9179 20.98 32.4739 21.64C32.0419 22.3 31.8259 23.32 31.8259 24.7C31.8259 26.08 32.0419 27.1 32.4739 27.76C32.9179 28.42 33.5179 28.75 34.2739 28.75ZM46.4907 31.216C45.4467 31.216 44.5167 30.958 43.7007 30.442C42.8847 29.926 42.2427 29.182 41.7747 28.21C41.3187 27.226 41.0907 26.056 41.0907 24.7C41.0907 23.344 41.3187 22.18 41.7747 21.208C42.2427 20.224 42.8847 19.474 43.7007 18.958C44.5167 18.442 45.4467 18.184 46.4907 18.184C47.5347 18.184 48.4647 18.442 49.2807 18.958C50.0967 19.474 50.7327 20.224 51.1887 21.208C51.6567 22.18 51.8907 23.344 51.8907 24.7C51.8907 26.056 51.6567 27.226 51.1887 28.21C50.7327 29.182 50.0967 29.926 49.2807 30.442C48.4647 30.958 47.5347 31.216 46.4907 31.216ZM46.4907 28.75C47.2587 28.75 47.8587 28.42 48.2907 27.76C48.7347 27.1 48.9567 26.08 48.9567 24.7C48.9567 23.32 48.7347 22.3 48.2907 21.64C47.8587 20.98 47.2587 20.65 46.4907 20.65C45.7347 20.65 45.1347 20.98 44.6907 21.64C44.2587 22.3 44.0427 23.32 44.0427 24.7C44.0427 26.08 44.2587 27.1 44.6907 27.76C45.1347 28.42 45.7347 28.75 46.4907 28.75Z" fill="#060606"/>
<rect x="264" y="19.1213" width="3" height="17" transform="rotate(-45 264 19.1213)" fill="black"/>
<rect x="266.121" y="31.1421" width="3" height="17" transform="rotate(-135 266.121 31.1421)" fill="black"/>
<path d="M22.566 110.4V112.29L17.886 123H14.718L19.236 112.776H15.06V114.828H12.468V110.4H22.566ZM25.1685 116.682C24.6765 116.682 24.2625 116.514 23.9265 116.178C23.5905 115.842 23.4225 115.422 23.4225 114.918C23.4225 114.402 23.5905 113.988 23.9265 113.676C24.2625 113.352 24.6765 113.19 25.1685 113.19C25.6605 113.19 26.0745 113.352 26.4105 113.676C26.7465 113.988 26.9145 114.402 26.9145 114.918C26.9145 115.422 26.7465 115.842 26.4105 116.178C26.0745 116.514 25.6605 116.682 25.1685 116.682ZM25.1685 123.144C24.6765 123.144 24.2625 122.976 23.9265 122.64C23.5905 122.304 23.4225 121.884 23.4225 121.38C23.4225 120.864 23.5905 120.45 23.9265 120.138C24.2625 119.814 24.6765 119.652 25.1685 119.652C25.6605 119.652 26.0745 119.814 26.4105 120.138C26.7465 120.45 26.9145 120.864 26.9145 121.38C26.9145 121.884 26.7465 122.304 26.4105 122.64C26.0745 122.976 25.6605 123.144 25.1685 123.144ZM33.6235 123.216C32.5795 123.216 31.6495 122.958 30.8335 122.442C30.0175 121.926 29.3755 121.182 28.9075 120.21C28.4515 119.226 28.2235 118.056 28.2235 116.7C28.2235 115.344 28.4515 114.18 28.9075 113.208C29.3755 112.224 30.0175 111.474 30.8335 110.958C31.6495 110.442 32.5795 110.184 33.6235 110.184C34.6675 110.184 35.5975 110.442 36.4135 110.958C37.2295 111.474 37.8655 112.224 38.3215 113.208C38.7895 114.18 39.0235 115.344 39.0235 116.7C39.0235 118.056 38.7895 119.226 38.3215 120.21C37.8655 121.182 37.2295 121.926 36.4135 122.442C35.5975 122.958 34.6675 123.216 33.6235 123.216ZM33.6235 120.75C34.3915 120.75 34.9915 120.42 35.4235 119.76C35.8675 119.1 36.0895 118.08 36.0895 116.7C36.0895 115.32 35.8675 114.3 35.4235 113.64C34.9915 112.98 34.3915 112.65 33.6235 112.65C32.8675 112.65 32.2675 112.98 31.8235 113.64C31.3915 114.3 31.1755 115.32 31.1755 116.7C31.1755 118.08 31.3915 119.1 31.8235 119.76C32.2675 120.42 32.8675 120.75 33.6235 120.75ZM45.8403 123.216C44.7963 123.216 43.8663 122.958 43.0503 122.442C42.2343 121.926 41.5923 121.182 41.1243 120.21C40.6683 119.226 40.4403 118.056 40.4403 116.7C40.4403 115.344 40.6683 114.18 41.1243 113.208C41.5923 112.224 42.2343 111.474 43.0503 110.958C43.8663 110.442 44.7963 110.184 45.8403 110.184C46.8843 110.184 47.8143 110.442 48.6303 110.958C49.4463 111.474 50.0823 112.224 50.5383 113.208C51.0063 114.18 51.2403 115.344 51.2403 116.7C51.2403 118.056 51.0063 119.226 50.5383 120.21C50.0823 121.182 49.4463 121.926 48.6303 122.442C47.8143 122.958 46.8843 123.216 45.8403 123.216ZM45.8403 120.75C46.6083 120.75 47.2083 120.42 47.6403 119.76C48.0843 119.1 48.3063 118.08 48.3063 116.7C48.3063 115.32 48.0843 114.3 47.6403 113.64C47.2083 112.98 46.6083 112.65 45.8403 112.65C45.0843 112.65 44.4843 112.98 44.0403 113.64C43.6083 114.3 43.3923 115.32 43.3923 116.7C43.3923 118.08 43.6083 119.1 44.0403 119.76C44.4843 120.42 45.0843 120.75 45.8403 120.75Z" fill="#070707"/>
</svg>
