<svg width="295" height="33" viewBox="0 0 295 33" fill="none" xmlns="http://www.w3.org/2000/svg">
<rect x="1" y="1" width="293" height="31" fill="#B39D9D" stroke="black"/>
<path d="M17.13 10.184C18.894 10.184 20.274 10.724 21.27 11.804C22.266 12.872 22.764 14.414 22.764 16.43C22.764 17.858 22.494 19.082 21.954 20.102C21.426 21.122 20.676 21.896 19.704 22.424C18.732 22.952 17.61 23.216 16.338 23.216C15.666 23.216 15.024 23.144 14.412 23C13.8 22.844 13.278 22.628 12.846 22.352L13.926 20.21C14.538 20.63 15.324 20.84 16.284 20.84C17.352 20.84 18.198 20.528 18.822 19.904C19.446 19.268 19.782 18.356 19.83 17.168C19.074 17.924 18.03 18.302 16.698 18.302C15.894 18.302 15.162 18.14 14.502 17.816C13.842 17.492 13.32 17.036 12.936 16.448C12.552 15.848 12.36 15.158 12.36 14.378C12.36 13.538 12.57 12.8 12.99 12.164C13.41 11.528 13.98 11.042 14.7 10.706C15.432 10.358 16.242 10.184 17.13 10.184ZM17.346 16.124C17.982 16.124 18.498 15.95 18.894 15.602C19.302 15.242 19.506 14.786 19.506 14.234C19.506 13.682 19.308 13.232 18.912 12.884C18.528 12.536 17.994 12.362 17.31 12.362C16.686 12.362 16.176 12.53 15.78 12.866C15.396 13.202 15.204 13.658 15.204 14.234C15.204 14.81 15.396 15.272 15.78 15.62C16.176 15.956 16.698 16.124 17.346 16.124ZM25.8189 16.682C25.3269 16.682 24.9129 16.514 24.5769 16.178C24.2409 15.842 24.0729 15.422 24.0729 14.918C24.0729 14.402 24.2409 13.988 24.5769 13.676C24.9129 13.352 25.3269 13.19 25.8189 13.19C26.3109 13.19 26.7249 13.352 27.0609 13.676C27.3969 13.988 27.5649 14.402 27.5649 14.918C27.5649 15.422 27.3969 15.842 27.0609 16.178C26.7249 16.514 26.3109 16.682 25.8189 16.682ZM25.8189 23.144C25.3269 23.144 24.9129 22.976 24.5769 22.64C24.2409 22.304 24.0729 21.884 24.0729 21.38C24.0729 20.864 24.2409 20.45 24.5769 20.138C24.9129 19.814 25.3269 19.652 25.8189 19.652C26.3109 19.652 26.7249 19.814 27.0609 20.138C27.3969 20.45 27.5649 20.864 27.5649 21.38C27.5649 21.884 27.3969 22.304 27.0609 22.64C26.7249 22.976 26.3109 23.144 25.8189 23.144ZM34.2739 23.216C33.2299 23.216 32.2999 22.958 31.4839 22.442C30.6679 21.926 30.0259 21.182 29.5579 20.21C29.1019 19.226 28.8739 18.056 28.8739 16.7C28.8739 15.344 29.1019 14.18 29.5579 13.208C30.0259 12.224 30.6679 11.474 31.4839 10.958C32.2999 10.442 33.2299 10.184 34.2739 10.184C35.3179 10.184 36.2479 10.442 37.0639 10.958C37.8799 11.474 38.5159 12.224 38.9719 13.208C39.4399 14.18 39.6739 15.344 39.6739 16.7C39.6739 18.056 39.4399 19.226 38.9719 20.21C38.5159 21.182 37.8799 21.926 37.0639 22.442C36.2479 22.958 35.3179 23.216 34.2739 23.216ZM34.2739 20.75C35.0419 20.75 35.6419 20.42 36.0739 19.76C36.5179 19.1 36.7399 18.08 36.7399 16.7C36.7399 15.32 36.5179 14.3 36.0739 13.64C35.6419 12.98 35.0419 12.65 34.2739 12.65C33.5179 12.65 32.9179 12.98 32.4739 13.64C32.0419 14.3 31.8259 15.32 31.8259 16.7C31.8259 18.08 32.0419 19.1 32.4739 19.76C32.9179 20.42 33.5179 20.75 34.2739 20.75ZM46.4907 23.216C45.4467 23.216 44.5167 22.958 43.7007 22.442C42.8847 21.926 42.2427 21.182 41.7747 20.21C41.3187 19.226 41.0907 18.056 41.0907 16.7C41.0907 15.344 41.3187 14.18 41.7747 13.208C42.2427 12.224 42.8847 11.474 43.7007 10.958C44.5167 10.442 45.4467 10.184 46.4907 10.184C47.5347 10.184 48.4647 10.442 49.2807 10.958C50.0967 11.474 50.7327 12.224 51.1887 13.208C51.6567 14.18 51.8907 15.344 51.8907 16.7C51.8907 18.056 51.6567 19.226 51.1887 20.21C50.7327 21.182 50.0967 21.926 49.2807 22.442C48.4647 22.958 47.5347 23.216 46.4907 23.216ZM46.4907 20.75C47.2587 20.75 47.8587 20.42 48.2907 19.76C48.7347 19.1 48.9567 18.08 48.9567 16.7C48.9567 15.32 48.7347 14.3 48.2907 13.64C47.8587 12.98 47.2587 12.65 46.4907 12.65C45.7347 12.65 45.1347 12.98 44.6907 13.64C44.2587 14.3 44.0427 15.32 44.0427 16.7C44.0427 18.08 44.2587 19.1 44.6907 19.76C45.1347 20.42 45.7347 20.75 46.4907 20.75Z" fill="#070707"/>
<rect x="270" y="8" width="3" height="17" fill="black"/>
<rect x="263" y="18" width="3" height="17" transform="rotate(-90 263 18)" fill="black"/>
</svg>
