<svg width="170" height="205" viewBox="0 0 170 205" fill="none" xmlns="http://www.w3.org/2000/svg">
<path d="M85 204.291C131.944 204.291 170 201.389 170 197.808C170 194.228 131.944 191.325 85 191.325C38.0558 191.325 0 194.228 0 197.808C0 201.389 38.0558 204.291 85 204.291Z" fill="#E6E6E6"/>
<path d="M108.441 11.4105H81.1265V45.4721H108.441V11.4105Z" fill="#2F2E41"/>
<path d="M58.5713 170.295L54.8467 184.003L61.0548 188.572L62.7099 187.326L65.607 173.203L58.5713 170.295Z" fill="#FFB8B8"/>
<path d="M105.337 169.049L104.095 185.664H111.959V170.295L105.337 169.049Z" fill="#FFB8B8"/>
<path d="M80.5056 63.9569V73.9262L95.8185 76.4184L109.062 71.0186L106.578 64.7875L80.5056 63.9569Z" fill="#FFB8B8"/>
<path d="M92.9213 72.2645L79.678 69.7722L76.3672 96.7722L68.0901 130.418C68.0901 130.418 55.6745 159.08 57.3299 165.726L58.1577 167.803L57.3299 171.542L65.607 174.865L68.9178 169.465C68.9178 169.465 71.401 173.203 75.5395 165.311C79.678 157.418 97.0599 108.403 97.0599 108.403L99.9568 116.711C99.2075 119.274 99.0658 121.976 99.543 124.603C100.371 128.757 101.198 141.634 101.198 141.634C101.198 141.634 96.646 164.065 102.854 165.726L104.095 170.711L112.786 171.542L114.442 166.557C114.442 166.557 122.719 163.649 120.649 149.111C118.58 134.572 117.753 86.803 117.753 86.803L109.599 66.626L92.9213 72.2645Z" fill="#2F2E41"/>
<path d="M57.33 183.172C57.33 183.172 55.2608 181.511 54.4331 181.926C53.6054 182.341 44.9144 193.557 44.9144 193.557C44.9144 193.557 35.8096 200.618 42.4313 201.449C49.053 202.28 67.2625 193.141 67.2625 191.065C67.2625 188.988 63.4363 183.786 63.4363 183.786C63.4363 183.786 60.6409 186.08 57.33 183.172Z" fill="#2F2E41"/>
<path d="M103.268 181.926C103.268 181.926 110.717 181.462 111.959 182.732C113.2 184.003 112.786 190.234 112.786 190.234C112.786 190.234 113.614 201.449 106.992 201.449C100.371 201.449 102.026 193.972 102.026 193.972L103.268 181.926Z" fill="#2F2E41"/>
<path d="M95.8183 27.403C101.532 27.403 106.165 22.7537 106.165 17.0184C106.165 11.2831 101.532 6.63379 95.8183 6.63379C90.1041 6.63379 85.4719 11.2831 85.4719 17.0184C85.4719 22.7537 90.1041 27.403 95.8183 27.403Z" fill="#FFB8B8"/>
<path d="M88.9899 23.4569C88.9899 23.4569 94.7838 30.5185 83.1959 35.9185C71.608 41.3185 91.473 63.7492 91.473 63.7492C91.473 63.7492 114.649 55.0262 112.58 37.9954C112.58 37.9954 98.5085 35.5031 101.819 23.8723L88.9899 23.4569Z" fill="#FFB8B8"/>
<path d="M82.7821 35.5032C82.7821 35.5032 73.2634 34.257 72.8496 42.1493C72.4357 50.0416 72.8496 69.1493 72.8496 69.1493C72.8496 69.1493 68.7111 85.7647 70.7803 100.303C70.7803 100.303 68.2972 117.334 74.9189 116.503C81.5405 115.672 76.5743 99.0571 76.5743 99.0571L79.4712 72.057L78.2297 52.1186L83.6098 40.0724L82.7821 35.5032Z" fill="#FFB8B8"/>
<path d="M110.176 37.3382C110.176 37.3382 119.201 37.1646 119.615 43.8108C120.029 50.457 116.718 70.8108 116.718 70.8108L111.752 73.3031L107.199 59.18L110.176 37.3382Z" fill="#FFB8B8"/>
<path d="M112.786 71.4341L111.959 73.511L114.442 79.7418C114.442 79.7418 104.509 87.6341 105.337 89.2956C106.165 90.9571 110.717 87.2187 110.717 87.2187L117.339 90.5418C117.339 90.5418 122.719 84.7264 120.236 79.3264C118.86 76.4233 117.709 73.4191 116.794 70.34C116.794 70.34 113.2 70.1879 112.786 71.4341Z" fill="#FFB8B8"/>
<path d="M80.9196 34.0492L79.6781 47.7569C79.6781 47.7569 73.8841 53.5723 80.5058 61.4646L79.6781 67.6954C79.6781 67.6954 94.9907 66.8646 97.8877 67.6954C100.785 68.5262 109.731 67.0265 109.731 67.0265L109.889 62.2954C109.889 62.2954 114.028 56.48 112.786 47.7569C111.545 39.0338 112.786 36.1261 112.786 36.1261L109.889 35.7107C109.889 35.7107 108.027 48.38 95.1976 49.6261C95.1976 49.6261 79.2642 51.08 83.8166 34.0492L80.9196 34.0492Z" fill="#4870FF"/>
<path d="M96.8529 0.195276C96.8529 0.195276 86.0927 -0.474252 83.6096 6.24171C81.1264 12.9577 76.781 16.4835 76.781 16.4835C76.781 16.4835 69.9358 21.2593 73.3584 29.7848C73.3584 29.7848 62.71 36.9671 69.7455 43.3472C69.7455 43.3472 69.3316 49.7274 73.4702 54.0927C73.4702 54.0927 76.781 55.7717 75.5394 56.7791C74.2979 57.7865 83.8165 57.1149 82.9888 48.0484C82.1611 38.9819 87.7481 32.5953 87.7481 32.5953C87.7481 32.5953 82.368 20.8402 84.8511 16.8107C86.3587 14.3642 87.0062 12.5397 88.2577 11.4838C88.9548 10.9097 89.6012 10.2765 90.1897 9.59135C90.7448 8.88561 91.5004 8.36437 92.3573 8.09615C93.2141 7.82793 94.1321 7.82529 94.9905 8.08857C98.7152 9.09596 99.5429 12.1181 99.5429 12.1181C99.5429 12.1181 102.233 19.3378 106.785 22.6957C111.338 26.0537 103.268 31.9301 103.268 31.9301C103.268 31.9301 104.67 38.8488 108.314 42.9449C111.959 47.041 107.264 50.6114 106.992 51.0705C106.371 52.1184 103.892 58.7352 114.133 58.7646C114.133 58.7646 116.511 53.7569 119.822 50.7348C123.133 47.7126 120.649 38.9819 120.649 38.9819C120.649 38.9819 125.616 35.9597 120.236 28.5722C120.236 28.5722 121.891 21.8562 117.339 17.4909C117.339 17.4909 110.924 -2.1553 96.8529 0.195276Z" fill="#2F2E41"/>
<path d="M35.2269 188.149H9.82935V191.094H35.2269V188.149Z" fill="#2F2E41"/>
<path d="M35.2268 198.455C36.4465 198.455 37.4353 194.5 37.4353 189.622C37.4353 184.743 36.4465 180.788 35.2268 180.788C34.0071 180.788 33.0183 184.743 33.0183 189.622C33.0183 194.5 34.0071 198.455 35.2268 198.455Z" fill="#2F2E41"/>
<path d="M9.82934 198.455C11.0491 198.455 12.0378 194.5 12.0378 189.622C12.0378 184.743 11.0491 180.788 9.82934 180.788C8.60962 180.788 7.62085 184.743 7.62085 189.622C7.62085 194.5 8.60962 198.455 9.82934 198.455Z" fill="#2F2E41"/>
<path d="M29.1978 188.149H3.80029V191.094H29.1978V188.149Z" fill="#2F2E41"/>
<path d="M29.1977 198.455C30.4175 198.455 31.4062 194.5 31.4062 189.622C31.4062 184.743 30.4175 180.788 29.1977 180.788C27.978 180.788 26.9893 184.743 26.9893 189.622C26.9893 194.5 27.978 198.455 29.1977 198.455Z" fill="#2F2E41"/>
<path d="M3.80029 198.455C5.02 198.455 6.00878 194.5 6.00878 189.622C6.00878 184.743 5.02 180.788 3.80029 180.788C2.58057 180.788 1.5918 184.743 1.5918 189.622C1.5918 194.5 2.58057 198.455 3.80029 198.455Z" fill="#2F2E41"/>
</svg>
