<svg width="202" height="220" viewBox="0 0 202 220" fill="none" xmlns="http://www.w3.org/2000/svg">
<g clip-path="url(#clip0)">
<path d="M202 198.107C202 204.784 156.781 220 101 220C45.2192 220 0 204.784 0 198.107C0 191.43 45.2192 195.82 101 195.82C156.781 195.82 202 191.43 202 198.107Z" fill="#3F3D56"/>
<path opacity="0.1" d="M202 198.107C202 204.784 156.781 220 101 220C45.2192 220 0 204.784 0 198.107C0 191.43 45.2192 195.82 101 195.82C156.781 195.82 202 191.43 202 198.107Z" fill="black"/>
<path d="M28.7638 109.228C31.1106 109.228 33.013 107.326 33.013 104.98C33.013 102.634 31.1106 100.732 28.7638 100.732C26.4171 100.732 24.5146 102.634 24.5146 104.98C24.5146 107.326 26.4171 109.228 28.7638 109.228Z" fill="#4870FF"/>
<path d="M47.3947 144.191C49.7415 144.191 51.6439 142.289 51.6439 139.943C51.6439 137.597 49.7415 135.696 47.3947 135.696C45.0479 135.696 43.1455 137.597 43.1455 139.943C43.1455 142.289 45.0479 144.191 47.3947 144.191Z" fill="#4870FF"/>
<path d="M33.0129 135.369C35.3596 135.369 37.262 133.467 37.262 131.121C37.262 128.775 35.3596 126.873 33.0129 126.873C30.6661 126.873 28.7637 128.775 28.7637 131.121C28.7637 133.467 30.6661 135.369 33.0129 135.369Z" fill="#4870FF"/>
<path d="M34.3683 191.415C34.2933 191.293 32.5246 188.34 31.9114 182.21C31.349 176.585 31.7106 167.105 36.6289 153.88C45.9463 128.827 34.4816 108.613 34.3645 108.411L34.9301 108.083C34.9598 108.134 37.9181 113.288 39.6657 121.495C41.9749 132.375 41.134 143.688 37.2417 154.108C27.9402 179.118 34.8554 190.958 34.9262 191.075L34.3683 191.415Z" fill="#CFCCE0"/>
<path d="M30.725 107.267C29.8199 107.267 28.9352 106.999 28.1827 106.496C27.4301 105.993 26.8436 105.279 26.4973 104.443C26.1509 103.607 26.0603 102.687 26.2369 101.8C26.4134 100.913 26.8493 100.097 27.4892 99.4577C28.1292 98.8179 28.9446 98.3822 29.8322 98.2057C30.7199 98.0292 31.64 98.1198 32.4762 98.466C33.3123 98.8123 34.027 99.3986 34.5298 100.151C35.0327 100.903 35.301 101.788 35.301 102.692C35.2997 103.905 34.8171 105.068 33.9592 105.926C33.1014 106.783 31.9382 107.266 30.725 107.267ZM30.725 98.7713C29.9492 98.7713 29.1909 99.0013 28.5459 99.4322C27.9008 99.863 27.3981 100.475 27.1012 101.192C26.8044 101.908 26.7267 102.697 26.878 103.457C27.0294 104.218 27.4029 104.917 27.9515 105.465C28.5 106.014 29.1989 106.387 29.9598 106.538C30.7206 106.69 31.5093 106.612 32.226 106.315C32.9427 106.018 33.5553 105.516 33.9863 104.871C34.4173 104.226 34.6473 103.468 34.6473 102.692C34.6461 101.653 34.2325 100.656 33.4972 99.9211C32.7619 99.186 31.7649 98.7725 30.725 98.7713Z" fill="#CFCCE0"/>
<path d="M44.1261 122.625C46.4729 122.625 48.3753 120.723 48.3753 118.377C48.3753 116.031 46.4729 114.129 44.1261 114.129C41.7794 114.129 39.877 116.031 39.877 118.377C39.877 120.723 41.7794 122.625 44.1261 122.625Z" fill="#CFCCE0"/>
<path d="M34.9742 133.408C34.0692 133.408 33.1844 133.14 32.4319 132.637C31.6794 132.134 31.0929 131.42 30.7465 130.584C30.4002 129.748 30.3096 128.828 30.4861 127.941C30.6627 127.054 31.0985 126.238 31.7385 125.599C32.3785 124.959 33.1938 124.523 34.0815 124.347C34.9692 124.17 35.8893 124.261 36.7254 124.607C37.5616 124.953 38.2763 125.54 38.7791 126.292C39.2819 127.044 39.5503 127.929 39.5503 128.833C39.5489 130.046 39.0664 131.209 38.2085 132.067C37.3506 132.924 36.1875 133.407 34.9742 133.408ZM34.9742 124.912C34.1985 124.912 33.4401 125.142 32.7951 125.573C32.1501 126.004 31.6473 126.616 31.3505 127.333C31.0536 128.049 30.9759 128.838 31.1273 129.598C31.2786 130.359 31.6522 131.058 32.2007 131.606C32.7493 132.154 33.4482 132.528 34.209 132.679C34.9699 132.831 35.7585 132.753 36.4752 132.456C37.192 132.159 37.8045 131.657 38.2355 131.012C38.6665 130.367 38.8966 129.609 38.8966 128.833C38.8954 127.794 38.4818 126.797 37.7464 126.062C37.0111 125.327 36.0141 124.913 34.9742 124.912V124.912Z" fill="#CFCCE0"/>
<path d="M46.0875 142.231C45.1825 142.231 44.2977 141.962 43.5452 141.46C42.7927 140.957 42.2062 140.243 41.8598 139.407C41.5135 138.571 41.4228 137.651 41.5994 136.764C41.776 135.876 42.2118 135.061 42.8518 134.421C43.4917 133.782 44.3071 133.346 45.1948 133.169C46.0825 132.993 47.0025 133.083 47.8387 133.43C48.6749 133.776 49.3896 134.362 49.8924 135.115C50.3952 135.867 50.6636 136.751 50.6636 137.656C50.6622 138.869 50.1797 140.032 49.3218 140.889C48.4639 141.747 47.3008 142.229 46.0875 142.231ZM46.0875 133.735C45.3118 133.735 44.5534 133.965 43.9084 134.396C43.2634 134.827 42.7606 135.439 42.4638 136.156C42.1669 136.872 42.0892 137.66 42.2406 138.421C42.3919 139.182 42.7655 139.88 43.314 140.429C43.8626 140.977 44.5615 141.351 45.3223 141.502C46.0832 141.653 46.8718 141.576 47.5885 141.279C48.3053 140.982 48.9178 140.479 49.3488 139.835C49.7798 139.19 50.0099 138.432 50.0099 137.656C50.0087 136.616 49.5951 135.62 48.8597 134.885C48.1244 134.15 47.1274 133.736 46.0875 133.735Z" fill="#CFCCE0"/>
<path d="M31.7055 155.628C34.0523 155.628 35.9547 153.726 35.9547 151.38C35.9547 149.034 34.0523 147.132 31.7055 147.132C29.3587 147.132 27.4563 149.034 27.4563 151.38C27.4563 153.726 29.3587 155.628 31.7055 155.628Z" fill="#CFCCE0"/>
<path d="M36.9352 191.572C36.9352 191.572 32.686 181.115 45.4336 173.273L36.9352 191.572Z" fill="#CFCCE0"/>
<path d="M31.7093 191.382C31.7093 191.382 29.7755 180.263 14.8079 180.358L31.7093 191.382Z" fill="#CFCCE0"/>
<path d="M185.114 195.493H112.788C112.788 195.493 111.322 173.997 119.996 173.753C128.67 173.509 127.693 183.279 138.566 169.845C149.439 156.41 162.634 157.143 164.344 165.081C166.055 173.02 161.046 179.371 170.209 177.417C179.372 175.463 192.566 180.592 185.114 195.493Z" fill="#4870FF"/>
<path d="M147.73 195.498L147.486 195.488C148.055 181.335 151.02 172.242 153.407 167.106C155.999 161.529 158.496 159.272 158.521 159.25L158.684 159.432C158.659 159.454 156.191 161.689 153.62 167.228C151.246 172.343 148.297 181.398 147.73 195.498Z" fill="#F2F2F2"/>
<path d="M173.906 195.527L173.672 195.459C176.496 185.767 183.148 179.648 183.215 179.587L183.379 179.768C183.312 179.828 176.711 185.904 173.906 195.527Z" fill="#F2F2F2"/>
<path d="M124.179 195.51L123.937 195.476C124.896 188.567 123.165 183.206 121.544 179.926C119.789 176.374 117.786 174.434 117.766 174.415L117.935 174.239C117.956 174.258 119.989 176.228 121.763 179.818C123.399 183.129 125.146 188.539 124.179 195.51Z" fill="#F2F2F2"/>
<path d="M194.93 195.82H104.987L104.966 195.515C104.914 194.757 103.767 176.885 109.56 170.507C110.855 169.082 112.415 168.334 114.196 168.283C117.972 168.176 120.345 169.59 122.259 170.725C125.866 172.864 128.25 174.278 136.914 163.572C146.301 151.973 156.429 149.478 162.251 150.865C166.013 151.762 168.606 154.296 169.365 157.818C170.083 161.153 169.854 164.287 169.67 166.805C169.474 169.499 169.318 171.627 170.425 172.591C171.349 173.396 173.193 173.469 176.228 172.821C182.402 171.505 191.017 172.631 195.341 178.216C197.667 181.221 199.499 186.683 195.02 195.639L194.93 195.82ZM105.601 195.166H194.525C197.863 188.396 197.967 182.676 194.824 178.616C190.857 173.493 182.535 172.144 176.365 173.46C173.067 174.164 171.102 174.048 169.996 173.084C168.642 171.905 168.808 169.633 169.018 166.757C169.199 164.281 169.424 161.199 168.726 157.956C168.022 154.69 165.607 152.337 162.1 151.501C156.463 150.157 146.618 152.621 137.423 163.983C128.403 175.128 125.686 173.517 121.926 171.287C119.988 170.138 117.788 168.835 114.215 168.937C112.618 168.982 111.215 169.658 110.044 170.947C104.837 176.678 105.473 192.75 105.601 195.166Z" fill="#CFCCE0"/>
<path d="M101 210.197C156.781 210.197 202 204.784 202 198.107C202 191.43 156.781 186.017 101 186.017C45.2192 186.017 0 191.43 0 198.107C0 204.784 45.2192 210.197 101 210.197Z" fill="#3F3D56"/>
<path d="M103.221 39.9462C103.221 39.9462 98.1714 38.1434 94.9255 45.3545C91.6795 52.5657 86.6301 60.4979 86.6301 60.4979L89.5155 61.219C89.5155 61.219 90.2368 56.1712 92.0401 55.4501L91.3188 61.9401C91.3188 61.9401 112.959 69.5118 122.697 61.219L122.336 58.6951C122.336 58.6951 123.779 59.0557 123.779 61.219L124.861 60.1374C124.861 60.1374 123.779 57.974 120.533 55.0896C118.402 53.1963 117.67 49.5945 117.418 47.3425C117.23 45.4621 116.477 43.6826 115.26 42.2373C113.102 39.7381 109.172 37.0818 103.221 39.9462Z" fill="#2F2E41"/>
<path d="M97.8948 68.2191L92.665 61.6839L88.7427 48.2866L103.778 32.2753C103.778 32.2753 107.047 19.8583 104.105 20.5119C101.163 21.1654 100.51 30.3147 100.51 30.3147L81.5518 45.019C81.5518 45.019 83.5129 65.605 89.0696 72.7938L93.3188 86.191L97.8948 68.2191Z" fill="#FFB9B9"/>
<path d="M112.277 68.2191L117.507 61.6839L121.429 48.2866L106.393 32.2753C106.393 32.2753 103.125 19.8583 106.066 20.5119C109.008 21.1654 109.662 30.3147 109.662 30.3147L128.62 45.019C128.62 45.019 126.659 65.605 121.102 72.7938L116.853 86.191L112.277 68.2191Z" fill="#FFB9B9"/>
<path d="M105.086 62.6642C109.779 62.6642 113.584 58.8605 113.584 54.1684C113.584 49.4763 109.779 45.6726 105.086 45.6726C100.392 45.6726 96.5874 49.4763 96.5874 54.1684C96.5874 58.8605 100.392 62.6642 105.086 62.6642Z" fill="#FFB9B9"/>
<path d="M101.163 58.743C101.163 58.743 101.49 65.605 99.529 67.8924C97.5679 70.1797 95.6067 81.9431 105.086 82.2699C114.565 82.5966 113.584 72.467 113.584 72.467L111.623 66.9121C111.623 66.9121 108.681 62.6642 109.662 58.743H101.163Z" fill="#FFB9B9"/>
<path d="M92.3383 134.879L99.3658 137.002C99.3658 137.002 105.086 133.571 105.086 136.839C105.086 140.107 103.125 144.355 103.778 147.295C104.432 150.236 105.74 157.425 103.778 157.425C101.817 157.425 97.8949 144.681 97.8949 144.681L91.3577 141.087L92.3383 134.879Z" fill="#FFB9B9"/>
<path d="M101.164 180.625L98.5486 190.755C98.5486 190.755 96.2606 193.696 98.5486 195.003C99.6223 195.616 100.408 196.877 100.94 198.043C101.403 199.092 102.178 199.974 103.161 200.568C104.143 201.162 105.284 201.44 106.429 201.363C107.545 201.27 108.484 200.829 108.713 199.683C108.776 199.324 108.764 198.955 108.677 198.6C108.59 198.246 108.43 197.913 108.207 197.624C105.796 194.367 105.249 192.225 105.249 192.225L106.23 180.789L101.164 180.625Z" fill="#FFB9B9"/>
<path d="M94.8341 55.6773C94.8341 55.6773 97.7194 51.7112 100.244 50.9901C102.769 50.269 103.129 46.6634 103.129 46.6634C103.129 46.6634 109.621 53.8745 113.589 54.2351C117.556 54.5956 113.949 45.5817 113.949 45.5817L106.736 43.7789L99.8834 44.5L94.4734 48.1056L94.8341 55.6773Z" fill="#2F2E41"/>
<path d="M89.3966 110.045L88.0891 112.659C88.0891 112.659 56.3836 122.788 58.9985 132.264C61.6134 141.741 76.3221 139.126 76.3221 139.126L92.6652 142.067L94.2995 134.879L82.8594 131.938L102.471 124.749L103.125 158.079L100.51 181.932L107.047 182.586C107.047 182.586 114.238 160.693 113.257 151.543C113.257 151.543 125.351 114.293 118.487 108.738C111.623 103.183 89.3966 110.045 89.3966 110.045Z" fill="#2F2E41"/>
<path d="M105.469 72.4716L100.369 66.3095L96.9143 67.8924L93.3189 79.329C93.3189 79.329 90.3771 84.884 93.9726 90.7657C93.9726 90.7657 94.6263 94.6869 93.6457 95.6671C92.6652 96.6474 92.3383 102.856 92.3383 102.856L88.0891 111.025C88.0891 111.025 112.277 115.273 119.468 109.391C119.468 109.391 115.694 95.4837 117.982 91.2358C120.27 86.9879 120.597 80.4758 117.982 77.5349C115.368 74.5941 112.604 66.9121 112.604 66.9121L111.021 65.9L105.469 72.4716Z" fill="#CFCCE0"/>
<path d="M124.537 23.6852H121.402V20.5513H121.117V23.6852H117.982V23.9699H121.117V27.1039H121.402V23.9699H124.537V23.6852Z" fill="#CFCCE0"/>
<path d="M94.7433 17.1327H91.6084V13.9988H91.3236V17.1327H88.1887V17.4175H91.3236V20.5514H91.6084V17.4175H94.7433V17.1327Z" fill="#CFCCE0"/>
<path d="M109.044 3.13392H105.909V0H105.624V3.13392H102.49V3.41867H105.624V6.55259H105.909V3.41867H109.044V3.13392Z" fill="#CFCCE0"/>
</g>
<defs>
<clipPath id="clip0">
<rect width="202" height="220" fill="white"/>
</clipPath>
</defs>
</svg>
